<?xml version="1.0" encoding="UTF-8" standalone="no"?>
<!DOCTYPE svg PUBLIC "-//W3C//DTD SVG 1.1//EN"
 "http://www.w3.org/Graphics/SVG/1.1/DTD/svg11.dtd">
<!-- Generated by graphviz version 2.38.0 (20140413.2041)
 -->
<!-- Title: World Pages: 1 -->
<svg width="225pt" height="161pt"
 viewBox="0.00 0.00 225.00 161.00" xmlns="http://www.w3.org/2000/svg" xmlns:xlink="http://www.w3.org/1999/xlink">
<g id="graph0" class="graph" transform="scale(1 1) rotate(0) translate(4 157)">
<title>World</title>
<text text-anchor="start" x="27.5" y="-137.2" font-family="Arial" font-weight="bold" font-size="16.00">EC Data Organization</text>
<text text-anchor="start" x="67" y="-121.2" font-family="Arial" font-weight="bold" font-size="16.00">(simplified)</text>
<!-- world -->
<g id="node1" class="node"><title>world</title>
<polygon fill="#f5f5f5" stroke="black" points="217,-97 0,-97 0,-0 217,-0 217,-97"/>
<text text-anchor="start" x="12.5" y="-80.7" font-family="consolas" font-weight="bold" font-size="11.00">World</text>
<text text-anchor="start" x="12.5" y="-60.7" font-family="consolas" font-size="11.00">contact_details: </text>
<polygon fill="#eecc99" stroke="none" points="119.5,-54.5 119.5,-72.5 132.5,-72.5 132.5,-54.5 119.5,-54.5"/>
<polygon fill="none" stroke="black" points="119.5,-54.5 119.5,-72.5 132.5,-72.5 132.5,-54.5 119.5,-54.5"/>
<text text-anchor="start" x="122.5" y="-60.7" font-family="consolas" font-size="11.00"> </text>
<polygon fill="#aaccff" stroke="none" points="134.5,-22.5 134.5,-72.5 147.5,-72.5 147.5,-22.5 134.5,-22.5"/>
<polygon fill="none" stroke="black" points="134.5,-22.5 134.5,-72.5 147.5,-72.5 147.5,-22.5 134.5,-22.5"/>
<text text-anchor="start" x="137.5" y="-44.7" font-family="consolas" font-size="11.00"> </text>
<polygon fill="#eecc99" stroke="none" points="149.5,-54.5 149.5,-72.5 162.5,-72.5 162.5,-54.5 149.5,-54.5"/>
<polygon fill="none" stroke="black" points="149.5,-54.5 149.5,-72.5 162.5,-72.5 162.5,-54.5 149.5,-54.5"/>
<text text-anchor="start" x="152.5" y="-60.7" font-family="consolas" font-size="11.00"> </text>
<polygon fill="#eecc99" stroke="none" points="164.5,-54.5 164.5,-72.5 177.5,-72.5 177.5,-54.5 164.5,-54.5"/>
<polygon fill="none" stroke="black" points="164.5,-54.5 164.5,-72.5 177.5,-72.5 177.5,-54.5 164.5,-54.5"/>
<text text-anchor="start" x="167.5" y="-60.7" font-family="consolas" font-size="11.00"> </text>
<polygon fill="#eecc99" stroke="none" points="179.5,-54.5 179.5,-72.5 192.5,-72.5 192.5,-54.5 179.5,-54.5"/>
<polygon fill="none" stroke="black" points="179.5,-54.5 179.5,-72.5 192.5,-72.5 192.5,-54.5 179.5,-54.5"/>
<text text-anchor="start" x="182.5" y="-60.7" font-family="consolas" font-size="11.00"> </text>
<polygon fill="#eecc99" stroke="none" points="194.5,-54.5 194.5,-72.5 207.5,-72.5 207.5,-54.5 194.5,-54.5"/>
<polygon fill="none" stroke="black" points="194.5,-54.5 194.5,-72.5 207.5,-72.5 207.5,-54.5 194.5,-54.5"/>
<text text-anchor="start" x="197.5" y="-60.7" font-family="consolas" font-size="11.00"> </text>
<text text-anchor="start" x="12.5" y="-40.7" font-family="consolas" font-size="11.00">date_of_births : </text>
<polygon fill="#eecc99" stroke="none" points="119.5,-34.5 119.5,-52.5 132.5,-52.5 132.5,-34.5 119.5,-34.5"/>
<polygon fill="none" stroke="black" points="119.5,-34.5 119.5,-52.5 132.5,-52.5 132.5,-34.5 119.5,-34.5"/>
<text text-anchor="start" x="122.5" y="-40.7" font-family="consolas" font-size="11.00"> </text>
<polygon fill="#eecc99" stroke="none" points="149.5,-34.5 149.5,-52.5 162.5,-52.5 162.5,-34.5 149.5,-34.5"/>
<polygon fill="none" stroke="black" points="149.5,-34.5 149.5,-52.5 162.5,-52.5 162.5,-34.5 149.5,-34.5"/>
<text text-anchor="start" x="152.5" y="-40.7" font-family="consolas" font-size="11.00"> </text>
<polygon fill="#eecc99" stroke="none" points="164.5,-34.5 164.5,-52.5 177.5,-52.5 177.5,-34.5 164.5,-34.5"/>
<polygon fill="none" stroke="black" points="164.5,-34.5 164.5,-52.5 177.5,-52.5 177.5,-34.5 164.5,-34.5"/>
<text text-anchor="start" x="167.5" y="-40.7" font-family="consolas" font-size="11.00"> </text>
<polygon fill="#eecc99" stroke="none" points="179.5,-34.5 179.5,-52.5 192.5,-52.5 192.5,-34.5 179.5,-34.5"/>
<polygon fill="none" stroke="black" points="179.5,-34.5 179.5,-52.5 192.5,-52.5 192.5,-34.5 179.5,-34.5"/>
<text text-anchor="start" x="182.5" y="-40.7" font-family="consolas" font-size="11.00"> </text>
<polygon fill="#eecc99" stroke="none" points="194.5,-34.5 194.5,-52.5 207.5,-52.5 207.5,-34.5 194.5,-34.5"/>
<polygon fill="none" stroke="black" points="194.5,-34.5 194.5,-52.5 207.5,-52.5 207.5,-34.5 194.5,-34.5"/>
<text text-anchor="start" x="197.5" y="-40.7" font-family="consolas" font-size="11.00"> </text>
<text text-anchor="start" x="126.5" y="-11.5" font-family="Arial" font-weight="bold" font-size="10.00">Person</text>
</g>
</g>
</svg>
