<?xml version="1.0" encoding="UTF-8" standalone="no"?>
<!DOCTYPE svg PUBLIC "-//W3C//DTD SVG 1.1//EN"
 "http://www.w3.org/Graphics/SVG/1.1/DTD/svg11.dtd">
<!-- Generated by graphviz version 2.38.0 (20140413.2041)
 -->
<!-- Title: InterfaceInheritance Pages: 1 -->
<svg width="504pt" height="174pt"
 viewBox="0.00 0.00 504.00 174.00" xmlns="http://www.w3.org/2000/svg" xmlns:xlink="http://www.w3.org/1999/xlink">
<g id="graph0" class="graph" transform="scale(1 1) rotate(0) translate(4 170)">
<title>InterfaceInheritance</title>
<text text-anchor="start" x="170.5" y="-150.2" font-family="Arial" font-weight="bold" font-size="16.00">Interface Inheritance</text>
<g id="clust1" class="cluster"><title>cluster_interfaces</title>
<polygon fill="none" stroke="none" points="8,-80 8,-132 488,-132 488,-80 8,-80"/>
</g>
<g id="clust2" class="cluster"><title>cluster_non_player</title>
<polygon fill="none" stroke="none" points="190,-8 190,-60 410,-60 410,-8 190,-8"/>
</g>
<!-- renderable -->
<g id="node1" class="node"><title>renderable</title>
<polygon fill="#ffee77" stroke="black" points="402.5,-124 325.5,-124 325.5,-88 402.5,-88 402.5,-124"/>
<text text-anchor="start" x="333.5" y="-104.2" font-family="consolas" font-weight="bold" font-size="11.00">Renderable</text>
</g>
<!-- player -->
<g id="node6" class="node"><title>player</title>
<polygon fill="#bbddff" stroke="black" points="180,-52 126,-52 126,-16 180,-16 180,-52"/>
<text text-anchor="start" x="134.5" y="-32.2" font-family="consolas" font-weight="bold" font-size="11.00">Player</text>
</g>
<!-- renderable&#45;&gt;player -->
<g id="edge1" class="edge"><title>renderable&#45;&gt;player</title>
<path fill="none" stroke="black" stroke-dasharray="5,2" d="M322.953,-83.1663C319.33,-81.2394 317,-80 317,-80 317,-80 186,-60 186,-60 186,-60 181.359,-56.4844 175.559,-52.0898"/>
<polygon fill="none" stroke="black" points="321.399,-86.304 331.871,-87.9102 324.686,-80.1239 321.399,-86.304"/>
</g>
<!-- monster -->
<g id="node7" class="node"><title>monster</title>
<polygon fill="#bbddff" stroke="black" points="257.5,-52 198.5,-52 198.5,-16 257.5,-16 257.5,-52"/>
<text text-anchor="start" x="206.5" y="-32.2" font-family="consolas" font-weight="bold" font-size="11.00">Monster</text>
</g>
<!-- renderable&#45;&gt;monster -->
<g id="edge5" class="edge"><title>renderable&#45;&gt;monster</title>
<path fill="none" stroke="#000000" stroke-dasharray="5,2" stroke-opacity="0.247059" d="M322.953,-83.1663C319.33,-81.2394 317,-80 317,-80 317,-80 267,-60 267,-60 267,-60 261.516,-56.4844 254.66,-52.0898"/>
<polygon fill="none" stroke="#000000" stroke-opacity="0.247059" points="321.399,-86.304 331.871,-87.9102 324.686,-80.1239 321.399,-86.304"/>
</g>
<!-- speech_bubble -->
<g id="node8" class="node"><title>speech_bubble</title>
<polygon fill="#bbddff" stroke="black" points="330,-52 276,-52 276,-16 330,-16 330,-52"/>
<text text-anchor="start" x="284.5" y="-37.2" font-family="consolas" font-weight="bold" font-size="11.00">Speech</text>
<text text-anchor="start" x="284.5" y="-26.2" font-family="consolas" font-weight="bold" font-size="11.00">Bubble</text>
</g>
<!-- renderable&#45;&gt;speech_bubble -->
<g id="edge8" class="edge"><title>renderable&#45;&gt;speech_bubble</title>
<path fill="none" stroke="#000000" stroke-dasharray="5,2" stroke-opacity="0.247059" d="M342.144,-79.9197C334.105,-70.6945 325.193,-60.467 317.905,-52.1043"/>
<polygon fill="none" stroke="#000000" stroke-opacity="0.247059" points="339.713,-82.4569 348.921,-87.6966 344.99,-77.8581 339.713,-82.4569"/>
</g>
<!-- map -->
<g id="node9" class="node"><title>map</title>
<polygon fill="#bbddff" stroke="black" points="402,-52 348,-52 348,-16 402,-16 402,-52"/>
<text text-anchor="start" x="365.5" y="-32.2" font-family="consolas" font-weight="bold" font-size="11.00">Map</text>
</g>
<!-- renderable&#45;&gt;map -->
<g id="edge10" class="edge"><title>renderable&#45;&gt;map</title>
<path fill="none" stroke="#880000" stroke-dasharray="5,2" d="M368.295,-77.6651C369.649,-69.0537 371.104,-59.7913 372.312,-52.1043"/>
<polygon fill="none" stroke="#880000" points="364.814,-77.2745 366.719,-87.6966 371.729,-78.3612 364.814,-77.2745"/>
</g>
<!-- position -->
<g id="node2" class="node"><title>position</title>
<polygon fill="#ffee77" stroke="black" points="105.5,-124 16.5,-124 16.5,-88 105.5,-88 105.5,-124"/>
<text text-anchor="start" x="24.5" y="-104.2" font-family="consolas" font-weight="bold" font-size="11.00">Positionable</text>
</g>
<!-- position&#45;&gt;player -->
<g id="edge2" class="edge"><title>position&#45;&gt;player</title>
<path fill="none" stroke="black" stroke-dasharray="5,2" d="M91.7736,-81.5853C104.449,-71.941 118.863,-60.9739 130.52,-52.1043"/>
<polygon fill="none" stroke="black" points="89.5805,-78.856 83.7416,-87.6966 93.8192,-84.4268 89.5805,-78.856"/>
</g>
<!-- position&#45;&gt;monster -->
<g id="edge6" class="edge"><title>position&#45;&gt;monster</title>
<path fill="none" stroke="#000000" stroke-dasharray="5,2" stroke-opacity="0.247059" d="M106.293,-83.6352C110.941,-81.4428 114,-80 114,-80 114,-80 189,-60 189,-60 189,-60 194.484,-56.4844 201.34,-52.0898"/>
<polygon fill="none" stroke="#000000" stroke-opacity="0.247059" points="104.782,-80.4784 97.2305,-87.9102 107.768,-86.8094 104.782,-80.4784"/>
</g>
<!-- velocity -->
<g id="node3" class="node"><title>velocity</title>
<polygon fill="#ffee77" stroke="black" points="182.5,-124 123.5,-124 123.5,-88 182.5,-88 182.5,-124"/>
<text text-anchor="start" x="131.5" y="-104.2" font-family="consolas" font-weight="bold" font-size="11.00">Movable</text>
</g>
<!-- velocity&#45;&gt;player -->
<g id="edge3" class="edge"><title>velocity&#45;&gt;player</title>
<path fill="none" stroke="black" stroke-dasharray="5,2" d="M153,-77.6651C153,-69.0537 153,-59.7913 153,-52.1043"/>
<polygon fill="none" stroke="black" points="149.5,-77.6966 153,-87.6966 156.5,-77.6967 149.5,-77.6966"/>
</g>
<!-- velocity&#45;&gt;monster -->
<g id="edge7" class="edge"><title>velocity&#45;&gt;monster</title>
<path fill="none" stroke="#000000" stroke-dasharray="5,2" stroke-opacity="0.247059" d="M178.976,-80.7555C189.09,-71.316 200.442,-60.7205 209.674,-52.1043"/>
<polygon fill="none" stroke="#000000" stroke-opacity="0.247059" points="176.462,-78.3147 171.539,-87.6966 181.238,-83.4321 176.462,-78.3147"/>
</g>
<!-- input -->
<g id="node4" class="node"><title>input</title>
<polygon fill="#ffee77" stroke="black" points="307.5,-124 200.5,-124 200.5,-88 307.5,-88 307.5,-124"/>
<text text-anchor="start" x="208.5" y="-104.2" font-family="consolas" font-weight="bold" font-size="11.00">InputControlled</text>
</g>
<!-- input&#45;&gt;player -->
<g id="edge4" class="edge"><title>input&#45;&gt;player</title>
<path fill="none" stroke="black" stroke-dasharray="5,2" d="M219.555,-82.2054C202.705,-71.0545 186,-60 186,-60 186,-60 181.359,-56.4844 175.559,-52.0898"/>
<polygon fill="none" stroke="black" points="218.021,-85.3875 228.292,-87.9874 221.884,-79.5499 218.021,-85.3875"/>
</g>
<!-- input&#45;&gt;speech_bubble -->
<g id="edge9" class="edge"><title>input&#45;&gt;speech_bubble</title>
<path fill="none" stroke="#000000" stroke-dasharray="5,2" stroke-opacity="0.247059" d="M271.948,-79.3594C278.303,-70.282 285.291,-60.2981 291.027,-52.1043"/>
<polygon fill="none" stroke="#000000" stroke-opacity="0.247059" points="268.98,-77.4972 266.112,-87.6966 274.714,-81.5114 268.98,-77.4972"/>
</g>
<!-- bounds -->
<g id="node5" class="node"><title>bounds</title>
<polygon fill="#ffee77" stroke="black" points="479.5,-124 420.5,-124 420.5,-88 479.5,-88 479.5,-124"/>
<text text-anchor="start" x="428.5" y="-104.2" font-family="consolas" font-weight="bold" font-size="11.00">Bounded</text>
</g>
<!-- bounds&#45;&gt;map -->
<g id="edge11" class="edge"><title>bounds&#45;&gt;map</title>
<path fill="none" stroke="#880000" stroke-dasharray="5,2" d="M424.024,-80.7555C413.91,-71.316 402.558,-60.7205 393.326,-52.1043"/>
<polygon fill="none" stroke="#880000" points="421.762,-83.4321 431.461,-87.6966 426.538,-78.3147 421.762,-83.4321"/>
</g>
</g>
</svg>
