<?xml version="1.0" encoding="UTF-8" standalone="no"?>
<!DOCTYPE svg PUBLIC "-//W3C//DTD SVG 1.1//EN"
 "http://www.w3.org/Graphics/SVG/1.1/DTD/svg11.dtd">
<!-- Generated by graphviz version 2.38.0 (20140413.2041)
 -->
<!-- Title: World Pages: 1 -->
<svg width="750pt" height="383pt"
 viewBox="0.00 0.00 750.00 383.00" xmlns="http://www.w3.org/2000/svg" xmlns:xlink="http://www.w3.org/1999/xlink">
<g id="graph0" class="graph" transform="scale(1 1) rotate(0) translate(4 379)">
<title>World</title>
<g id="clust1" class="cluster"><title>cluster_Entities</title>
<polygon fill="#f5f5f5" stroke="black" points="8,-8 8,-367 734,-367 734,-8 8,-8"/>
<text text-anchor="start" x="348" y="-351.2" font-family="consolas" font-weight="bold" font-size="16.00">World</text>
</g>
<g id="clust6" class="cluster"><title>cluster_Map</title>
<polygon fill="#f5f5f5" stroke="black" stroke-dasharray="1,5" points="602,-16 602,-305 726,-305 726,-16 602,-16"/>
<text text-anchor="start" x="610" y="-292.4" font-family="consolas" font-weight="bold" font-size="12.00">Map</text>
</g>
<g id="clust4" class="cluster"><title>cluster_Monster</title>
<polygon fill="#f5f5f5" stroke="black" stroke-dasharray="1,5" points="338,-16 338,-305 462,-305 462,-16 338,-16"/>
<text text-anchor="start" x="346" y="-292.4" font-family="consolas" font-weight="bold" font-size="12.00">Monster</text>
</g>
<g id="clust3" class="cluster"><title>cluster_Player</title>
<polygon fill="#f5f5f5" stroke="black" stroke-dasharray="1,5" points="206,-16 206,-305 330,-305 330,-16 206,-16"/>
<text text-anchor="start" x="214" y="-292.4" font-family="consolas" font-weight="bold" font-size="12.00">Player</text>
</g>
<g id="clust2" class="cluster"><title>cluster_Storages</title>
<polygon fill="#f5f5f5" stroke="none" points="16,-16 16,-284 198,-284 198,-16 16,-16"/>
</g>
<g id="clust5" class="cluster"><title>cluster_SpeechBubble</title>
<polygon fill="#f5f5f5" stroke="black" stroke-dasharray="1,5" points="470,-16 470,-305 594,-305 594,-16 470,-16"/>
<text text-anchor="start" x="478" y="-292.4" font-family="consolas" font-weight="bold" font-size="12.00">Speech Bubble</text>
</g>
<!-- storage_render -->
<g id="node1" class="node"><title>storage_render</title>
<polygon fill="none" stroke="black" stroke-width="0" points="190,-276 24,-276 24,-240 190,-240 190,-276"/>
<text text-anchor="start" x="59.5" y="-255.6" font-family="consolas" font-weight="bold" font-size="13.00">Render Storage</text>
</g>
<!-- storage_position -->
<g id="node2" class="node"><title>storage_position</title>
<polygon fill="none" stroke="black" stroke-width="0" points="190,-222 24,-222 24,-186 190,-186 190,-222"/>
<text text-anchor="start" x="52.5" y="-201.6" font-family="consolas" font-weight="bold" font-size="13.00">Position Storage</text>
</g>
<!-- storage_render&#45;&gt;storage_position -->
<!-- storage_velocity -->
<g id="node3" class="node"><title>storage_velocity</title>
<polygon fill="none" stroke="black" stroke-width="0" points="190,-168 24,-168 24,-132 190,-132 190,-168"/>
<text text-anchor="start" x="52.5" y="-147.6" font-family="consolas" font-weight="bold" font-size="13.00">Velocity Storage</text>
</g>
<!-- storage_position&#45;&gt;storage_velocity -->
<!-- storage_input -->
<g id="node4" class="node"><title>storage_input</title>
<polygon fill="none" stroke="black" stroke-width="0" points="190,-114 24,-114 24,-78 190,-78 190,-114"/>
<text text-anchor="start" x="63" y="-93.6" font-family="consolas" font-weight="bold" font-size="13.00">Input Storage</text>
</g>
<!-- storage_velocity&#45;&gt;storage_input -->
<!-- storage_bounds -->
<g id="node5" class="node"><title>storage_bounds</title>
<polygon fill="none" stroke="black" stroke-width="0" points="190,-60 24,-60 24,-24 190,-24 190,-60"/>
<text text-anchor="start" x="59.5" y="-39.6" font-family="consolas" font-weight="bold" font-size="13.00">Bounds Storage</text>
</g>
<!-- storage_input&#45;&gt;storage_bounds -->
<!-- player_render -->
<g id="node6" class="node"><title>player_render</title>
<polygon fill="#bbddff" stroke="black" points="322,-276 214,-276 214,-240 322,-240 322,-276"/>
<text text-anchor="middle" x="268" y="-255.2" font-family="consolas" font-size="11.00">Render</text>
</g>
<!-- player_position -->
<g id="node7" class="node"><title>player_position</title>
<polygon fill="#bbddff" stroke="black" points="322,-222 214,-222 214,-186 322,-186 322,-222"/>
<text text-anchor="middle" x="268" y="-201.2" font-family="consolas" font-size="11.00">Position</text>
</g>
<!-- player_render&#45;&gt;player_position -->
<!-- player_velocity -->
<g id="node8" class="node"><title>player_velocity</title>
<polygon fill="#bbddff" stroke="black" points="322,-168 214,-168 214,-132 322,-132 322,-168"/>
<text text-anchor="middle" x="268" y="-147.2" font-family="consolas" font-size="11.00">Velocity</text>
</g>
<!-- player_position&#45;&gt;player_velocity -->
<!-- player_input -->
<g id="node9" class="node"><title>player_input</title>
<polygon fill="#bbddff" stroke="black" points="322,-114 214,-114 214,-78 322,-78 322,-114"/>
<text text-anchor="middle" x="268" y="-93.2" font-family="consolas" font-size="11.00">Input</text>
</g>
<!-- player_velocity&#45;&gt;player_input -->
<!-- player_bounds -->
<g id="node10" class="node"><title>player_bounds</title>
<polygon fill="none" stroke="black" stroke-dasharray="5,2" points="322,-60 214,-60 214,-24 322,-24 322,-60"/>
</g>
<!-- player_input&#45;&gt;player_bounds -->
<!-- monster_render -->
<g id="node11" class="node"><title>monster_render</title>
<polygon fill="#bbddff" stroke="black" points="454,-276 346,-276 346,-240 454,-240 454,-276"/>
<text text-anchor="middle" x="400" y="-255.2" font-family="consolas" font-size="11.00">Render</text>
</g>
<!-- monster_position -->
<g id="node12" class="node"><title>monster_position</title>
<polygon fill="#bbddff" stroke="black" points="454,-222 346,-222 346,-186 454,-186 454,-222"/>
<text text-anchor="middle" x="400" y="-201.2" font-family="consolas" font-size="11.00">Position</text>
</g>
<!-- monster_render&#45;&gt;monster_position -->
<!-- monster_velocity -->
<g id="node13" class="node"><title>monster_velocity</title>
<polygon fill="#bbddff" stroke="black" points="454,-168 346,-168 346,-132 454,-132 454,-168"/>
<text text-anchor="middle" x="400" y="-147.2" font-family="consolas" font-size="11.00">Velocity</text>
</g>
<!-- monster_position&#45;&gt;monster_velocity -->
<!-- monster_input -->
<g id="node14" class="node"><title>monster_input</title>
<polygon fill="none" stroke="black" stroke-dasharray="5,2" points="454,-114 346,-114 346,-78 454,-78 454,-114"/>
</g>
<!-- monster_velocity&#45;&gt;monster_input -->
<!-- monster_bounds -->
<g id="node15" class="node"><title>monster_bounds</title>
<polygon fill="none" stroke="black" stroke-dasharray="5,2" points="454,-60 346,-60 346,-24 454,-24 454,-60"/>
</g>
<!-- monster_input&#45;&gt;monster_bounds -->
<!-- speech_bubble_render -->
<g id="node16" class="node"><title>speech_bubble_render</title>
<polygon fill="#bbddff" stroke="black" points="586,-276 478,-276 478,-240 586,-240 586,-276"/>
<text text-anchor="middle" x="532" y="-255.2" font-family="consolas" font-size="11.00">Render</text>
</g>
<!-- speech_bubble_position -->
<g id="node17" class="node"><title>speech_bubble_position</title>
<polygon fill="none" stroke="black" stroke-dasharray="5,2" points="586,-222 478,-222 478,-186 586,-186 586,-222"/>
</g>
<!-- speech_bubble_render&#45;&gt;speech_bubble_position -->
<!-- speech_bubble_velocity -->
<g id="node18" class="node"><title>speech_bubble_velocity</title>
<polygon fill="none" stroke="black" stroke-dasharray="5,2" points="586,-168 478,-168 478,-132 586,-132 586,-168"/>
</g>
<!-- speech_bubble_position&#45;&gt;speech_bubble_velocity -->
<!-- speech_bubble_input -->
<g id="node19" class="node"><title>speech_bubble_input</title>
<polygon fill="#bbddff" stroke="black" points="586,-114 478,-114 478,-78 586,-78 586,-114"/>
<text text-anchor="middle" x="532" y="-93.2" font-family="consolas" font-size="11.00">Input</text>
</g>
<!-- speech_bubble_velocity&#45;&gt;speech_bubble_input -->
<!-- speech_bubble_bounds -->
<g id="node20" class="node"><title>speech_bubble_bounds</title>
<polygon fill="none" stroke="black" stroke-dasharray="5,2" points="586,-60 478,-60 478,-24 586,-24 586,-60"/>
</g>
<!-- speech_bubble_input&#45;&gt;speech_bubble_bounds -->
<!-- map_render -->
<g id="node21" class="node"><title>map_render</title>
<polygon fill="#bbddff" stroke="black" points="718,-276 610,-276 610,-240 718,-240 718,-276"/>
<text text-anchor="middle" x="664" y="-255.2" font-family="consolas" font-size="11.00">Render</text>
</g>
<!-- map_position -->
<g id="node22" class="node"><title>map_position</title>
<polygon fill="none" stroke="black" stroke-dasharray="5,2" points="718,-222 610,-222 610,-186 718,-186 718,-222"/>
</g>
<!-- map_render&#45;&gt;map_position -->
<!-- map_velocity -->
<g id="node23" class="node"><title>map_velocity</title>
<polygon fill="none" stroke="black" stroke-dasharray="5,2" points="718,-168 610,-168 610,-132 718,-132 718,-168"/>
</g>
<!-- map_position&#45;&gt;map_velocity -->
<!-- map_input -->
<g id="node24" class="node"><title>map_input</title>
<polygon fill="none" stroke="black" stroke-dasharray="5,2" points="718,-114 610,-114 610,-78 718,-78 718,-114"/>
</g>
<!-- map_velocity&#45;&gt;map_input -->
<!-- map_bounds -->
<g id="node25" class="node"><title>map_bounds</title>
<polygon fill="#bbddff" stroke="black" points="718,-60 610,-60 610,-24 718,-24 718,-60"/>
<text text-anchor="middle" x="664" y="-39.2" font-family="consolas" font-size="11.00">Bounds</text>
</g>
<!-- map_input&#45;&gt;map_bounds -->
<!-- top -->
<!-- top&#45;&gt;storage_render -->
<!-- top&#45;&gt;player_render -->
<!-- top&#45;&gt;monster_render -->
<!-- top&#45;&gt;speech_bubble_render -->
<!-- top&#45;&gt;map_render -->
</g>
</svg>
