<?xml version="1.0" encoding="UTF-8" standalone="no"?>
<!DOCTYPE svg PUBLIC "-//W3C//DTD SVG 1.1//EN"
 "http://www.w3.org/Graphics/SVG/1.1/DTD/svg11.dtd">
<!-- Generated by graphviz version 2.38.0 (20140413.2041)
 -->
<!-- Title: GenerationalArena Pages: 1 -->
<svg width="709pt" height="262pt"
 viewBox="0.00 0.00 709.00 262.00" xmlns="http://www.w3.org/2000/svg" xmlns:xlink="http://www.w3.org/1999/xlink">
<g id="graph0" class="graph" transform="scale(1 1) rotate(0) translate(4 258)">
<title>GenerationalArena</title>
<text text-anchor="start" x="277.5" y="-238.2" font-family="Arial" font-weight="bold" font-size="16.00">Generational Arena</text>
<g id="clust1" class="cluster"><title>cluster_arena</title>
<polygon fill="#aaccff" stroke="black" points="8,-8 8,-220 693,-220 693,-8 8,-8"/>
</g>
<!-- e_4 -->
<g id="node1" class="node"><title>e_4</title>
<polygon fill="#eecc99" stroke="black" points="685,-212 563,-212 563,-154 685,-154 685,-212"/>
<text text-anchor="start" x="571" y="-192.2" font-family="consolas" font-size="11.00">Free {</text>
<text text-anchor="start" x="571" y="-180.2" font-family="consolas" font-size="11.00"> &#160;next: None</text>
<text text-anchor="start" x="571" y="-168.2" font-family="consolas" font-size="11.00">}</text>
</g>
<!-- e_3 -->
<g id="node2" class="node"><title>e_3</title>
<polygon fill="#eecc99" stroke="black" points="562,-212 440,-212 440,-154 562,-154 562,-212"/>
<text text-anchor="start" x="448" y="-192.2" font-family="consolas" font-size="11.00">Free {</text>
<text text-anchor="start" x="448" y="-180.2" font-family="consolas" font-size="11.00"> &#160;next: Some(4)</text>
<text text-anchor="start" x="448" y="-168.2" font-family="consolas" font-size="11.00">}</text>
</g>
<!-- e_2 -->
<g id="node3" class="node"><title>e_2</title>
<polygon fill="#eecc99" stroke="black" points="439,-212 317,-212 317,-154 439,-154 439,-212"/>
<text text-anchor="start" x="325" y="-192.2" font-family="consolas" font-size="11.00">Free {</text>
<text text-anchor="start" x="325" y="-180.2" font-family="consolas" font-size="11.00"> &#160;next: Some(3)</text>
<text text-anchor="start" x="325" y="-168.2" font-family="consolas" font-size="11.00">}</text>
</g>
<!-- e_1 -->
<g id="node4" class="node"><title>e_1</title>
<polygon fill="#eecc99" stroke="black" points="316,-212 194,-212 194,-154 316,-154 316,-212"/>
<text text-anchor="start" x="202" y="-192.2" font-family="consolas" font-size="11.00">Free {</text>
<text text-anchor="start" x="202" y="-180.2" font-family="consolas" font-size="11.00"> &#160;next: Some(2)</text>
<text text-anchor="start" x="202" y="-168.2" font-family="consolas" font-size="11.00">}</text>
</g>
<!-- e_0 -->
<g id="node5" class="node"><title>e_0</title>
<polygon fill="#eecc99" stroke="black" points="193,-212 71,-212 71,-154 193,-154 193,-212"/>
<text text-anchor="start" x="79" y="-198.2" font-family="consolas" font-size="11.00">Occupied {</text>
<text text-anchor="start" x="79" y="-186.2" font-family="consolas" font-size="11.00"> &#160;generation: 0,</text>
<text text-anchor="start" x="79" y="-174.2" font-family="consolas" font-size="11.00"> &#160;data: T,</text>
<text text-anchor="start" x="79" y="-162.2" font-family="consolas" font-size="11.00">}</text>
</g>
<!-- items -->
<g id="node6" class="node"><title>items</title>
<polygon fill="#aaccff" stroke="black" stroke-width="0" points="70,-201 16,-201 16,-165 70,-165 70,-201"/>
<text text-anchor="start" x="24" y="-180.2" font-family="consolas" font-size="11.00">items:</text>
</g>
<!-- free_list_head -->
<g id="node7" class="node"><title>free_list_head</title>
<polygon fill="#aaccff" stroke="black" stroke-width="0" points="232,-146 16,-146 16,-108 232,-108 232,-146"/>
<text text-anchor="start" x="34" y="-131.2" font-family="consolas" font-size="11.00" fill="#666666">// Vec index to insert element</text>
<text text-anchor="start" x="34" y="-117.2" font-family="consolas" font-size="11.00">free_list_head: Some(1) &#160;&#160;&#160;&#160;&#160;&#160;</text>
</g>
<!-- items&#45;&gt;free_list_head -->
<!-- generation -->
<g id="node8" class="node"><title>generation</title>
<polygon fill="#aaccff" stroke="black" stroke-width="0" points="232,-100 16,-100 16,-62 232,-62 232,-100"/>
<text text-anchor="start" x="31" y="-85.2" font-family="consolas" font-size="11.00" fill="#666666">// Generation to insert element</text>
<text text-anchor="start" x="34" y="-71.2" font-family="consolas" font-size="11.00">generation: 0 &#160;&#160;&#160;&#160;&#160;&#160;&#160;&#160;&#160;&#160;&#160;&#160;&#160;&#160;&#160;&#160;</text>
</g>
<!-- free_list_head&#45;&gt;generation -->
<!-- len -->
<g id="node9" class="node"><title>len</title>
<polygon fill="#aaccff" stroke="black" stroke-width="0" points="232,-54 16,-54 16,-16 232,-16 232,-54"/>
<text text-anchor="start" x="34" y="-39.2" font-family="consolas" font-size="11.00" fill="#666666">// Length of vec &#160;&#160;&#160;&#160;&#160;&#160;&#160;&#160;&#160;&#160;&#160;&#160;&#160;</text>
<text text-anchor="start" x="34" y="-25.2" font-family="consolas" font-size="11.00">len: 5 &#160;&#160;&#160;&#160;&#160;&#160;&#160;&#160;&#160;&#160;&#160;&#160;&#160;&#160;&#160;&#160;&#160;&#160;&#160;&#160;&#160;&#160;&#160;</text>
</g>
<!-- generation&#45;&gt;len -->
</g>
</svg>
