<?xml version="1.0" encoding="UTF-8" standalone="no"?>
<!DOCTYPE svg PUBLIC "-//W3C//DTD SVG 1.1//EN"
 "http://www.w3.org/Graphics/SVG/1.1/DTD/svg11.dtd">
<!-- Generated by graphviz version 2.38.0 (20140413.2041)
 -->
<!-- Title: World Pages: 1 -->
<svg width="750pt" height="271pt"
 viewBox="0.00 0.00 750.00 271.00" xmlns="http://www.w3.org/2000/svg" xmlns:xlink="http://www.w3.org/1999/xlink">
<g id="graph0" class="graph" transform="scale(1 1) rotate(0) translate(4 267)">
<title>World</title>
<g id="clust1" class="cluster"><title>cluster_Entities</title>
<polygon fill="#f5f5f5" stroke="black" points="8,-8 8,-255 734,-255 734,-8 8,-8"/>
<text text-anchor="start" x="348" y="-239.2" font-family="consolas" font-weight="bold" font-size="16.00">World</text>
</g>
<g id="clust7" class="cluster"><title>cluster_Map</title>
<polygon fill="#f5f5f5" stroke="black" stroke-dasharray="1,5" points="602,-16 602,-174 726,-174 726,-16 602,-16"/>
<text text-anchor="start" x="610" y="-161.4" font-family="consolas" font-weight="bold" font-size="12.00">Map</text>
</g>
<g id="clust6" class="cluster"><title>cluster_SpeechBubble</title>
<polygon fill="#f5f5f5" stroke="black" stroke-dasharray="1,5" points="470,-16 470,-174 594,-174 594,-16 470,-16"/>
<text text-anchor="start" x="478" y="-161.4" font-family="consolas" font-weight="bold" font-size="12.00">Speech Bubble</text>
</g>
<g id="clust5" class="cluster"><title>cluster_Monster</title>
<polygon fill="#f5f5f5" stroke="black" stroke-dasharray="1,5" points="338,-16 338,-174 462,-174 462,-16 338,-16"/>
<text text-anchor="start" x="346" y="-161.4" font-family="consolas" font-weight="bold" font-size="12.00">Monster</text>
</g>
<g id="clust4" class="cluster"><title>cluster_Player</title>
<polygon fill="#f5f5f5" stroke="black" stroke-dasharray="1,5" points="206,-16 206,-174 330,-174 330,-16 206,-16"/>
<text text-anchor="start" x="214" y="-161.4" font-family="consolas" font-weight="bold" font-size="12.00">Player</text>
</g>
<g id="clust3" class="cluster"><title>cluster_Storages</title>
<polygon fill="#f5f5f5" stroke="none" points="16,-16 16,-153 198,-153 198,-16 16,-16"/>
</g>
<!-- storage_position -->
<g id="node1" class="node"><title>storage_position</title>
<polygon fill="none" stroke="black" stroke-width="0" points="190,-145 24,-145 24,-109 190,-109 190,-145"/>
<text text-anchor="start" x="52.5" y="-124.6" font-family="consolas" font-weight="bold" font-size="13.00">Position Storage</text>
</g>
<!-- storage_input -->
<g id="node2" class="node"><title>storage_input</title>
<polygon fill="none" stroke="black" stroke-width="0" points="190,-60 24,-60 24,-24 190,-24 190,-60"/>
<text text-anchor="start" x="59.5" y="-39.6" font-family="consolas" font-weight="bold" font-size="13.00">!Input Storage</text>
</g>
<!-- storage_position&#45;&gt;storage_input -->
<g id="edge1" class="edge"><title>storage_position&#45;&gt;storage_input</title>
<path fill="none" stroke="#0000af" d="M107,-98.731C107,-89.6003 107,-79.4239 107,-70.2915"/>
<polygon fill="#0000af" stroke="#0000af" points="107,-108.802 102.5,-98.8023 107,-103.802 107,-98.8023 107,-98.8023 107,-98.8023 107,-103.802 111.5,-98.8024 107,-108.802 107,-108.802"/>
<polygon fill="#0000af" stroke="#0000af" points="107,-60.1756 111.5,-70.1756 107,-65.1756 107,-70.1756 107,-70.1756 107,-70.1756 107,-65.1756 102.5,-70.1757 107,-60.1756 107,-60.1756"/>
<text text-anchor="start" x="107" y="-82.4" font-family="consolas" font-weight="bold" font-size="12.00"> &#160;join()</text>
</g>
<!-- player_position -->
<g id="node3" class="node"><title>player_position</title>
<polygon fill="#bbddff" stroke="black" points="322,-145 214,-145 214,-109 322,-109 322,-145"/>
<text text-anchor="middle" x="268" y="-124.2" font-family="consolas" font-size="11.00">P0</text>
</g>
<!-- player_input -->
<g id="node4" class="node"><title>player_input</title>
<polygon fill="#bbddff" stroke="black" points="322,-60 214,-60 214,-24 322,-24 322,-60"/>
<text text-anchor="middle" x="268" y="-39.2" font-family="consolas" font-size="11.00">I0</text>
</g>
<!-- player_position&#45;&gt;player_input -->
<g id="edge2" class="edge"><title>player_position&#45;&gt;player_input</title>
<path fill="none" stroke="#af0000" stroke-dasharray="1,5" d="M268,-98.731C268,-89.6003 268,-79.4239 268,-70.2915"/>
<polygon fill="#af0000" stroke="#af0000" points="268,-108.802 263.5,-98.8023 268,-103.802 268,-98.8023 268,-98.8023 268,-98.8023 268,-103.802 272.5,-98.8024 268,-108.802 268,-108.802"/>
<polygon fill="#af0000" stroke="#af0000" points="268,-60.1756 272.5,-70.1756 268,-65.1756 268,-70.1756 268,-70.1756 268,-70.1756 268,-65.1756 263.5,-70.1757 268,-60.1756 268,-60.1756"/>
</g>
<!-- monster_position -->
<g id="node5" class="node"><title>monster_position</title>
<polygon fill="#bbddff" stroke="black" points="454,-145 346,-145 346,-109 454,-109 454,-145"/>
<text text-anchor="middle" x="400" y="-124.2" font-family="consolas" font-size="11.00">P1</text>
</g>
<!-- monster_input -->
<g id="node6" class="node"><title>monster_input</title>
<polygon fill="none" stroke="black" stroke-dasharray="5,2" points="454,-60 346,-60 346,-24 454,-24 454,-60"/>
</g>
<!-- monster_position&#45;&gt;monster_input -->
<g id="edge3" class="edge"><title>monster_position&#45;&gt;monster_input</title>
<path fill="none" stroke="#0000af" d="M400,-98.731C400,-89.6003 400,-79.4239 400,-70.2915"/>
<polygon fill="#0000af" stroke="#0000af" points="400,-108.802 395.5,-98.8023 400,-103.802 400,-98.8023 400,-98.8023 400,-98.8023 400,-103.802 404.5,-98.8024 400,-108.802 400,-108.802"/>
<polygon fill="#0000af" stroke="#0000af" points="400,-60.1756 404.5,-70.1756 400,-65.1756 400,-70.1756 400,-70.1756 400,-70.1756 400,-65.1756 395.5,-70.1757 400,-60.1756 400,-60.1756"/>
</g>
<!-- speech_bubble_position -->
<g id="node7" class="node"><title>speech_bubble_position</title>
<polygon fill="none" stroke="black" stroke-dasharray="5,2" points="586,-145 478,-145 478,-109 586,-109 586,-145"/>
</g>
<!-- speech_bubble_input -->
<g id="node8" class="node"><title>speech_bubble_input</title>
<polygon fill="#bbddff" stroke="black" points="586,-60 478,-60 478,-24 586,-24 586,-60"/>
<text text-anchor="middle" x="532" y="-39.2" font-family="consolas" font-size="11.00">I2</text>
</g>
<!-- speech_bubble_position&#45;&gt;speech_bubble_input -->
<g id="edge4" class="edge"><title>speech_bubble_position&#45;&gt;speech_bubble_input</title>
<path fill="none" stroke="#af0000" stroke-dasharray="1,5" d="M532,-98.731C532,-89.6003 532,-79.4239 532,-70.2915"/>
<polygon fill="#af0000" stroke="#af0000" points="532,-108.802 527.5,-98.8023 532,-103.802 532,-98.8023 532,-98.8023 532,-98.8023 532,-103.802 536.5,-98.8024 532,-108.802 532,-108.802"/>
<polygon fill="#af0000" stroke="#af0000" points="532,-60.1756 536.5,-70.1756 532,-65.1756 532,-70.1756 532,-70.1756 532,-70.1756 532,-65.1756 527.5,-70.1757 532,-60.1756 532,-60.1756"/>
</g>
<!-- map_position -->
<g id="node9" class="node"><title>map_position</title>
<polygon fill="none" stroke="black" stroke-dasharray="5,2" points="718,-145 610,-145 610,-109 718,-109 718,-145"/>
</g>
<!-- map_input -->
<g id="node10" class="node"><title>map_input</title>
<polygon fill="none" stroke="black" stroke-dasharray="5,2" points="718,-60 610,-60 610,-24 718,-24 718,-60"/>
</g>
<!-- map_position&#45;&gt;map_input -->
<g id="edge5" class="edge"><title>map_position&#45;&gt;map_input</title>
<path fill="none" stroke="#af0000" stroke-dasharray="1,5" d="M664,-98.731C664,-89.6003 664,-79.4239 664,-70.2915"/>
<polygon fill="#af0000" stroke="#af0000" points="664,-108.802 659.5,-98.8023 664,-103.802 664,-98.8023 664,-98.8023 664,-98.8023 664,-103.802 668.5,-98.8024 664,-108.802 664,-108.802"/>
<polygon fill="#af0000" stroke="#af0000" points="664,-60.1756 668.5,-70.1756 664,-65.1756 664,-70.1756 664,-70.1756 664,-70.1756 664,-65.1756 659.5,-70.1757 664,-60.1756 664,-60.1756"/>
</g>
<!-- top -->
<!-- top&#45;&gt;storage_position -->
<!-- top&#45;&gt;player_position -->
<!-- top&#45;&gt;monster_position -->
<!-- top&#45;&gt;speech_bubble_position -->
<!-- top&#45;&gt;map_position -->
</g>
</svg>
