<?xml version="1.0" encoding="UTF-8" standalone="no"?>
<!DOCTYPE svg PUBLIC "-//W3C//DTD SVG 1.1//EN"
 "http://www.w3.org/Graphics/SVG/1.1/DTD/svg11.dtd">
<!-- Generated by graphviz version 2.38.0 (20140413.2041)
 -->
<!-- Title: DenseVecStorage Pages: 1 -->
<svg width="368pt" height="268pt"
 viewBox="0.00 0.00 368.00 268.00" xmlns="http://www.w3.org/2000/svg" xmlns:xlink="http://www.w3.org/1999/xlink">
<g id="graph0" class="graph" transform="scale(1 1) rotate(0) translate(4 264)">
<title>DenseVecStorage</title>
<text text-anchor="start" x="112" y="-244.2" font-family="Arial" font-weight="bold" font-size="16.00">DenseVecStorage</text>
<!-- positions -->
<g id="node1" class="node"><title>positions</title>
<polygon fill="#aaccff" stroke="black" points="360,-220 0,-220 0,-152 360,-152 360,-220"/>
<text text-anchor="start" x="16" y="-204.2" font-family="consolas" font-weight="bold" font-size="11.00">Positions &#160;</text>
<text text-anchor="start" x="16" y="-184.2" font-family="consolas" font-size="11.00">lookup: </text>
<polygon fill="#eecc99" stroke="none" points="87,-178 87,-196 102,-196 102,-178 87,-178"/>
<polygon fill="none" stroke="black" points="87,-178 87,-196 102,-196 102,-178 87,-178"/>
<text text-anchor="start" x="91" y="-184.2" font-family="consolas" font-size="11.00">0</text>
<polygon fill="#eecc99" stroke="none" points="104,-178 104,-196 120,-196 120,-178 104,-178"/>
<polygon fill="none" stroke="black" points="104,-178 104,-196 120,-196 120,-178 104,-178"/>
<text text-anchor="start" x="108.5" y="-184.2" font-family="consolas" font-size="11.00">1</text>
<polygon fill="#eecc99" stroke="none" points="122,-178 122,-196 137,-196 137,-178 122,-178"/>
<polygon fill="none" stroke="black" stroke-dasharray="5,2" points="122,-178 122,-196 137,-196 137,-178 122,-178"/>
<text text-anchor="start" x="126" y="-184.2" font-family="consolas" font-size="11.00"> </text>
<polygon fill="#eecc99" stroke="none" stroke-dasharray="5,2" points="139,-178 139,-196 155,-196 155,-178 139,-178"/>
<polygon fill="none" stroke="black" stroke-dasharray="5,2" points="139,-178 139,-196 155,-196 155,-178 139,-178"/>
<text text-anchor="start" x="143.5" y="-184.2" font-family="consolas" font-size="11.00"> </text>
<polygon fill="#eecc99" stroke="none" stroke-dasharray="5,2" points="157,-178 157,-196 171,-196 171,-178 157,-178"/>
<polygon fill="none" stroke="black" stroke-dasharray="5,2" points="157,-178 157,-196 171,-196 171,-178 157,-178"/>
<text text-anchor="start" x="160.5" y="-184.2" font-family="consolas" font-size="11.00"> </text>
<polygon fill="#eecc99" stroke="none" stroke-dasharray="5,2" points="173,-178 173,-196 188,-196 188,-178 173,-178"/>
<polygon fill="none" stroke="black" stroke-dasharray="5,2" points="173,-178 173,-196 188,-196 188,-178 173,-178"/>
<text text-anchor="start" x="177" y="-184.2" font-family="consolas" font-size="11.00"> </text>
<polygon fill="#eecc99" stroke="none" stroke-dasharray="5,2" points="190,-178 190,-196 204,-196 204,-178 190,-178"/>
<polygon fill="none" stroke="black" stroke-dasharray="5,2" points="190,-178 190,-196 204,-196 204,-178 190,-178"/>
<text text-anchor="start" x="193.5" y="-184.2" font-family="consolas" font-size="11.00"> </text>
<polygon fill="#eecc99" stroke="none" stroke-dasharray="5,2" points="206,-178 206,-196 221,-196 221,-178 206,-178"/>
<polygon fill="none" stroke="black" stroke-dasharray="5,2" points="206,-178 206,-196 221,-196 221,-178 206,-178"/>
<text text-anchor="start" x="210" y="-184.2" font-family="consolas" font-size="11.00"> </text>
<polygon fill="#eecc99" stroke="none" stroke-dasharray="5,2" points="223,-178 223,-196 237,-196 237,-178 223,-178"/>
<polygon fill="none" stroke="black" stroke-dasharray="5,2" points="223,-178 223,-196 237,-196 237,-178 223,-178"/>
<text text-anchor="start" x="226.5" y="-184.2" font-family="consolas" font-size="11.00"> </text>
<polygon fill="#eecc99" stroke="none" stroke-dasharray="5,2" points="239,-178 239,-196 254,-196 254,-178 239,-178"/>
<polygon fill="none" stroke="black" stroke-dasharray="5,2" points="239,-178 239,-196 254,-196 254,-178 239,-178"/>
<text text-anchor="start" x="243" y="-184.2" font-family="consolas" font-size="11.00"> </text>
<polygon fill="#dddddd" stroke="none" stroke-dasharray="5,2" points="256,-178 256,-196 270,-196 270,-178 256,-178"/>
<polygon fill="none" stroke="black" stroke-dasharray="1,5" points="256,-178 256,-196 270,-196 270,-178 256,-178"/>
<text text-anchor="start" x="259.5" y="-184.2" font-family="consolas" font-size="11.00"> </text>
<polygon fill="#dddddd" stroke="none" stroke-dasharray="1,5" points="272,-178 272,-196 287,-196 287,-178 272,-178"/>
<polygon fill="none" stroke="black" stroke-dasharray="1,5" points="272,-178 272,-196 287,-196 287,-178 272,-178"/>
<text text-anchor="start" x="276" y="-184.2" font-family="consolas" font-size="11.00"> </text>
<text text-anchor="start" x="16" y="-164.2" font-family="consolas" font-size="11.00">data: </text>
<polygon fill="#eecc99" stroke="none" stroke-dasharray="1,5" points="87,-158 87,-176 120,-176 120,-158 87,-158"/>
<polygon fill="none" stroke="black" points="87,-158 87,-176 120,-176 120,-158 87,-158"/>
<text text-anchor="start" x="91" y="-164.2" font-family="consolas" font-size="11.00"> P0 </text>
<polygon fill="#eecc99" stroke="none" points="122,-158 122,-176 155,-176 155,-158 122,-158"/>
<polygon fill="none" stroke="black" points="122,-158 122,-176 155,-176 155,-158 122,-158"/>
<text text-anchor="start" x="126" y="-164.2" font-family="consolas" font-size="11.00"> P1 </text>
</g>
<!-- velocities -->
<g id="node2" class="node"><title>velocities</title>
<polygon fill="#aaccff" stroke="black" points="360,-144 0,-144 0,-76 360,-76 360,-144"/>
<text text-anchor="start" x="13" y="-128.2" font-family="consolas" font-weight="bold" font-size="11.00">Velocities &#160;</text>
<text text-anchor="start" x="13" y="-108.2" font-family="consolas" font-size="11.00">lookup: </text>
<polygon fill="#eecc99" stroke="none" points="90,-102 90,-120 105,-120 105,-102 90,-102"/>
<polygon fill="none" stroke="black" points="90,-102 90,-120 105,-120 105,-102 90,-102"/>
<text text-anchor="start" x="94" y="-108.2" font-family="consolas" font-size="11.00">0</text>
<polygon fill="#eecc99" stroke="none" points="107,-102 107,-120 123,-120 123,-102 107,-102"/>
<polygon fill="none" stroke="black" points="107,-102 107,-120 123,-120 123,-102 107,-102"/>
<text text-anchor="start" x="111.5" y="-108.2" font-family="consolas" font-size="11.00">1</text>
<polygon fill="#eecc99" stroke="none" points="125,-102 125,-120 140,-120 140,-102 125,-102"/>
<polygon fill="none" stroke="black" stroke-dasharray="5,2" points="125,-102 125,-120 140,-120 140,-102 125,-102"/>
<text text-anchor="start" x="129" y="-108.2" font-family="consolas" font-size="11.00"> </text>
<polygon fill="#eecc99" stroke="none" stroke-dasharray="5,2" points="142,-102 142,-120 158,-120 158,-102 142,-102"/>
<polygon fill="none" stroke="black" stroke-dasharray="5,2" points="142,-102 142,-120 158,-120 158,-102 142,-102"/>
<text text-anchor="start" x="146.5" y="-108.2" font-family="consolas" font-size="11.00"> </text>
<polygon fill="#eecc99" stroke="none" stroke-dasharray="5,2" points="160,-102 160,-120 174,-120 174,-102 160,-102"/>
<polygon fill="none" stroke="black" stroke-dasharray="5,2" points="160,-102 160,-120 174,-120 174,-102 160,-102"/>
<text text-anchor="start" x="163.5" y="-108.2" font-family="consolas" font-size="11.00"> </text>
<polygon fill="#eecc99" stroke="none" stroke-dasharray="5,2" points="176,-102 176,-120 191,-120 191,-102 176,-102"/>
<polygon fill="none" stroke="black" stroke-dasharray="5,2" points="176,-102 176,-120 191,-120 191,-102 176,-102"/>
<text text-anchor="start" x="180" y="-108.2" font-family="consolas" font-size="11.00"> </text>
<polygon fill="#eecc99" stroke="none" stroke-dasharray="5,2" points="193,-102 193,-120 207,-120 207,-102 193,-102"/>
<polygon fill="none" stroke="black" stroke-dasharray="5,2" points="193,-102 193,-120 207,-120 207,-102 193,-102"/>
<text text-anchor="start" x="196.5" y="-108.2" font-family="consolas" font-size="11.00"> </text>
<polygon fill="#eecc99" stroke="none" stroke-dasharray="5,2" points="209,-102 209,-120 224,-120 224,-102 209,-102"/>
<polygon fill="none" stroke="black" stroke-dasharray="5,2" points="209,-102 209,-120 224,-120 224,-102 209,-102"/>
<text text-anchor="start" x="213" y="-108.2" font-family="consolas" font-size="11.00"> </text>
<polygon fill="#eecc99" stroke="none" stroke-dasharray="5,2" points="226,-102 226,-120 240,-120 240,-102 226,-102"/>
<polygon fill="none" stroke="black" stroke-dasharray="5,2" points="226,-102 226,-120 240,-120 240,-102 226,-102"/>
<text text-anchor="start" x="229.5" y="-108.2" font-family="consolas" font-size="11.00"> </text>
<polygon fill="#eecc99" stroke="none" stroke-dasharray="5,2" points="242,-102 242,-120 257,-120 257,-102 242,-102"/>
<polygon fill="none" stroke="black" stroke-dasharray="5,2" points="242,-102 242,-120 257,-120 257,-102 242,-102"/>
<text text-anchor="start" x="246" y="-108.2" font-family="consolas" font-size="11.00"> </text>
<polygon fill="#dddddd" stroke="none" stroke-dasharray="5,2" points="259,-102 259,-120 273,-120 273,-102 259,-102"/>
<polygon fill="none" stroke="black" stroke-dasharray="1,5" points="259,-102 259,-120 273,-120 273,-102 259,-102"/>
<text text-anchor="start" x="262.5" y="-108.2" font-family="consolas" font-size="11.00"> </text>
<polygon fill="#dddddd" stroke="none" stroke-dasharray="1,5" points="275,-102 275,-120 290,-120 290,-102 275,-102"/>
<polygon fill="none" stroke="black" stroke-dasharray="1,5" points="275,-102 275,-120 290,-120 290,-102 275,-102"/>
<text text-anchor="start" x="279" y="-108.2" font-family="consolas" font-size="11.00"> </text>
<text text-anchor="start" x="13" y="-88.2" font-family="consolas" font-size="11.00">data: </text>
<polygon fill="#eecc99" stroke="none" stroke-dasharray="1,5" points="90,-82 90,-100 123,-100 123,-82 90,-82"/>
<polygon fill="none" stroke="black" points="90,-82 90,-100 123,-100 123,-82 90,-82"/>
<text text-anchor="start" x="94" y="-88.2" font-family="consolas" font-size="11.00"> V0 </text>
<polygon fill="#eecc99" stroke="none" points="125,-82 125,-100 158,-100 158,-82 125,-82"/>
<polygon fill="none" stroke="black" points="125,-82 125,-100 158,-100 158,-82 125,-82"/>
<text text-anchor="start" x="129" y="-88.2" font-family="consolas" font-size="11.00"> V1 </text>
</g>
<!-- positions&#45;&gt;velocities -->
<!-- inputs -->
<g id="node3" class="node"><title>inputs</title>
<polygon fill="#aaccff" stroke="black" points="360,-68 0,-68 0,-0 360,-0 360,-68"/>
<text text-anchor="start" x="16" y="-52.2" font-family="consolas" font-weight="bold" font-size="11.00">Inputs &#160;&#160;&#160;&#160;</text>
<text text-anchor="start" x="16" y="-32.2" font-family="consolas" font-size="11.00">lookup: </text>
<polygon fill="#eecc99" stroke="none" points="87,-26 87,-44 102,-44 102,-26 87,-26"/>
<polygon fill="none" stroke="black" points="87,-26 87,-44 102,-44 102,-26 87,-26"/>
<text text-anchor="start" x="91" y="-32.2" font-family="consolas" font-size="11.00">0</text>
<polygon fill="#eecc99" stroke="none" points="104,-26 104,-44 120,-44 120,-26 104,-26"/>
<polygon fill="none" stroke="black" stroke-dasharray="5,2" points="104,-26 104,-44 120,-44 120,-26 104,-26"/>
<text text-anchor="start" x="108.5" y="-32.2" font-family="consolas" font-size="11.00"> </text>
<polygon fill="#eecc99" stroke="none" stroke-dasharray="5,2" points="122,-26 122,-44 137,-44 137,-26 122,-26"/>
<polygon fill="none" stroke="black" points="122,-26 122,-44 137,-44 137,-26 122,-26"/>
<text text-anchor="start" x="126" y="-32.2" font-family="consolas" font-size="11.00">1</text>
<polygon fill="#eecc99" stroke="none" points="139,-26 139,-44 155,-44 155,-26 139,-26"/>
<polygon fill="none" stroke="black" stroke-dasharray="5,2" points="139,-26 139,-44 155,-44 155,-26 139,-26"/>
<text text-anchor="start" x="143.5" y="-32.2" font-family="consolas" font-size="11.00"> </text>
<polygon fill="#eecc99" stroke="none" stroke-dasharray="5,2" points="157,-26 157,-44 171,-44 171,-26 157,-26"/>
<polygon fill="none" stroke="black" stroke-dasharray="5,2" points="157,-26 157,-44 171,-44 171,-26 157,-26"/>
<text text-anchor="start" x="160.5" y="-32.2" font-family="consolas" font-size="11.00"> </text>
<polygon fill="#eecc99" stroke="none" stroke-dasharray="5,2" points="173,-26 173,-44 188,-44 188,-26 173,-26"/>
<polygon fill="none" stroke="black" stroke-dasharray="5,2" points="173,-26 173,-44 188,-44 188,-26 173,-26"/>
<text text-anchor="start" x="177" y="-32.2" font-family="consolas" font-size="11.00"> </text>
<polygon fill="#eecc99" stroke="none" stroke-dasharray="5,2" points="190,-26 190,-44 204,-44 204,-26 190,-26"/>
<polygon fill="none" stroke="black" stroke-dasharray="5,2" points="190,-26 190,-44 204,-44 204,-26 190,-26"/>
<text text-anchor="start" x="193.5" y="-32.2" font-family="consolas" font-size="11.00"> </text>
<polygon fill="#eecc99" stroke="none" stroke-dasharray="5,2" points="206,-26 206,-44 221,-44 221,-26 206,-26"/>
<polygon fill="none" stroke="black" stroke-dasharray="5,2" points="206,-26 206,-44 221,-44 221,-26 206,-26"/>
<text text-anchor="start" x="210" y="-32.2" font-family="consolas" font-size="11.00"> </text>
<polygon fill="#eecc99" stroke="none" stroke-dasharray="5,2" points="223,-26 223,-44 237,-44 237,-26 223,-26"/>
<polygon fill="none" stroke="black" stroke-dasharray="5,2" points="223,-26 223,-44 237,-44 237,-26 223,-26"/>
<text text-anchor="start" x="226.5" y="-32.2" font-family="consolas" font-size="11.00"> </text>
<polygon fill="#eecc99" stroke="none" stroke-dasharray="5,2" points="239,-26 239,-44 254,-44 254,-26 239,-26"/>
<polygon fill="none" stroke="black" stroke-dasharray="5,2" points="239,-26 239,-44 254,-44 254,-26 239,-26"/>
<text text-anchor="start" x="243" y="-32.2" font-family="consolas" font-size="11.00"> </text>
<polygon fill="#dddddd" stroke="none" stroke-dasharray="5,2" points="256,-26 256,-44 270,-44 270,-26 256,-26"/>
<polygon fill="none" stroke="black" stroke-dasharray="1,5" points="256,-26 256,-44 270,-44 270,-26 256,-26"/>
<text text-anchor="start" x="259.5" y="-32.2" font-family="consolas" font-size="11.00"> </text>
<polygon fill="#dddddd" stroke="none" stroke-dasharray="1,5" points="272,-26 272,-44 287,-44 287,-26 272,-26"/>
<polygon fill="none" stroke="black" stroke-dasharray="1,5" points="272,-26 272,-44 287,-44 287,-26 272,-26"/>
<text text-anchor="start" x="276" y="-32.2" font-family="consolas" font-size="11.00"> </text>
<text text-anchor="start" x="16" y="-12.2" font-family="consolas" font-size="11.00">data: </text>
<polygon fill="#eecc99" stroke="none" stroke-dasharray="1,5" points="87,-6 87,-24 120,-24 120,-6 87,-6"/>
<polygon fill="none" stroke="black" points="87,-6 87,-24 120,-24 120,-6 87,-6"/>
<text text-anchor="start" x="91" y="-12.2" font-family="consolas" font-size="11.00"> I0 </text>
<polygon fill="#eecc99" stroke="none" points="122,-6 122,-24 155,-24 155,-6 122,-6"/>
<polygon fill="none" stroke="black" points="122,-6 122,-24 155,-24 155,-6 122,-6"/>
<text text-anchor="start" x="126" y="-12.2" font-family="consolas" font-size="11.00"> I2 </text>
</g>
<!-- velocities&#45;&gt;inputs -->
</g>
</svg>
