<?xml version="1.0" encoding="UTF-8" standalone="no"?>
<!DOCTYPE svg PUBLIC "-//W3C//DTD SVG 1.1//EN"
 "http://www.w3.org/Graphics/SVG/1.1/DTD/svg11.dtd">
<!-- Generated by graphviz version 2.38.0 (20140413.2041)
 -->
<!-- Title: VecStorage Pages: 1 -->
<svg width="368pt" height="96pt"
 viewBox="0.00 0.00 368.00 96.00" xmlns="http://www.w3.org/2000/svg" xmlns:xlink="http://www.w3.org/1999/xlink">
<g id="graph0" class="graph" transform="scale(1 1) rotate(0) translate(4 92)">
<title>VecStorage</title>
<text text-anchor="start" x="136" y="-72.2" font-family="Arial" font-weight="bold" font-size="16.00">VecStorage</text>
<!-- renderables -->
<g id="node1" class="node"><title>renderables</title>
<polygon fill="#aaccff" stroke="black" points="360,-48 0,-48 0,-0 360,-0 360,-48"/>
<text text-anchor="start" x="15" y="-32.2" font-family="consolas" font-weight="bold" font-size="11.00">Renderables</text>
<text text-anchor="start" x="15" y="-12.2" font-family="consolas" font-size="11.00">data: </text>
<polygon fill="#eecc99" stroke="none" points="86,-6 86,-24 117,-24 117,-6 86,-6"/>
<polygon fill="none" stroke="black" points="86,-6 86,-24 117,-24 117,-6 86,-6"/>
<text text-anchor="start" x="89" y="-12.2" font-family="consolas" font-size="11.00"> R0 </text>
<polygon fill="#eecc99" stroke="none" points="119,-6 119,-24 150,-24 150,-6 119,-6"/>
<polygon fill="none" stroke="black" points="119,-6 119,-24 150,-24 150,-6 119,-6"/>
<text text-anchor="start" x="122" y="-12.2" font-family="consolas" font-size="11.00"> R1 </text>
<polygon fill="#eecc99" stroke="none" points="152,-6 152,-24 183,-24 183,-6 152,-6"/>
<polygon fill="none" stroke="black" points="152,-6 152,-24 183,-24 183,-6 152,-6"/>
<text text-anchor="start" x="155" y="-12.2" font-family="consolas" font-size="11.00"> R2 </text>
<polygon fill="#eecc99" stroke="none" points="185,-6 185,-24 216,-24 216,-6 185,-6"/>
<polygon fill="none" stroke="black" points="185,-6 185,-24 216,-24 216,-6 185,-6"/>
<text text-anchor="start" x="188" y="-12.2" font-family="consolas" font-size="11.00"> R3 </text>
<polygon fill="#dddddd" stroke="none" points="218,-6 218,-24 249,-24 249,-6 218,-6"/>
<polygon fill="none" stroke="black" stroke-dasharray="1,5" points="218,-6 218,-24 249,-24 249,-6 218,-6"/>
<text text-anchor="start" x="221" y="-12.2" font-family="consolas" font-size="11.00"> &#160;&#160;&#160;</text>
<polygon fill="#dddddd" stroke="none" stroke-dasharray="1,5" points="251,-6 251,-24 282,-24 282,-6 251,-6"/>
<polygon fill="none" stroke="black" stroke-dasharray="1,5" points="251,-6 251,-24 282,-24 282,-6 251,-6"/>
<text text-anchor="start" x="254" y="-12.2" font-family="consolas" font-size="11.00"> &#160;&#160;&#160;</text>
<polygon fill="#dddddd" stroke="none" stroke-dasharray="1,5" points="284,-6 284,-24 315,-24 315,-6 284,-6"/>
<polygon fill="none" stroke="black" stroke-dasharray="1,5" points="284,-6 284,-24 315,-24 315,-6 284,-6"/>
<text text-anchor="start" x="287" y="-12.2" font-family="consolas" font-size="11.00"> &#160;&#160;&#160;</text>
<polygon fill="#dddddd" stroke="none" stroke-dasharray="1,5" points="317,-6 317,-24 348,-24 348,-6 317,-6"/>
<polygon fill="none" stroke="black" stroke-dasharray="1,5" points="317,-6 317,-24 348,-24 348,-6 317,-6"/>
<text text-anchor="start" x="320" y="-12.2" font-family="consolas" font-size="11.00"> &#160;&#160;&#160;</text>
</g>
</g>
</svg>
