<?xml version="1.0" encoding="UTF-8" standalone="no"?>
<!DOCTYPE svg PUBLIC "-//W3C//DTD SVG 1.1//EN"
 "http://www.w3.org/Graphics/SVG/1.1/DTD/svg11.dtd">
<!-- Generated by graphviz version 2.38.0 (20140413.2041)
 -->
<!-- Title: VecAllStorage Pages: 1 -->
<svg width="369pt" height="320pt"
 viewBox="0.00 0.00 369.00 320.00" xmlns="http://www.w3.org/2000/svg" xmlns:xlink="http://www.w3.org/1999/xlink">
<g id="graph0" class="graph" transform="scale(1 1) rotate(0) translate(4 316)">
<title>VecAllStorage</title>
<text text-anchor="start" x="136.5" y="-296.2" font-family="Arial" font-weight="bold" font-size="16.00">VecStorage</text>
<!-- renderables -->
<g id="node1" class="node"><title>renderables</title>
<polygon fill="#aaccff" stroke="black" points="360.5,-272 0.5,-272 0.5,-224 360.5,-224 360.5,-272"/>
<text text-anchor="start" x="15.5" y="-256.2" font-family="consolas" font-weight="bold" font-size="11.00">Renderables</text>
<text text-anchor="start" x="15.5" y="-236.2" font-family="consolas" font-size="11.00">data: </text>
<polygon fill="#eecc99" stroke="none" points="86.5,-230 86.5,-248 117.5,-248 117.5,-230 86.5,-230"/>
<polygon fill="none" stroke="black" points="86.5,-230 86.5,-248 117.5,-248 117.5,-230 86.5,-230"/>
<text text-anchor="start" x="89.5" y="-236.2" font-family="consolas" font-size="11.00"> R0 </text>
<polygon fill="#eecc99" stroke="none" points="119.5,-230 119.5,-248 150.5,-248 150.5,-230 119.5,-230"/>
<polygon fill="none" stroke="black" points="119.5,-230 119.5,-248 150.5,-248 150.5,-230 119.5,-230"/>
<text text-anchor="start" x="122.5" y="-236.2" font-family="consolas" font-size="11.00"> R1 </text>
<polygon fill="#eecc99" stroke="none" points="152.5,-230 152.5,-248 183.5,-248 183.5,-230 152.5,-230"/>
<polygon fill="none" stroke="black" points="152.5,-230 152.5,-248 183.5,-248 183.5,-230 152.5,-230"/>
<text text-anchor="start" x="155.5" y="-236.2" font-family="consolas" font-size="11.00"> R2 </text>
<polygon fill="#eecc99" stroke="none" points="185.5,-230 185.5,-248 216.5,-248 216.5,-230 185.5,-230"/>
<polygon fill="none" stroke="black" points="185.5,-230 185.5,-248 216.5,-248 216.5,-230 185.5,-230"/>
<text text-anchor="start" x="188.5" y="-236.2" font-family="consolas" font-size="11.00"> R3 </text>
<polygon fill="#dddddd" stroke="none" points="218.5,-230 218.5,-248 249.5,-248 249.5,-230 218.5,-230"/>
<polygon fill="none" stroke="black" stroke-dasharray="1,5" points="218.5,-230 218.5,-248 249.5,-248 249.5,-230 218.5,-230"/>
<text text-anchor="start" x="221.5" y="-236.2" font-family="consolas" font-size="11.00"> &#160;&#160;&#160;</text>
<polygon fill="#dddddd" stroke="none" stroke-dasharray="1,5" points="251.5,-230 251.5,-248 282.5,-248 282.5,-230 251.5,-230"/>
<polygon fill="none" stroke="black" stroke-dasharray="1,5" points="251.5,-230 251.5,-248 282.5,-248 282.5,-230 251.5,-230"/>
<text text-anchor="start" x="254.5" y="-236.2" font-family="consolas" font-size="11.00"> &#160;&#160;&#160;</text>
<polygon fill="#dddddd" stroke="none" stroke-dasharray="1,5" points="284.5,-230 284.5,-248 315.5,-248 315.5,-230 284.5,-230"/>
<polygon fill="none" stroke="black" stroke-dasharray="1,5" points="284.5,-230 284.5,-248 315.5,-248 315.5,-230 284.5,-230"/>
<text text-anchor="start" x="287.5" y="-236.2" font-family="consolas" font-size="11.00"> &#160;&#160;&#160;</text>
<polygon fill="#dddddd" stroke="none" stroke-dasharray="1,5" points="317.5,-230 317.5,-248 348.5,-248 348.5,-230 317.5,-230"/>
<polygon fill="none" stroke="black" stroke-dasharray="1,5" points="317.5,-230 317.5,-248 348.5,-248 348.5,-230 317.5,-230"/>
<text text-anchor="start" x="320.5" y="-236.2" font-family="consolas" font-size="11.00"> &#160;&#160;&#160;</text>
</g>
<!-- positions -->
<g id="node2" class="node"><title>positions</title>
<polygon fill="#aaccff" stroke="black" points="360.5,-216 0.5,-216 0.5,-168 360.5,-168 360.5,-216"/>
<text text-anchor="start" x="15.5" y="-200.2" font-family="consolas" font-weight="bold" font-size="11.00">Positions &#160;</text>
<text text-anchor="start" x="15.5" y="-180.2" font-family="consolas" font-size="11.00">data: </text>
<polygon fill="#eecc99" stroke="none" points="86.5,-174 86.5,-192 117.5,-192 117.5,-174 86.5,-174"/>
<polygon fill="none" stroke="black" points="86.5,-174 86.5,-192 117.5,-192 117.5,-174 86.5,-174"/>
<text text-anchor="start" x="89.5" y="-180.2" font-family="consolas" font-size="11.00"> P0 </text>
<polygon fill="#eecc99" stroke="none" points="119.5,-174 119.5,-192 150.5,-192 150.5,-174 119.5,-174"/>
<polygon fill="none" stroke="black" points="119.5,-174 119.5,-192 150.5,-192 150.5,-174 119.5,-174"/>
<text text-anchor="start" x="122.5" y="-180.2" font-family="consolas" font-size="11.00"> P1 </text>
<polygon fill="#eecc99" stroke="none" points="152.5,-174 152.5,-192 183.5,-192 183.5,-174 152.5,-174"/>
<polygon fill="none" stroke="black" stroke-dasharray="5,2" points="152.5,-174 152.5,-192 183.5,-192 183.5,-174 152.5,-174"/>
<text text-anchor="start" x="155.5" y="-180.2" font-family="consolas" font-size="11.00"> &#160;&#160;&#160;</text>
<polygon fill="#eecc99" stroke="none" stroke-dasharray="5,2" points="185.5,-174 185.5,-192 216.5,-192 216.5,-174 185.5,-174"/>
<polygon fill="none" stroke="black" stroke-dasharray="5,2" points="185.5,-174 185.5,-192 216.5,-192 216.5,-174 185.5,-174"/>
<text text-anchor="start" x="188.5" y="-180.2" font-family="consolas" font-size="11.00"> &#160;&#160;&#160;</text>
<polygon fill="#dddddd" stroke="none" stroke-dasharray="5,2" points="218.5,-174 218.5,-192 249.5,-192 249.5,-174 218.5,-174"/>
<polygon fill="none" stroke="black" stroke-dasharray="1,5" points="218.5,-174 218.5,-192 249.5,-192 249.5,-174 218.5,-174"/>
<text text-anchor="start" x="221.5" y="-180.2" font-family="consolas" font-size="11.00"> &#160;&#160;&#160;</text>
<polygon fill="#dddddd" stroke="none" stroke-dasharray="1,5" points="251.5,-174 251.5,-192 282.5,-192 282.5,-174 251.5,-174"/>
<polygon fill="none" stroke="black" stroke-dasharray="1,5" points="251.5,-174 251.5,-192 282.5,-192 282.5,-174 251.5,-174"/>
<text text-anchor="start" x="254.5" y="-180.2" font-family="consolas" font-size="11.00"> &#160;&#160;&#160;</text>
<polygon fill="#dddddd" stroke="none" stroke-dasharray="1,5" points="284.5,-174 284.5,-192 315.5,-192 315.5,-174 284.5,-174"/>
<polygon fill="none" stroke="black" stroke-dasharray="1,5" points="284.5,-174 284.5,-192 315.5,-192 315.5,-174 284.5,-174"/>
<text text-anchor="start" x="287.5" y="-180.2" font-family="consolas" font-size="11.00"> &#160;&#160;&#160;</text>
<polygon fill="#dddddd" stroke="none" stroke-dasharray="1,5" points="317.5,-174 317.5,-192 348.5,-192 348.5,-174 317.5,-174"/>
<polygon fill="none" stroke="black" stroke-dasharray="1,5" points="317.5,-174 317.5,-192 348.5,-192 348.5,-174 317.5,-174"/>
<text text-anchor="start" x="320.5" y="-180.2" font-family="consolas" font-size="11.00"> &#160;&#160;&#160;</text>
</g>
<!-- renderables&#45;&gt;positions -->
<!-- velocities -->
<g id="node3" class="node"><title>velocities</title>
<polygon fill="#aaccff" stroke="black" points="361,-160 0,-160 0,-112 361,-112 361,-160"/>
<text text-anchor="start" x="12.5" y="-144.2" font-family="consolas" font-weight="bold" font-size="11.00">Velocities &#160;</text>
<text text-anchor="start" x="12.5" y="-124.2" font-family="consolas" font-size="11.00">data: </text>
<polygon fill="#eecc99" stroke="none" points="89.5,-118 89.5,-136 120.5,-136 120.5,-118 89.5,-118"/>
<polygon fill="none" stroke="black" points="89.5,-118 89.5,-136 120.5,-136 120.5,-118 89.5,-118"/>
<text text-anchor="start" x="92.5" y="-124.2" font-family="consolas" font-size="11.00"> V0 </text>
<polygon fill="#eecc99" stroke="none" points="122.5,-118 122.5,-136 153.5,-136 153.5,-118 122.5,-118"/>
<polygon fill="none" stroke="black" points="122.5,-118 122.5,-136 153.5,-136 153.5,-118 122.5,-118"/>
<text text-anchor="start" x="125.5" y="-124.2" font-family="consolas" font-size="11.00"> V1 </text>
<polygon fill="#eecc99" stroke="none" points="155.5,-118 155.5,-136 186.5,-136 186.5,-118 155.5,-118"/>
<polygon fill="none" stroke="black" stroke-dasharray="5,2" points="155.5,-118 155.5,-136 186.5,-136 186.5,-118 155.5,-118"/>
<text text-anchor="start" x="158.5" y="-124.2" font-family="consolas" font-size="11.00"> &#160;&#160;&#160;</text>
<polygon fill="#eecc99" stroke="none" stroke-dasharray="5,2" points="188.5,-118 188.5,-136 219.5,-136 219.5,-118 188.5,-118"/>
<polygon fill="none" stroke="black" stroke-dasharray="5,2" points="188.5,-118 188.5,-136 219.5,-136 219.5,-118 188.5,-118"/>
<text text-anchor="start" x="191.5" y="-124.2" font-family="consolas" font-size="11.00"> &#160;&#160;&#160;</text>
<polygon fill="#dddddd" stroke="none" stroke-dasharray="5,2" points="221.5,-118 221.5,-136 252.5,-136 252.5,-118 221.5,-118"/>
<polygon fill="none" stroke="black" stroke-dasharray="1,5" points="221.5,-118 221.5,-136 252.5,-136 252.5,-118 221.5,-118"/>
<text text-anchor="start" x="224.5" y="-124.2" font-family="consolas" font-size="11.00"> &#160;&#160;&#160;</text>
<polygon fill="#dddddd" stroke="none" stroke-dasharray="1,5" points="254.5,-118 254.5,-136 285.5,-136 285.5,-118 254.5,-118"/>
<polygon fill="none" stroke="black" stroke-dasharray="1,5" points="254.5,-118 254.5,-136 285.5,-136 285.5,-118 254.5,-118"/>
<text text-anchor="start" x="257.5" y="-124.2" font-family="consolas" font-size="11.00"> &#160;&#160;&#160;</text>
<polygon fill="#dddddd" stroke="none" stroke-dasharray="1,5" points="287.5,-118 287.5,-136 318.5,-136 318.5,-118 287.5,-118"/>
<polygon fill="none" stroke="black" stroke-dasharray="1,5" points="287.5,-118 287.5,-136 318.5,-136 318.5,-118 287.5,-118"/>
<text text-anchor="start" x="290.5" y="-124.2" font-family="consolas" font-size="11.00"> &#160;&#160;&#160;</text>
<polygon fill="#dddddd" stroke="none" stroke-dasharray="1,5" points="320.5,-118 320.5,-136 351.5,-136 351.5,-118 320.5,-118"/>
<polygon fill="none" stroke="black" stroke-dasharray="1,5" points="320.5,-118 320.5,-136 351.5,-136 351.5,-118 320.5,-118"/>
<text text-anchor="start" x="323.5" y="-124.2" font-family="consolas" font-size="11.00"> &#160;&#160;&#160;</text>
</g>
<!-- positions&#45;&gt;velocities -->
<!-- inputs -->
<g id="node4" class="node"><title>inputs</title>
<polygon fill="#aaccff" stroke="black" points="360.5,-104 0.5,-104 0.5,-56 360.5,-56 360.5,-104"/>
<text text-anchor="start" x="15.5" y="-88.2" font-family="consolas" font-weight="bold" font-size="11.00">Inputs &#160;&#160;&#160;&#160;</text>
<text text-anchor="start" x="15.5" y="-68.2" font-family="consolas" font-size="11.00">data: </text>
<polygon fill="#eecc99" stroke="none" points="86.5,-62 86.5,-80 117.5,-80 117.5,-62 86.5,-62"/>
<polygon fill="none" stroke="black" points="86.5,-62 86.5,-80 117.5,-80 117.5,-62 86.5,-62"/>
<text text-anchor="start" x="89.5" y="-68.2" font-family="consolas" font-size="11.00"> I0 </text>
<polygon fill="#eecc99" stroke="none" points="119.5,-62 119.5,-80 150.5,-80 150.5,-62 119.5,-62"/>
<polygon fill="none" stroke="black" stroke-dasharray="5,2" points="119.5,-62 119.5,-80 150.5,-80 150.5,-62 119.5,-62"/>
<text text-anchor="start" x="122.5" y="-68.2" font-family="consolas" font-size="11.00"> &#160;&#160;&#160;</text>
<polygon fill="#eecc99" stroke="none" stroke-dasharray="5,2" points="152.5,-62 152.5,-80 183.5,-80 183.5,-62 152.5,-62"/>
<polygon fill="none" stroke="black" points="152.5,-62 152.5,-80 183.5,-80 183.5,-62 152.5,-62"/>
<text text-anchor="start" x="155.5" y="-68.2" font-family="consolas" font-size="11.00"> I2 </text>
<polygon fill="#eecc99" stroke="none" points="185.5,-62 185.5,-80 216.5,-80 216.5,-62 185.5,-62"/>
<polygon fill="none" stroke="black" stroke-dasharray="5,2" points="185.5,-62 185.5,-80 216.5,-80 216.5,-62 185.5,-62"/>
<text text-anchor="start" x="188.5" y="-68.2" font-family="consolas" font-size="11.00"> &#160;&#160;&#160;</text>
<polygon fill="#dddddd" stroke="none" stroke-dasharray="5,2" points="218.5,-62 218.5,-80 249.5,-80 249.5,-62 218.5,-62"/>
<polygon fill="none" stroke="black" stroke-dasharray="1,5" points="218.5,-62 218.5,-80 249.5,-80 249.5,-62 218.5,-62"/>
<text text-anchor="start" x="221.5" y="-68.2" font-family="consolas" font-size="11.00"> &#160;&#160;&#160;</text>
<polygon fill="#dddddd" stroke="none" stroke-dasharray="1,5" points="251.5,-62 251.5,-80 282.5,-80 282.5,-62 251.5,-62"/>
<polygon fill="none" stroke="black" stroke-dasharray="1,5" points="251.5,-62 251.5,-80 282.5,-80 282.5,-62 251.5,-62"/>
<text text-anchor="start" x="254.5" y="-68.2" font-family="consolas" font-size="11.00"> &#160;&#160;&#160;</text>
<polygon fill="#dddddd" stroke="none" stroke-dasharray="1,5" points="284.5,-62 284.5,-80 315.5,-80 315.5,-62 284.5,-62"/>
<polygon fill="none" stroke="black" stroke-dasharray="1,5" points="284.5,-62 284.5,-80 315.5,-80 315.5,-62 284.5,-62"/>
<text text-anchor="start" x="287.5" y="-68.2" font-family="consolas" font-size="11.00"> &#160;&#160;&#160;</text>
<polygon fill="#dddddd" stroke="none" stroke-dasharray="1,5" points="317.5,-62 317.5,-80 348.5,-80 348.5,-62 317.5,-62"/>
<polygon fill="none" stroke="black" stroke-dasharray="1,5" points="317.5,-62 317.5,-80 348.5,-80 348.5,-62 317.5,-62"/>
<text text-anchor="start" x="320.5" y="-68.2" font-family="consolas" font-size="11.00"> &#160;&#160;&#160;</text>
</g>
<!-- velocities&#45;&gt;inputs -->
<!-- bounds -->
<g id="node5" class="node"><title>bounds</title>
<polygon fill="#aaccff" stroke="black" points="360.5,-48 0.5,-48 0.5,-0 360.5,-0 360.5,-48"/>
<text text-anchor="start" x="15.5" y="-32.2" font-family="consolas" font-weight="bold" font-size="11.00">Bounds &#160;&#160;&#160;&#160;</text>
<text text-anchor="start" x="15.5" y="-12.2" font-family="consolas" font-size="11.00">data: </text>
<polygon fill="#eecc99" stroke="none" points="86.5,-6 86.5,-24 117.5,-24 117.5,-6 86.5,-6"/>
<polygon fill="none" stroke="black" stroke-dasharray="5,2" points="86.5,-6 86.5,-24 117.5,-24 117.5,-6 86.5,-6"/>
<text text-anchor="start" x="89.5" y="-12.2" font-family="consolas" font-size="11.00"> &#160;&#160;&#160;</text>
<polygon fill="#eecc99" stroke="none" stroke-dasharray="5,2" points="119.5,-6 119.5,-24 150.5,-24 150.5,-6 119.5,-6"/>
<polygon fill="none" stroke="black" stroke-dasharray="5,2" points="119.5,-6 119.5,-24 150.5,-24 150.5,-6 119.5,-6"/>
<text text-anchor="start" x="122.5" y="-12.2" font-family="consolas" font-size="11.00"> &#160;&#160;&#160;</text>
<polygon fill="#eecc99" stroke="none" stroke-dasharray="5,2" points="152.5,-6 152.5,-24 183.5,-24 183.5,-6 152.5,-6"/>
<polygon fill="none" stroke="black" stroke-dasharray="5,2" points="152.5,-6 152.5,-24 183.5,-24 183.5,-6 152.5,-6"/>
<text text-anchor="start" x="155.5" y="-12.2" font-family="consolas" font-size="11.00"> &#160;&#160;&#160;</text>
<polygon fill="#eecc99" stroke="none" stroke-dasharray="5,2" points="185.5,-6 185.5,-24 216.5,-24 216.5,-6 185.5,-6"/>
<polygon fill="none" stroke="black" points="185.5,-6 185.5,-24 216.5,-24 216.5,-6 185.5,-6"/>
<text text-anchor="start" x="188.5" y="-12.2" font-family="consolas" font-size="11.00"> B4 </text>
<polygon fill="#dddddd" stroke="none" points="218.5,-6 218.5,-24 249.5,-24 249.5,-6 218.5,-6"/>
<polygon fill="none" stroke="black" stroke-dasharray="1,5" points="218.5,-6 218.5,-24 249.5,-24 249.5,-6 218.5,-6"/>
<text text-anchor="start" x="221.5" y="-12.2" font-family="consolas" font-size="11.00"> &#160;&#160;&#160;</text>
<polygon fill="#dddddd" stroke="none" stroke-dasharray="1,5" points="251.5,-6 251.5,-24 282.5,-24 282.5,-6 251.5,-6"/>
<polygon fill="none" stroke="black" stroke-dasharray="1,5" points="251.5,-6 251.5,-24 282.5,-24 282.5,-6 251.5,-6"/>
<text text-anchor="start" x="254.5" y="-12.2" font-family="consolas" font-size="11.00"> &#160;&#160;&#160;</text>
<polygon fill="#dddddd" stroke="none" stroke-dasharray="1,5" points="284.5,-6 284.5,-24 315.5,-24 315.5,-6 284.5,-6"/>
<polygon fill="none" stroke="black" stroke-dasharray="1,5" points="284.5,-6 284.5,-24 315.5,-24 315.5,-6 284.5,-6"/>
<text text-anchor="start" x="287.5" y="-12.2" font-family="consolas" font-size="11.00"> &#160;&#160;&#160;</text>
<polygon fill="#dddddd" stroke="none" stroke-dasharray="1,5" points="317.5,-6 317.5,-24 348.5,-24 348.5,-6 317.5,-6"/>
<polygon fill="none" stroke="black" stroke-dasharray="1,5" points="317.5,-6 317.5,-24 348.5,-24 348.5,-6 317.5,-6"/>
<text text-anchor="start" x="320.5" y="-12.2" font-family="consolas" font-size="11.00"> &#160;&#160;&#160;</text>
</g>
<!-- inputs&#45;&gt;bounds -->
</g>
</svg>
