<?xml version="1.0" encoding="UTF-8" standalone="no"?>
<!DOCTYPE svg PUBLIC "-//W3C//DTD SVG 1.1//EN"
 "http://www.w3.org/Graphics/SVG/1.1/DTD/svg11.dtd">
<!-- Generated by graphviz version 2.38.0 (20140413.2041)
 -->
<!-- Title: HashMapStorage Pages: 1 -->
<svg width="368pt" height="96pt"
 viewBox="0.00 0.00 368.00 96.00" xmlns="http://www.w3.org/2000/svg" xmlns:xlink="http://www.w3.org/1999/xlink">
<g id="graph0" class="graph" transform="scale(1 1) rotate(0) translate(4 92)">
<title>HashMapStorage</title>
<text text-anchor="start" x="115" y="-72.2" font-family="Arial" font-weight="bold" font-size="16.00">HashMapStorage</text>
<!-- bounds -->
<g id="node1" class="node"><title>bounds</title>
<polygon fill="#aaccff" stroke="black" points="360,-48 0,-48 0,-0 360,-0 360,-48"/>
<text text-anchor="start" x="14" y="-32.2" font-family="consolas" font-weight="bold" font-size="11.00">Bounds &#160;</text>
<text text-anchor="start" x="14" y="-12.2" font-family="consolas" font-size="11.00">key/data: </text>
<polygon fill="#dddddd" stroke="none" points="79,-6 79,-24 112,-24 112,-6 79,-6"/>
<polygon fill="none" stroke="black" stroke-dasharray="1,5" points="79,-6 79,-24 112,-24 112,-6 79,-6"/>
<text text-anchor="start" x="83" y="-12.2" font-family="consolas" font-size="11.00"> &#160;&#160;&#160;</text>
<polygon fill="#eecc99" stroke="none" stroke-dasharray="1,5" points="114,-6 114,-24 159,-24 159,-6 114,-6"/>
<polygon fill="none" stroke="black" points="114,-6 114,-24 159,-24 159,-6 114,-6"/>
<text text-anchor="start" x="118" y="-12.2" font-family="consolas" font-size="11.00"> 4:B4 </text>
<polygon fill="#dddddd" stroke="none" points="161,-6 161,-24 194,-24 194,-6 161,-6"/>
<polygon fill="none" stroke="black" stroke-dasharray="1,5" points="161,-6 161,-24 194,-24 194,-6 161,-6"/>
<text text-anchor="start" x="165" y="-12.2" font-family="consolas" font-size="11.00"> &#160;&#160;&#160;</text>
</g>
</g>
</svg>
