<svg id="Layer_1" data-name="Layer 1" xmlns="http://www.w3.org/2000/svg" viewBox="0 0 850 460"><defs><style>.cls-1{fill:#4198f7;}.cls-2{fill:#a52b00;}.cls-3{fill:#f74c00;}.cls-4{fill:#fff;}.cls-5{fill:none;stroke:#000;stroke-linecap:round;stroke-linejoin:round;stroke-width:5px;}</style></defs><title>Ferris fencing</title><path class="cls-1" d="M249.35,178.33c-25.57-29.62-60.94-22.05-90.55,3.52s-42.26,59.45-16.69,89.07"/><rect class="cls-1" x="184.68" y="199.12" width="41.81" height="73.82" rx="19.19" ry="19.19" transform="matrix(-0.76, 0.65, -0.65, -0.76, 515.44, 280.35)"/><polygon class="cls-1" points="165.44 201.79 11.39 11.13 177.56 191.34 165.44 201.79"/><g id="Layer-1"><path class="cls-2" d="M568.52,250.62c-58.45,0-111.27,7-151,18.48v-2.59c-39.78,12.8-65.12,30.58-65.12,50.24a24.56,24.56,0,0,0,1.89,9.15l-4.07,7.3s-3.27,4.26,2.52,13.26c5.1,7.93,30.68,39,44.18,55.24,5.79,8.34,9.73,13.47,10.07,13,.54-.79-3.6-16.44-15.11-34.3a328.41,328.41,0,0,1-15.77-31.68c10.76,6.81,25.09,13,41.41,18.29v-.08c39.78,11.45,92.6,18.48,151,18.48,66.89,0,126.9-9.21,167.19-23.71V274.33c-40.29-14.5-100.3-23.71-167.19-23.71"/><path class="cls-2" d="M795.82,331.63,789,317.43c0-.54.07-1.07.07-1.62,0-16.09-16.73-30.91-44.88-42.79V358.6c13.13-5.54,23.79-11.72,31.41-18.38-2.25,9-9.92,27.27-16,40.1-10,18.35-13.69,34.32-13.22,35.11.29.5,3.72-4.79,8.78-13.36,11.77-16.77,34.06-48.78,38.52-56.93,5-9.24,2.2-13.51,2.2-13.51"/><path class="cls-3" d="M835.6,331.55l-45-33.18c-.42-1.47-.84-2.95-1.28-4.41l14.79-21.43a8,8,0,0,0,.84-7.5,7.54,7.54,0,0,0-5.67-4.68l-25-4.24c-1-2-2-3.93-3-5.86l10.51-24.06a8,8,0,0,0-.58-7.52,7.3,7.3,0,0,0-6.44-3.44l-25.38.92q-2-2.57-4-5.07l5.83-25.79a8,8,0,0,0-2-7.26,7.21,7.21,0,0,0-6.95-2.06l-24.72,6.08c-1.61-1.42-3.23-2.81-4.88-4.18l.89-26.48a7.8,7.8,0,0,0-3.3-6.71,7.16,7.16,0,0,0-7.21-.61L680,155q-2.79-1.6-5.62-3.15l-4.07-26.08a7.71,7.71,0,0,0-4.5-5.91,7.14,7.14,0,0,0-7.18.87L638,136.2c-2-.68-4.06-1.32-6.12-1.94L623,109.53a7.49,7.49,0,0,0-5.52-4.9,7.26,7.26,0,0,0-6.87,2.32l-17.31,19.36c-2.09-.24-4.19-.46-6.29-.64l-13.36-22.52a7.28,7.28,0,0,0-12.64,0l-13.36,22.52c-2.11.18-4.21.4-6.3.64L524.08,107a7.28,7.28,0,0,0-6.88-2.32,7.51,7.51,0,0,0-5.51,4.9l-8.87,24.73q-3.07.93-6.12,1.94l-20.55-15.43a7.13,7.13,0,0,0-7.19-.87,7.68,7.68,0,0,0-4.49,5.91l-4.08,26.08q-2.83,1.55-5.62,3.15l-23.06-11a7.13,7.13,0,0,0-7.21.61,7.83,7.83,0,0,0-3.3,6.71l.89,26.48c-1.65,1.37-3.27,2.76-4.88,4.18L392.49,176a7.26,7.26,0,0,0-7,2.06,8,8,0,0,0-2,7.26l5.82,25.79c-1.35,1.67-2.69,3.36-4,5.07L360,215.23a7.37,7.37,0,0,0-6.44,3.44,8,8,0,0,0-.58,7.52l10.51,24.06c-1,1.93-2,3.88-3,5.86l-25,4.24a7.5,7.5,0,0,0-5.67,4.68,8.09,8.09,0,0,0,.83,7.5L345.42,294l-.33,1.14-41.83,44.43s-6.41,5,2.92,16.83c8.23,10.42,50.48,51.7,72.8,73.33,9.43,11,15.89,17.78,16.56,17.2C396.6,446,391,426,372.45,402.53c-14.31-21-32.88-53.38-28.53-57.11,0,0,4.95-6.29,14.89-10.81h0s209.77,96.76,404.36,1.63c22.22-4,35.68,7.92,35.68,7.92,4.64,2.7-7.38,36-17.26,58-13.44,25-15.41,44.51-14.27,45.19.72.43,5.61-7,12.59-18.85,17.21-24,49.74-69.7,55.69-80.8,6.76-12.6,0-16.12,0-16.12"/><path d="M640.78,392.84c.8-.69,1.22-1.09,1.22-1.09l-68.67-6.38c56-73.94,100.91-14.29,105.69-7.7v15.17Z"/><path class="cls-3" d="M355.63,296.24s-59.7,11.5-80.45-3.5c0,0,24.92-69.24-62.08-80.79l15.38,47.81s-19.29,12-43.7-16.19c0,0-22.3,61.64,64.26,63.51,0,0,23.1,36.73,110.65,17.12Z"/><path d="M607.16,281.12s21-23,41.93,0c0,0,16.47,30.6,0,45.91,0,0-27,21.42-41.93,0,0,0-18-16.84,0-45.91"/><path class="cls-4" d="M631.43,289.63c0,8.94-5.26,16.19-11.76,16.19s-11.77-7.25-11.77-16.19,5.27-16.18,11.77-16.18,11.76,7.24,11.76,16.18"/><path d="M513.6,274.85s36-15.92,45.77,19.62c0,0,10.29,41.42-29.53,43.76,0,0-50.76-9.78-16.24-63.38"/><path class="cls-4" d="M531.66,290.22c0,9.22-5.43,16.69-12.13,16.69s-12.14-7.47-12.14-16.69,5.44-16.69,12.14-16.69,12.13,7.47,12.13,16.69"/><path class="cls-3" d="M746,320.06S738.52,350,691.82,381.4l-13.1,3.07s-42.36-77.26-102.38,9.8c0,0,18.71-10.89,68.85,2.37,0,0-23.07,35.31-69.53,34.22,0,0,44.53,53.43,112.29-23.74,0,0,71.63-27.7,77.44-87.06Z"/></g><line class="cls-5" x1="610.4" y1="264.31" x2="654.41" y2="247.02"/><line class="cls-5" x1="552.37" y1="265.31" x2="508.37" y2="248.02"/></svg>