<svg id="Layer_1" data-name="Layer 1" xmlns="http://www.w3.org/2000/svg" viewBox="0 0 1600 460"><defs><style>.cls-1{fill:#a52b00;}.cls-2{fill:#f74c00;}.cls-3{fill:#fff;}.cls-4{fill:none;stroke:#000;stroke-linecap:round;stroke-linejoin:round;stroke-width:5px;}.cls-5{fill:#4198f7;}</style></defs><title>Ferris fencing</title><path d="M626.72,178.33c25.57-29.62,60.93-22.05,90.55,3.52S759.53,241.3,734,270.92"/><rect x="649.58" y="199.12" width="41.81" height="73.82" rx="19.19" ry="19.19" transform="translate(317.24 -380.79) rotate(40.81)"/><polygon points="698.51 191.34 864.67 11.13 710.62 201.79 698.51 191.34"/><g id="Layer-1"><path class="cls-1" d="M307.55,250.62c-66.89,0-126.91,9.21-167.2,23.71v87.35c40.29,14.5,100.31,23.71,167.2,23.71,58.44,0,111.26-7,151-18.48V367c16.32-5.31,30.66-11.48,41.41-18.29a328.27,328.27,0,0,1-15.76,31.68c-11.52,17.86-15.66,33.51-15.12,34.3.34.49,4.28-4.64,10.08-13,13.49-16.26,39.07-47.31,44.18-55.24,5.78-9,2.51-13.26,2.51-13.26l-4.07-7.3a24.37,24.37,0,0,0,1.89-9.15c0-19.66-25.34-37.44-65.12-50.24v2.59c-39.78-11.45-92.6-18.48-151-18.48"/><path class="cls-1" d="M80.24,331.63s-2.84,4.27,2.21,13.51c4.45,8.15,26.75,40.16,38.52,56.93,5,8.57,8.48,13.86,8.78,13.36.47-.79-3.17-16.76-13.22-35.11-6.12-12.83-13.79-31.08-16-40.1,7.62,6.66,18.27,12.84,31.41,18.38V273C103.76,284.9,87,299.72,87,315.81c0,.55,0,1.08.06,1.62l-6.85,14.2"/><path class="cls-2" d="M40.46,331.55s-6.75,3.52,0,16.12c5.95,11.1,38.49,56.82,55.7,80.8,7,11.84,11.86,19.28,12.58,18.85,1.14-.68-.83-20.18-14.27-45.19-9.88-22-21.9-55.27-17.26-58,0,0,13.46-11.9,35.69-7.92,194.58,95.13,404.35-1.63,404.35-1.63.38-.29-.36.29,0,0,9.94,4.52,14.89,10.81,14.89,10.81,4.36,3.73-14.21,36.08-28.53,57.11C485.05,426,479.46,446,480.52,446.89c.68.58,7.14-6.22,16.56-17.2,22.32-21.63,64.57-62.91,72.81-73.33,9.32-11.81,2.92-16.83,2.92-16.83L531,295.1c-.12-.38-.22-.76-.34-1.14l14.8-21.43a8.07,8.07,0,0,0,.84-7.5,7.5,7.5,0,0,0-5.68-4.68l-25-4.24c-1-2-2-3.93-3-5.86l10.52-24.06a8,8,0,0,0-.59-7.52,7.36,7.36,0,0,0-6.43-3.44l-25.39.92q-2-2.57-4-5.07l5.83-25.79a8,8,0,0,0-2-7.26,7.25,7.25,0,0,0-7-2.06l-24.72,6.08q-2.42-2.13-4.87-4.18l.88-26.48a7.82,7.82,0,0,0-3.29-6.71,7.13,7.13,0,0,0-7.21-.61l-23.07,11q-2.79-1.6-5.61-3.15l-4.08-26.08a7.7,7.7,0,0,0-4.49-5.91,7.13,7.13,0,0,0-7.19.87L379.36,136.2c-2-.67-4.06-1.32-6.12-1.94l-8.87-24.73a7.5,7.5,0,0,0-5.51-4.9A7.29,7.29,0,0,0,352,107l-17.31,19.36c-2.09-.24-4.19-.46-6.29-.64L315,103.15a7.27,7.27,0,0,0-12.63,0L289,125.67c-2.1.18-4.19.4-6.29.64L265.42,107a7.28,7.28,0,0,0-6.88-2.32,7.49,7.49,0,0,0-5.51,4.9l-8.87,24.73c-2.06.62-4.09,1.26-6.11,1.94l-20.57-15.43a7.13,7.13,0,0,0-7.18-.87,7.68,7.68,0,0,0-4.49,5.91l-4.08,26.08c-1.89,1-3.75,2.08-5.61,3.15l-23.07-11a7.16,7.16,0,0,0-7.21.61,7.85,7.85,0,0,0-3.3,6.71l.89,26.48c-1.64,1.37-3.27,2.76-4.87,4.18L133.84,176a7.23,7.23,0,0,0-7,2.06,8,8,0,0,0-2,7.26l5.84,25.79c-1.37,1.67-2.7,3.36-4,5.07l-25.38-.92a7.28,7.28,0,0,0-6.43,3.44,8,8,0,0,0-.58,7.52l10.5,24.06c-1,1.93-2,3.88-3,5.86l-25,4.24A7.52,7.52,0,0,0,71.15,265a8,8,0,0,0,.83,7.5L86.77,294c-.43,1.46-.86,2.94-1.28,4.41l-45,33.18"/><path d="M197,392.84V377.67c4.78-6.59,49.64-66.24,105.69,7.7l-68.67,6.38s.42.4,1.23,1.09Z"/><path class="cls-2" d="M516.38,324.2C603.93,343.81,627,307.08,627,307.08c86.56-1.87,64.26-63.51,64.26-63.51-24.41,28.19-43.71,16.19-43.71,16.19L663,212c-87,11.55-62.09,80.79-62.09,80.79-20.74,15-80.45,3.5-80.45,3.5Z"/><path d="M268.9,281.12c18,29.07,0,45.91,0,45.91-15,21.42-41.93,0-41.93,0-16.47-15.31,0-45.91,0-45.91,21-23,41.93,0,41.93,0"/><path class="cls-3" d="M244.63,289.63c0-8.94,5.27-16.18,11.77-16.18s11.76,7.24,11.76,16.18-5.27,16.19-11.76,16.19-11.77-7.25-11.77-16.19"/><path d="M362.46,274.85c34.53,53.6-16.24,63.38-16.24,63.38-39.81-2.34-29.53-43.76-29.53-43.76,9.81-35.54,45.77-19.62,45.77-19.62"/><path class="cls-3" d="M344.4,290.22c0-9.22,5.44-16.69,12.14-16.69s12.13,7.47,12.13,16.69-5.43,16.69-12.13,16.69-12.14-7.47-12.14-16.69"/><path class="cls-2" d="M110.67,320.06c5.81,59.36,77.45,87.06,77.45,87.06,67.76,77.17,112.29,23.74,112.29,23.74-46.47,1.09-69.54-34.22-69.54-34.22,50.15-13.26,68.85-2.37,68.85-2.37-60-87.06-102.38-9.8-102.38-9.8l-13.09-3.07C137.55,350,130,320.06,130,320.06Z"/></g><line class="cls-4" x1="324.66" y1="264.31" x2="368.67" y2="247.02"/><line class="cls-4" x1="266.64" y1="265.31" x2="222.63" y2="248.02"/><path class="cls-5" d="M973.28,178.33c-25.57-29.62-60.93-22.05-90.55,3.52S840.47,241.3,866,270.92"/><rect class="cls-5" x="908.61" y="199.12" width="41.81" height="73.82" rx="19.19" ry="19.19" transform="translate(1787.33 -192.75) rotate(139.19)"/><polygon class="cls-5" points="889.38 201.79 735.33 11.13 901.49 191.34 889.38 201.79"/><g id="Layer-1-2" data-name="Layer-1"><path class="cls-1" d="M1292.45,250.62c-58.44,0-111.26,7-151,18.48v-2.59c-39.78,12.8-65.12,30.58-65.12,50.24a24.37,24.37,0,0,0,1.89,9.15l-4.07,7.3s-3.27,4.26,2.51,13.26c5.11,7.93,30.69,39,44.18,55.24,5.8,8.34,9.74,13.47,10.08,13,.54-.79-3.6-16.44-15.12-34.3A328.27,328.27,0,0,1,1100,348.7c10.75,6.81,25.09,13,41.41,18.29v-.08c39.78,11.45,92.6,18.48,151,18.48,66.89,0,126.91-9.21,167.2-23.71V274.33c-40.29-14.5-100.31-23.71-167.2-23.71"/><path class="cls-1" d="M1519.76,331.63l-6.85-14.2c0-.54.06-1.07.06-1.62,0-16.09-16.73-30.91-44.88-42.79V358.6c13.14-5.54,23.79-11.72,31.41-18.38-2.24,9-9.91,27.27-16,40.1-10,18.35-13.69,34.32-13.22,35.11.3.5,3.73-4.79,8.78-13.36,11.77-16.77,34.07-48.78,38.52-56.93,5-9.24,2.21-13.51,2.21-13.51"/><path class="cls-2" d="M1559.54,331.55l-45-33.18c-.42-1.47-.85-2.95-1.28-4.41L1528,272.53a8,8,0,0,0,.83-7.5,7.52,7.52,0,0,0-5.67-4.68l-25-4.24c-1-2-2-3.93-3-5.86l10.5-24.06a8,8,0,0,0-.58-7.52,7.28,7.28,0,0,0-6.43-3.44l-25.38.92c-1.32-1.71-2.65-3.4-4-5.07l5.84-25.79a8,8,0,0,0-2-7.26,7.23,7.23,0,0,0-7-2.06l-24.72,6.08c-1.6-1.42-3.23-2.81-4.87-4.18l.89-26.48a7.85,7.85,0,0,0-3.3-6.71,7.16,7.16,0,0,0-7.21-.61l-23.07,11c-1.86-1.07-3.72-2.12-5.61-3.15l-4.08-26.08a7.68,7.68,0,0,0-4.49-5.91,7.13,7.13,0,0,0-7.18.87L1362,136.2c-2-.68-4-1.32-6.11-1.94L1347,109.53a7.49,7.49,0,0,0-5.51-4.9,7.28,7.28,0,0,0-6.88,2.32l-17.3,19.36c-2.1-.24-4.19-.46-6.29-.64l-13.37-22.52a7.27,7.27,0,0,0-12.63,0l-13.37,22.52c-2.1.18-4.2.4-6.29.64L1248,107a7.29,7.29,0,0,0-6.88-2.32,7.5,7.5,0,0,0-5.51,4.9l-8.87,24.73c-2.06.62-4.09,1.27-6.12,1.94l-20.56-15.43a7.13,7.13,0,0,0-7.19-.87,7.7,7.7,0,0,0-4.49,5.91l-4.08,26.08q-2.82,1.55-5.61,3.15l-23.07-11a7.13,7.13,0,0,0-7.21.61,7.82,7.82,0,0,0-3.29,6.71l.88,26.48q-2.46,2.06-4.87,4.18L1116.43,176a7.25,7.25,0,0,0-7,2.06,8,8,0,0,0-2,7.26l5.83,25.79q-2,2.5-4,5.07l-25.39-.92a7.36,7.36,0,0,0-6.43,3.44,8,8,0,0,0-.59,7.52l10.52,24.06c-1,1.93-2,3.88-3,5.86l-25,4.24a7.5,7.5,0,0,0-5.68,4.68,8.07,8.07,0,0,0,.84,7.5l14.8,21.43c-.12.38-.22.76-.34,1.14l-41.83,44.43s-6.4,5,2.92,16.83c8.24,10.42,50.49,51.7,72.81,73.33,9.42,11,15.88,17.78,16.56,17.2,1.06-.94-4.53-20.92-23.09-44.36-14.32-21-32.89-53.38-28.53-57.11,0,0,5-6.29,14.89-10.81.36.29-.38-.29,0,0,0,0,209.77,96.76,404.35,1.63,22.23-4,35.69,7.92,35.69,7.92,4.64,2.7-7.38,36-17.26,58-13.44,25-15.41,44.51-14.27,45.19.72.43,5.61-7,12.58-18.85,17.21-24,49.75-69.7,55.7-80.8,6.75-12.6,0-16.12,0-16.12"/><path d="M1364.71,392.84c.81-.69,1.23-1.09,1.23-1.09l-68.67-6.38c56-73.94,100.91-14.29,105.69-7.7v15.17Z"/><path class="cls-2" d="M1079.57,296.24s-59.71,11.5-80.45-3.5c0,0,24.91-69.24-62.09-80.79l15.39,47.81s-19.3,12-43.71-16.19c0,0-22.3,61.64,64.26,63.51,0,0,23.1,36.73,110.65,17.12Z"/><path d="M1331.1,281.12s21-23,41.93,0c0,0,16.47,30.6,0,45.91,0,0-27,21.42-41.93,0,0,0-18-16.84,0-45.91"/><path class="cls-3" d="M1355.37,289.63c0,8.94-5.27,16.19-11.77,16.19s-11.76-7.25-11.76-16.19,5.27-16.18,11.76-16.18,11.77,7.24,11.77,16.18"/><path d="M1237.54,274.85s36-15.92,45.77,19.62c0,0,10.28,41.42-29.53,43.76,0,0-50.77-9.78-16.24-63.38"/><path class="cls-3" d="M1255.6,290.22c0,9.22-5.44,16.69-12.14,16.69s-12.13-7.47-12.13-16.69,5.43-16.69,12.13-16.69,12.14,7.47,12.14,16.69"/><path class="cls-2" d="M1470,320.06s-7.51,29.91-54.21,61.34l-13.09,3.07s-42.36-77.26-102.38,9.8c0,0,18.7-10.89,68.85,2.37,0,0-23.07,35.31-69.54,34.22,0,0,44.53,53.43,112.29-23.74,0,0,71.64-27.7,77.45-87.06Z"/></g><line class="cls-4" x1="1334.34" y1="264.31" x2="1378.35" y2="247.02"/><line class="cls-4" x1="1276.31" y1="265.31" x2="1232.3" y2="248.02"/></svg>