<?xml version="1.0" encoding="UTF-8" standalone="no"?>
<svg
   xmlns:dc="http://purl.org/dc/elements/1.1/"
   xmlns:cc="http://creativecommons.org/ns#"
   xmlns:rdf="http://www.w3.org/1999/02/22-rdf-syntax-ns#"
   xmlns:svg="http://www.w3.org/2000/svg"
   xmlns="http://www.w3.org/2000/svg"
   xmlns:sodipodi="http://sodipodi.sourceforge.net/DTD/sodipodi-0.dtd"
   xmlns:inkscape="http://www.inkscape.org/namespaces/inkscape"
   id="Layer_1"
   data-name="Layer 1"
   viewBox="0 0 850 460"
   version="1.1"
   sodipodi:docname="ferris-fencing-gold.svg"
   inkscape:version="0.92.4 (5da689c313, 2019-01-14)">
  <metadata
     id="metadata170">
    <rdf:RDF>
      <cc:Work
         rdf:about="">
        <dc:format>image/svg+xml</dc:format>
        <dc:type
           rdf:resource="http://purl.org/dc/dcmitype/StillImage" />
        <dc:title>Ferris fencing</dc:title>
      </cc:Work>
    </rdf:RDF>
  </metadata>
  <sodipodi:namedview
     pagecolor="#ffffff"
     bordercolor="#666666"
     borderopacity="1"
     objecttolerance="10"
     gridtolerance="10"
     guidetolerance="10"
     inkscape:pageopacity="0"
     inkscape:pageshadow="2"
     inkscape:window-width="2560"
     inkscape:window-height="1330"
     id="namedview168"
     showgrid="false"
     inkscape:zoom="2.0521739"
     inkscape:cx="500.44218"
     inkscape:cy="227.45595"
     inkscape:window-x="-12"
     inkscape:window-y="-12"
     inkscape:window-maximized="1"
     inkscape:current-layer="Layer_1" />
  <defs
     id="defs132">
    <style
       id="style130">.cls-1{fill:#a52b00;}.cls-2{fill:#f74c00;}.cls-3{fill:#fff;}.cls-4{fill:none;stroke:#000;stroke-linecap:round;stroke-linejoin:round;stroke-width:5px;}</style>
  </defs>
  <title
     id="title134">Ferris fencing</title>
  <path
     d="M600.65,178.33c25.57-29.62,60.94-22.05,90.55,3.52s42.26,59.45,16.69,89.07"
     id="path136"
     style="fill:#ffbe06;fill-opacity:1" />
  <rect
     x="623.52"
     y="199.12"
     width="41.81"
     height="73.82"
     rx="19.19"
     ry="19.19"
     transform="translate(310.9 -363.76) rotate(40.81)"
     id="rect138"
     style="fill:#ffbe06;fill-opacity:1" />
  <polygon
     points="672.44 191.34 838.61 11.13 684.55 201.79 672.44 191.34"
     id="polygon140"
     style="fill:#ffbe06;fill-opacity:1" />
  <g
     id="Layer-1">
    <path
       class="cls-1"
       d="M281.48,250.62c-66.89,0-126.9,9.21-167.19,23.71v87.35c40.29,14.5,100.3,23.71,167.19,23.71,58.45,0,111.27-7,151-18.48V367c16.32-5.31,30.65-11.48,41.41-18.29a328.41,328.41,0,0,1-15.77,31.68c-11.51,17.86-15.65,33.51-15.11,34.3.34.49,4.28-4.64,10.07-13,13.5-16.26,39.08-47.31,44.18-55.24,5.79-9,2.52-13.26,2.52-13.26l-4.07-7.3a24.56,24.56,0,0,0,1.89-9.15c0-19.66-25.34-37.44-65.12-50.24v2.59c-39.78-11.45-92.6-18.48-151-18.48"
       id="path142" />
    <path
       class="cls-1"
       d="M54.18,331.63s-2.85,4.27,2.2,13.51c4.46,8.15,26.75,40.16,38.52,56.93,5.06,8.57,8.49,13.86,8.78,13.36.47-.79-3.17-16.76-13.22-35.11-6.11-12.83-13.78-31.08-16-40.1,7.62,6.66,18.28,12.84,31.41,18.38V273C77.69,284.9,61,299.72,61,315.81c0,.55,0,1.08.07,1.62l-6.85,14.2"
       id="path144" />
    <path
       class="cls-2"
       d="M14.4,331.55s-6.76,3.52,0,16.12c6,11.1,38.48,56.82,55.69,80.8,7,11.84,11.87,19.28,12.59,18.85,1.14-.68-.83-20.18-14.27-45.19-9.88-22-21.9-55.27-17.26-58,0,0,13.46-11.9,35.68-7.92,194.59,95.13,404.36-1.63,404.36-1.63h0c9.94,4.52,14.89,10.81,14.89,10.81,4.35,3.73-14.22,36.08-28.53,57.11C459,426,453.4,446,454.46,446.89c.67.58,7.13-6.22,16.56-17.2,22.32-21.63,64.57-62.91,72.8-73.33,9.33-11.81,2.92-16.83,2.92-16.83L504.91,295.1l-.33-1.14,14.8-21.43a8.09,8.09,0,0,0,.83-7.5,7.5,7.5,0,0,0-5.67-4.68l-25-4.24c-1-2-2-3.93-3-5.86L497,226.19a8,8,0,0,0-.58-7.52,7.37,7.37,0,0,0-6.44-3.44l-25.38.92c-1.31-1.71-2.65-3.4-4-5.07l5.82-25.79a8,8,0,0,0-2-7.26,7.26,7.26,0,0,0-7-2.06l-24.72,6.08c-1.61-1.42-3.23-2.81-4.88-4.18l.89-26.48a7.83,7.83,0,0,0-3.3-6.71,7.13,7.13,0,0,0-7.21-.61l-23.06,11q-2.79-1.6-5.62-3.15l-4.08-26.08A7.68,7.68,0,0,0,381,119.9a7.13,7.13,0,0,0-7.19.87L353.3,136.2q-3-1-6.12-1.94l-8.87-24.73a7.51,7.51,0,0,0-5.51-4.9,7.28,7.28,0,0,0-6.88,2.32l-17.31,19.36c-2.09-.24-4.19-.46-6.3-.64L289,103.15a7.28,7.28,0,0,0-12.64,0L263,125.67c-2.1.18-4.2.4-6.29.64L239.35,107a7.26,7.26,0,0,0-6.87-2.32,7.49,7.49,0,0,0-5.52,4.9l-8.86,24.73c-2.06.62-4.09,1.26-6.12,1.94l-20.56-15.43a7.14,7.14,0,0,0-7.18-.87,7.71,7.71,0,0,0-4.5,5.91l-4.07,26.08q-2.83,1.55-5.62,3.15l-23.06-11a7.16,7.16,0,0,0-7.21.61,7.8,7.8,0,0,0-3.3,6.71l.89,26.48c-1.65,1.37-3.27,2.76-4.88,4.18L107.77,176a7.21,7.21,0,0,0-7,2.06,8,8,0,0,0-2,7.26l5.83,25.79q-2,2.5-4,5.07l-25.38-.92a7.3,7.3,0,0,0-6.44,3.44,8,8,0,0,0-.58,7.52l10.51,24.06c-1,1.93-2,3.88-3,5.86l-25,4.24A7.54,7.54,0,0,0,45.08,265a8,8,0,0,0,.84,7.5L60.71,294c-.44,1.46-.86,2.94-1.28,4.41l-45,33.18"
       id="path146" />
    <path
       d="M171,392.84V377.67c4.78-6.59,49.64-66.24,105.69,7.7L208,391.75s.42.4,1.22,1.09Z"
       id="path148" />
    <path
       class="cls-2"
       d="M490.31,324.2C577.86,343.81,601,307.08,601,307.08c86.56-1.87,64.26-63.51,64.26-63.51-24.41,28.19-43.7,16.19-43.7,16.19L636.9,212c-87,11.55-62.08,80.79-62.08,80.79-20.75,15-80.45,3.5-80.45,3.5Z"
       id="path150" />
    <path
       d="M242.84,281.12c18,29.07,0,45.91,0,45.91-15,21.42-41.93,0-41.93,0-16.47-15.31,0-45.91,0-45.91,21-23,41.93,0,41.93,0"
       id="path152" />
    <path
       class="cls-3"
       d="M218.57,289.63c0-8.94,5.26-16.18,11.76-16.18s11.77,7.24,11.77,16.18-5.27,16.19-11.77,16.19-11.76-7.25-11.76-16.19"
       id="path154" />
    <path
       d="M336.4,274.85c34.52,53.6-16.24,63.38-16.24,63.38-39.82-2.34-29.53-43.76-29.53-43.76,9.81-35.54,45.77-19.62,45.77-19.62"
       id="path156" />
    <path
       class="cls-3"
       d="M318.34,290.22c0-9.22,5.43-16.69,12.13-16.69s12.14,7.47,12.14,16.69-5.44,16.69-12.14,16.69-12.13-7.47-12.13-16.69"
       id="path158" />
    <path
       class="cls-2"
       d="M84.61,320.06c5.81,59.36,77.44,87.06,77.44,87.06,67.76,77.17,112.29,23.74,112.29,23.74-46.46,1.09-69.53-34.22-69.53-34.22,50.14-13.26,68.85-2.37,68.85-2.37-60-87.06-102.38-9.8-102.38-9.8l-13.1-3.07C111.48,350,104,320.06,104,320.06Z"
       id="path160" />
  </g>
  <line
     class="cls-4"
     x1="298.6"
     y1="264.31"
     x2="342.61"
     y2="247.02"
     id="line163" />
  <line
     class="cls-4"
     x1="240.57"
     y1="265.31"
     x2="196.56"
     y2="248.02"
     id="line165" />
</svg>
