<svg id="Layer_1" data-name="Layer 1" xmlns="http://www.w3.org/2000/svg" viewBox="0 0 600 440"><defs><style>.cls-1{fill:#a52b00;}.cls-2{fill:#f74c00;}.cls-3{fill:#fff;}.cls-4{fill:none;stroke:#000;stroke-linecap:round;stroke-linejoin:round;stroke-width:5px;}</style></defs><title>Ferris fencing</title><path class="cls-1" d="M298.85,198.16c-52.3,0-99.83,6.29-135,16.54v87.54c35.19,10.25,82.72,16.54,135,16.54,59.87,0,113.47-8.24,149.48-21.22V219.39c-36-13-89.61-21.23-149.48-21.23"/><path class="cls-1" d="M502.25,269.29l-6.13-12.7c0-.48.05-1,.05-1.45,0-14.4-15-27.67-40.17-38.3v76.6c11.76-5,21.3-10.49,28.12-16.45-2,8.07-8.88,24.4-14.35,35.88-9,16.43-12.25,30.73-11.84,31.43.27.45,3.34-4.29,7.87-12,10.53-15,30.48-43.65,34.47-50.95,4.52-8.27,2-12.1,2-12.1"/><path class="cls-1" d="M105.44,256a21.8,21.8,0,0,0,1.64,8.19l-3.68,6.53s-2.94,3.82,2.24,11.87c4.57,7.1,27.46,34.89,39.54,49.45,5.19,7.46,8.7,12.05,9,11.61.49-.71-3.22-14.71-13.53-30.7a292.51,292.51,0,0,1-14-28.35c9.63,6.09,22.22,11.61,37.17,16.37V211c-36,11.45-58.39,27.37-58.39,45"/><path class="cls-2" d="M537.85,269.22l-40.3-29.69c-.38-1.32-.76-2.64-1.15-3.95l13.24-19.18a7.18,7.18,0,0,0,.74-6.71,6.73,6.73,0,0,0-5.07-4.19l-22.39-3.8c-.86-1.77-1.77-3.51-2.69-5.24l9.41-21.53a7.17,7.17,0,0,0-.52-6.74,6.53,6.53,0,0,0-5.76-3.07l-22.72.82c-1.18-1.53-2.37-3.05-3.59-4.54l5.22-23.08a7.15,7.15,0,0,0-1.77-6.5,6.47,6.47,0,0,0-6.22-1.84l-22.13,5.44c-1.44-1.27-2.89-2.52-4.37-3.75l.8-23.69a7,7,0,0,0-2.95-6,6.39,6.39,0,0,0-6.45-.54l-20.65,9.81c-1.66-.95-3.33-1.9-5-2.81l-3.65-23.35a6.9,6.9,0,0,0-4-5.29,6.4,6.4,0,0,0-6.43.78L361,94.38c-1.82-.6-3.64-1.18-5.48-1.73L347.6,70.51a6.71,6.71,0,0,0-4.94-4.38,6.5,6.5,0,0,0-6.15,2.07L321,85.53c-1.88-.21-3.75-.41-5.63-.57l-12-20.16a6.51,6.51,0,0,0-11.31,0L280.15,85c-1.88.16-3.76.36-5.63.57L259,68.2a6.52,6.52,0,0,0-6.16-2.07,6.7,6.7,0,0,0-4.93,4.38L240,92.65c-1.84.55-3.66,1.13-5.48,1.73l-18.4-13.81a6.38,6.38,0,0,0-6.43-.78,6.92,6.92,0,0,0-4,5.29L202,108.43c-1.69.91-3.36,1.85-5,2.81l-20.64-9.81a6.39,6.39,0,0,0-6.45.54,7,7,0,0,0-3,6l.79,23.69q-2.2,1.85-4.36,3.75L141.25,130a6.49,6.49,0,0,0-6.23,1.84,7.12,7.12,0,0,0-1.77,6.5l5.21,23.08c-1.21,1.5-2.41,3-3.58,4.54l-22.72-.82a6.6,6.6,0,0,0-5.76,3.07,7.22,7.22,0,0,0-.53,6.74l9.42,21.53c-.92,1.73-1.82,3.47-2.7,5.24L90.2,205.5a6.69,6.69,0,0,0-5.07,4.19,7.21,7.21,0,0,0,.75,6.71l13.24,19.18-.3,1L61.38,276.37s-5.73,4.5,2.62,15.06c7.37,9.32,45.19,46.28,65.16,65.64C137.6,366.9,143.38,373,144,372.46c1-.84-4-18.72-20.67-39.7C110.5,313.93,93.88,285,97.78,281.64A38.05,38.05,0,0,1,111.11,272c.32.26-.34-.25,0,0,0,0,187.75,86.61,361.91,1.47,19.89-3.57,31.93,7.09,31.93,7.09,4.16,2.4-6.6,32.17-15.44,51.88-12,22.38-13.8,39.84-12.77,40.45.64.38,5-6.28,11.26-16.88,15.4-21.46,44.52-62.38,49.85-72.32,6-11.27,0-14.43,0-14.43"/><path d="M235.42,324.8c-.71-.62-1.09-1-1.09-1l61.5-5c-50.17-66.18-90.36-13.46-94.64-7.56V324.8Z"/><path d="M363.48,324.08c.71-.61,1.09-1,1.09-1l-59.1-4.33c50.19-68.9,88-14.17,92.24-8.28v13.58Z"/><path class="cls-2" d="M458,258.38s-6.73,26.77-48.52,54.9L397.72,316s-37.92-69.14-91.64,8.78c0,0,16.74-9.75,61.62,2.12,0,0-20.64,31.6-62.23,30.63,0,0,39.85,47.81,100.5-21.25,0,0,64.11-24.8,69.31-77.92Z"/><path d="M333.39,224.09s18.76-20.55,37.53,0c0,0,14.74,27.39,0,41.09,0,0-24.13,19.17-37.53,0,0,0-16.08-15.07,0-41.09"/><path class="cls-3" d="M355.11,231.71c0,8-4.71,14.48-10.53,14.48s-10.53-6.48-10.53-14.48,4.72-14.49,10.53-14.49,10.53,6.49,10.53,14.49"/><path d="M249.65,218.48s32.18-14.25,41,17.55c0,0,9.2,37.08-26.43,39.17,0,0-45.44-8.75-14.54-56.72"/><path class="cls-3" d="M265.81,232.23c0,8.25-4.86,14.94-10.86,14.94s-10.86-6.69-10.86-14.94S249,217.29,255,217.29s10.86,6.69,10.86,14.94"/><path class="cls-2" d="M231.57,329.79c39.62-5,62.52-5.46,62.52-5.46-53-69.93-96-6.62-96-6.62-10.78-3.85-21.77-18.82-30-32.61l-32.9-9.75c37.92,64.35,66.14,65.33,66.14,65.33C260.1,416,288,355.48,288,355.48c-33-3.75-56.38-25.69-56.38-25.69"/><line class="cls-4" x1="270.52" y1="198.66" x2="226.51" y2="215.95"/><line class="cls-4" x1="338.99" y1="197.66" x2="383" y2="214.95"/></svg>