<?xml version="1.0" encoding="UTF-8" standalone="no"?>
<svg
   xmlns:dc="http://purl.org/dc/elements/1.1/"
   xmlns:cc="http://creativecommons.org/ns#"
   xmlns:rdf="http://www.w3.org/1999/02/22-rdf-syntax-ns#"
   xmlns:svg="http://www.w3.org/2000/svg"
   xmlns="http://www.w3.org/2000/svg"
   xmlns:sodipodi="http://sodipodi.sourceforge.net/DTD/sodipodi-0.dtd"
   xmlns:inkscape="http://www.inkscape.org/namespaces/inkscape"
   id="Layer_1"
   data-name="Layer 1"
   viewBox="0 0 600 440"
   version="1.1"
   sodipodi:docname="ferris-fencing-victor-blue.svg"
   inkscape:version="0.92.4 (5da689c313, 2019-01-14)">
  <metadata
     id="metadata1730">
    <rdf:RDF>
      <cc:Work
         rdf:about="">
        <dc:format>image/svg+xml</dc:format>
        <dc:type
           rdf:resource="http://purl.org/dc/dcmitype/StillImage" />
      </cc:Work>
    </rdf:RDF>
  </metadata>
  <sodipodi:namedview
     pagecolor="#ffffff"
     bordercolor="#666666"
     borderopacity="1"
     objecttolerance="10"
     gridtolerance="10"
     guidetolerance="10"
     inkscape:pageopacity="0"
     inkscape:pageshadow="2"
     inkscape:window-width="2560"
     inkscape:window-height="1330"
     id="namedview1728"
     showgrid="false"
     inkscape:zoom="0.75853273"
     inkscape:cx="-53.66466"
     inkscape:cy="340.61195"
     inkscape:window-x="-12"
     inkscape:window-y="-12"
     inkscape:window-maximized="1"
     inkscape:current-layer="Layer_1" />
  <defs
     id="defs1693">
    <style
       id="style1691">.cls-1{fill:#a52b00;}.cls-2{fill:#f74c00;}.cls-3{fill:#fff;}.cls-4{fill:#ffbe06;}</style>
  </defs>
  <title
     id="title1695">Ferris fencing</title>
  <path
     class="cls-1"
     d="M550.56,315.94l-6.67-13.83c0-.52.06-1.05.06-1.58,0-15.67-16.3-30.12-43.73-41.69v9.62q-4-1.59-8.36-3.09v-4.49c-39.19-14.13-97.54-23.1-162.71-23.1-56.95,0-108.69,6.85-147,18V271.4h0V252.5c-39.24,12.47-63.57,29.79-63.57,48.95a23.8,23.8,0,0,0,1.78,8.91l-4,7.11s-3.2,4.16,2.44,12.92c5,7.73,29.89,38,43,53.83,5.65,8.12,9.48,13.12,9.81,12.64.53-.77-3.51-16-14.73-33.42a318.83,318.83,0,0,1-15.23-30.86c10.47,6.63,72,37.62,197.55,37.49,128.29-.13,185.32-40.29,191.57-45.75-2.18,8.78-9.66,26.56-15.62,39.06-9.79,17.88-13.33,33.44-12.88,34.21.29.49,3.63-4.66,8.56-13,11.46-16.34,33.19-47.53,37.53-55.47,4.92-9,2.15-13.17,2.15-13.17"
     id="path1697" />
  <path
     class="cls-2"
     d="M589.32,315.86l-43.88-32.32c-.41-1.44-.82-2.88-1.25-4.3l14.42-20.88a7.85,7.85,0,0,0,.81-7.31,7.33,7.33,0,0,0-5.53-4.56l-24.36-4.13c-.95-1.93-1.94-3.83-2.93-5.71l10.24-23.44a7.79,7.79,0,0,0-.57-7.33,7.1,7.1,0,0,0-6.27-3.35l-24.73.9q-1.92-2.51-3.91-4.94l5.69-25.13a7.79,7.79,0,0,0-1.93-7.07,7,7,0,0,0-6.78-2l-24.09,5.92q-2.34-2.07-4.75-4.07l.87-25.8a7.64,7.64,0,0,0-3.22-6.54,7,7,0,0,0-7-.59l-22.47,10.68q-2.71-1.56-5.47-3.06l-4-25.42a7.53,7.53,0,0,0-4.38-5.76,7,7,0,0,0-7,.85l-20,15c-2-.65-4-1.28-6-1.88l-8.64-24.1a7.31,7.31,0,0,0-5.37-4.77,7.07,7.07,0,0,0-6.7,2.26l-16.87,18.86q-3.06-.35-6.12-.62l-13-21.94a7.07,7.07,0,0,0-12.3,0l-13,21.94c-2.05.18-4.1.39-6.13.62L285.79,97a7.09,7.09,0,0,0-6.7-2.26,7.29,7.29,0,0,0-5.37,4.77l-8.64,24.1c-2,.6-4,1.23-6,1.88l-20-15a7,7,0,0,0-7-.85,7.55,7.55,0,0,0-4.38,5.76l-4,25.42q-2.76,1.5-5.47,3.06L195.79,133.2a7,7,0,0,0-7,.59,7.66,7.66,0,0,0-3.21,6.54l.86,25.8q-2.4,2-4.75,4.07l-24.08-5.92a7.06,7.06,0,0,0-6.79,2,7.76,7.76,0,0,0-1.93,7.07l5.68,25.13c-1.32,1.63-2.62,3.27-3.9,4.94l-24.73-.9a7.19,7.19,0,0,0-6.27,3.35,7.81,7.81,0,0,0-.57,7.33l10.24,23.44c-1,1.88-2,3.78-2.93,5.71L102,246.49a7.33,7.33,0,0,0-5.53,4.56,7.88,7.88,0,0,0,.82,7.31l14.41,20.88c-.11.37-.21.74-.32,1.11L70.64,323.64s-6.25,4.89,2.84,16.4c8,10.15,49.19,50.38,70.94,71.45,9.18,10.7,15.47,17.32,16.13,16.75,1-.91-4.41-20.37-22.5-43.21-13.94-20.5-32-52-27.8-55.65a41.65,41.65,0,0,1,14.52-10.54c.35.29-.37-.28,0,0,0,0,204.38,94.29,394,1.6,21.66-3.89,34.77,7.72,34.77,7.72,4.52,2.62-7.19,35-16.82,56.48-13.09,24.36-15,43.37-13.9,44,.7.41,5.46-6.84,12.26-18.37,16.77-23.37,48.47-67.91,54.27-78.73,6.58-12.27,0-15.71,0-15.71"
     id="path1699" />
  <path
     d="M366.74,266.73s20.43-22.37,40.85,0c0,0,16.05,29.82,0,44.73,0,0-26.26,20.87-40.85,0,0,0-17.51-16.4,0-44.73"
     id="path1701" />
  <path
     class="cls-3"
     d="M390.39,275c0,8.71-5.13,15.77-11.46,15.77s-11.47-7.06-11.47-15.77,5.13-15.77,11.47-15.77,11.46,7.06,11.46,15.77"
     id="path1703" />
  <path
     d="M275.58,260.62s35-15.51,44.6,19.11c0,0,10,40.36-28.77,42.64,0,0-49.47-9.53-15.83-61.75"
     id="path1705" />
  <path
     class="cls-3"
     d="M293.18,275.6c0,9-5.3,16.26-11.83,16.26s-11.82-7.28-11.82-16.26,5.29-16.27,11.82-16.27,11.83,7.28,11.83,16.27"
     id="path1707" />
  <path
     d="M320.47,336.48l44.68-3.59a26.55,26.55,0,0,1-7.35,12.6s-15.36,16.85-33-1.41a22.58,22.58,0,0,1-4.33-7.6"
     id="path1709" />
  <path
     class="cls-2"
     d="M119.71,242.18c-.36-.11-.71-.2-1.06-.28-12.84-7.52-48.5-30-53.57-49.66,0,0,71.15-42.94,1.44-106.86L55.19,154.23S35.32,129.4,41.46,91.09c0,0-75.48,25.11-.53,95.82,0,0-1.53,32.69,67.9,81.14l.12-.21a12.92,12.92,0,0,0,2.32,1,14,14,0,0,0,8.44-26.64"
     id="path1711" />
  <path
     d="M248.22,13.54a3.71,3.71,0,0,0-3.77,2.2l-8.26,18.91L211.64,12.28a3.71,3.71,0,0,0-6.09,1.87l-7.53,31L173.34,30.7a3.71,3.71,0,0,0-3.73,0h0a3.69,3.69,0,0,0-1.83,3.24l.36,28.87-30.66-8.7a3.71,3.71,0,0,0-4.62,4.39l7.37,32.32-20.89-2.1a3.7,3.7,0,0,0-2.82,6.46l61.64,54.53L192,173.37A3.7,3.7,0,0,0,197,174.7l84.05-49a3.7,3.7,0,0,0,1.33-5.06L268.59,97l-17.12-80.5A3.72,3.72,0,0,0,248.22,13.54Z"
     id="path1713" />
  <polygon
     class="cls-4"
     points="211.28 21.97 233.06 41.82 224.75 60.84 204.69 49.09 211.28 21.97"
     id="polygon1715"
     style="fill:#4198f7;fill-opacity:1" />
  <polygon
     class="cls-4"
     points="141.46 62.95 168.22 70.54 168.51 93.66 148 91.6 141.46 62.95"
     id="polygon1717"
     style="fill:#4198f7;fill-opacity:1" />
  <polygon
     class="cls-2"
     points="272.28 116.6 194.63 161.88 184.23 144.06 261.88 98.77 272.28 116.6 272.28 116.6"
     id="polygon1719" />
  <path
     class="cls-2"
     d="M260.89,96.39l-79.45,46.35L130,97.24l41.87,4.21A3.7,3.7,0,0,0,176,97.72l-.71-57.31L224.6,69.35a3.72,3.72,0,0,0,5.27-1.72l16.75-38.35Z"
     id="path1721" />
  <path
     class="cls-4"
     d="M217.6,76.61l-9.86,4-8.88-5.87a3.7,3.7,0,0,0-5.73,3.35l.73,10.61-8.32,6.62a3.71,3.71,0,0,0,1.41,6.5l10.32,2.57,3.73,10a3.71,3.71,0,0,0,6.61.66l5.64-9,10.63-.47a3.7,3.7,0,0,0,1.7-.5,3.7,3.7,0,0,0,1-5.58l-6.84-8.15L222.56,81a3.72,3.72,0,0,0-5-4.43Z"
     id="path1723"
     style="fill:#4198f7;fill-opacity:1" />
  <path
     class="cls-2"
     d="M212.06,91.19a3.7,3.7,0,0,0,.73,3.37l3.26,3.89-5.07.22a3.78,3.78,0,0,0-3,1.74l-2.69,4.31L203.53,100A3.7,3.7,0,0,0,201,97.67L196,96.44l4-3.17a3.73,3.73,0,0,0,1.39-3.15L201,85.05l4.23,2.8a3.7,3.7,0,0,0,3.43.35l4.72-1.9Z"
     id="path1725" />
</svg>
