<?xml version="1.0" encoding="UTF-8"?>
<svg width="220px" height="64px" viewBox="0 0 220 64" version="1.1" xmlns="http://www.w3.org/2000/svg" xmlns:xlink="http://www.w3.org/1999/xlink">
    <!-- Generator: Sketch 52.5 (67469) - http://www.bohemiancoding.com/sketch -->
    <title>Group Copy</title>
    <desc>Created with Sketch.</desc>
    <defs>
        <polygon id="path-1" points="0.000393283194 0.318550781 23.9874515 0.318550781 23.9874515 45 0.000393283194 45"/>
    </defs>
    <g id="Page-1" stroke="none" stroke-width="1" fill="none" fill-rule="evenodd">
        <g id="Group-Copy">
            <path d="M17.8389247,0 C16.9387822,14.2989496 -11.8421078,24.1465833 5.60295569,45 C6.37754478,30.2085448 36.6770822,18.2035879 17.8389247,0" id="Fill-1" fill="#FF7828"/>
            <g id="Group-5" transform="translate(13.000000, 19.000000)">
                <mask id="mask-2" fill="white">
                    <use xlink:href="#path-1"/>
                </mask>
                <g id="Clip-4"/>
                <path d="M17.82984,0.318550781 C16.9301829,14.5160508 -11.8355314,24.2940586 5.60046857,45.0000352 C6.37464,30.3131602 36.6574971,18.3934336 17.82984,0.318550781" id="Fill-3" fill="#FF7828" mask="url(#mask-2)"/>
            </g>
            <path d="M67.9999997,34.2197966 C67.9996398,35.8250573 67.3910693,37.1899149 66.1750081,38.3143695 C64.9589468,39.4388241 63.0087142,40.0010514 60.3250301,39.9999985 C58.4183439,39.9992966 56.697,39.8325938 55.1609984,39.49989 C54.7913935,39.4261898 54.6071309,39.2415883 54.6071309,38.9464365 L54.6078507,36.9544252 C54.6078507,36.8070248 54.6611141,36.6827873 54.7683607,36.5810108 C54.8752474,36.4795853 55.0066065,36.429048 55.162438,36.429048 L55.2207398,36.429048 C56.7761754,36.6140004 58.4975192,36.7066521 60.3844116,36.707354 C61.6285441,36.707705 62.5041514,36.5055558 63.0105137,36.0995028 C63.5161562,35.6945026 63.7695173,35.0673489 63.7695173,34.2183928 C63.7698772,33.6838908 63.5996502,33.2360743 63.2595561,32.8763471 C62.919462,32.5162689 62.2633864,32.0600295 61.2909692,31.5065761 L57.4405284,29.3187328 C56.157528,28.5989274 55.2628467,27.8334981 54.7572042,27.0210411 C54.2519215,26.2096369 54,25.2873315 54,24.2541248 C54.0014396,20.7498554 56.4335621,18.9978962 61.2960076,19.0000019 C63.5323511,19.0007038 65.3998095,19.1670557 66.8973031,19.4997595 C67.2478339,19.5738107 67.4227395,19.7492873 67.4223796,20.0258386 L67.4212999,22.0733005 C67.42094,22.4053024 67.2557515,22.5713034 66.9257343,22.5713034 L66.8670725,22.5713034 C64.7268191,22.386 62.8114956,22.2929973 61.1196626,22.2922954 C59.0772987,22.2915935 58.0559368,22.9461216 58.055217,24.2555286 C58.055217,24.7170322 58.2204055,25.1181719 58.5511425,25.4596496 C58.8815196,25.8011272 59.5138427,26.2208674 60.4470321,26.7192212 L63.946942,28.5740098 C65.4638696,29.3678663 66.5179812,30.2122601 67.1114364,31.1068402 C67.7041718,32.0021222 68.0003596,33.0398913 67.9999997,34.2197966" id="Fill-6" fill="#FF7828"/>
            <path d="M82.2570337,25.7134047 L82.2573777,25.4615679 C82.2577218,24.3056015 81.9278041,23.4756042 81.2683128,22.9719306 C80.6084774,22.4686117 79.582258,22.2167749 78.1903426,22.2160655 C77.2315516,22.2157108 76.4268828,22.2529542 75.776336,22.3270865 L75.7735839,28.9823173 C76.6415529,29.0383599 77.4462217,29.0670905 78.1875904,29.0674452 C79.6156282,29.0677999 80.6511362,28.7932624 81.2930824,28.2434778 C81.9350286,27.6940479 82.2566897,26.8502173 82.2570337,25.7134047 Z M85.9996556,25.7144688 C85.9993115,26.9076787 85.7911779,27.9423377 85.3749105,28.818446 C84.9582992,29.6949091 84.3799972,30.3748684 83.6386285,30.8590335 C82.8969158,31.343908 82.078486,31.697189 81.1836832,31.9206498 C80.2885364,32.1441106 79.2891508,32.2554863 78.1865584,32.2551316 C77.9694801,32.2551316 77.7159354,32.2508752 77.4269565,32.2405889 C77.1372894,32.2317214 76.8211327,32.2125677 76.4777981,32.1845464 C76.1337755,32.1565251 75.8988081,32.1423371 75.7725518,32.1423371 L75.7701436,39.4409932 C75.7697996,39.5903218 75.7195723,39.7204966 75.6201498,39.8325817 C75.5207273,39.9443121 75.3985992,40 75.2544538,40 L72.5418356,39.9985812 C72.3970021,39.9985812 72.2707458,39.9425386 72.1623787,39.8308082 C72.0536675,39.7187231 72,39.588903 72,39.4392197 L72,20.1999523 C72.000344,19.7342315 72.2962035,19.4547282 72.8751935,19.3614421 C74.4119424,19.1198916 76.1843468,18.9992937 78.1913747,19.0000031 C79.2939671,19.0007125 80.2933527,19.1085412 81.1884995,19.3224252 C82.0836463,19.5377279 82.901044,19.8828507 83.6424127,20.358503 C84.3834374,20.8341554 84.9617394,21.5056019 85.3776627,22.372488 C85.792898,23.2393742 86.0003436,24.2701315 85.9999996,25.4629867 L85.9996556,25.7144688 Z" id="Fill-8" fill="#FF7828"/>
            <path d="M93.0423716,31.0212279 L95.0586235,22.7183994 C95.1334571,22.4205019 95.2827697,22.2708439 95.5065612,22.2708439 C95.7303528,22.2708439 95.8793107,22.4205019 95.953435,22.7183994 L97.9636576,31.0233557 L93.0423716,31.0212279 Z M103.972336,39.4687495 L103.972336,39.3850545 L99.3929443,21.8530781 C98.9091857,19.9518538 97.6139612,19.000355 95.5076252,19.0000004 C93.4009346,18.9992911 92.1053554,19.9490167 91.6198235,21.850241 L87.0283729,39.378671 L87.0283729,39.4627206 L87,39.5187537 C87,39.8354471 87.167755,39.9943258 87.503265,39.9943258 L90.4664636,39.9953897 C90.745937,39.9953897 90.9232679,39.8372203 90.9977469,39.5201723 L92.2862329,34.208731 L98.7176684,34.2108588 L100.001544,39.5237187 C100.075668,39.8407667 100.253354,39.9989361 100.532827,39.9989361 L103.496735,40 C103.832245,40 104,39.8421853 104,39.5251372 L103.972336,39.4687495 Z" id="Fill-10" fill="#FF7828"/>
            <path d="M118.505145,25.5719663 L118.505497,25.3201805 C118.505849,24.2768654 118.163371,23.5165433 117.478414,23.0409874 C116.793104,22.5654314 115.746642,22.3274761 114.340084,22.3271215 C113.3581,22.3267669 112.533967,22.3636482 111.867684,22.4377654 L111.864865,28.7285087 C112.75383,28.7848945 113.577611,28.8132647 114.337265,28.8136194 C115.799846,28.813974 116.86005,28.5724724 117.517876,28.0876962 C118.175351,27.6036292 118.504792,26.7649343 118.505145,25.5719663 M123,39.6645221 C123,39.8879376 122.888659,40 122.666682,40 L119.277483,39.9985815 C119.09215,39.9985815 118.906817,39.8120472 118.722541,39.4393334 L114.724844,31.9726442 L114.336208,31.9726442 C114.113879,31.9726442 113.854201,31.968034 113.557879,31.9584591 C113.261558,31.9492387 112.937754,31.9304435 112.586114,31.9024279 C112.23377,31.8740576 111.993119,31.8598725 111.863808,31.8595179 L111.861342,39.4364964 C111.86099,39.5857947 111.809547,39.7159431 111.70772,39.8276509 C111.605892,39.9397133 111.48081,39.9957445 111.332826,39.9953898 L108.554944,39.9946806 C108.406607,39.9946806 108.277297,39.9386494 108.166308,39.826587 C108.054967,39.7148792 107.999649,39.5847308 108.000002,39.4354325 L108.007049,20.1997091 C108.007049,19.7340827 108.30337,19.454636 108.896365,19.3610142 C110.469935,19.1202219 112.285564,18.9992938 114.341141,19.0000031 C115.470404,19.0007124 116.493964,19.1081646 117.410764,19.3227144 C118.327211,19.5372643 119.164381,19.8823172 119.924035,20.3582277 C120.682984,20.8337837 121.275275,21.4909091 121.701259,22.3296039 C122.126539,23.1686534 122.339002,24.1662215 122.33865,25.321599 L122.338298,25.5733848 C122.337593,28.3877113 121.086771,30.2888712 118.586536,31.2754458 L122.944682,39.4407519 C122.981678,39.4967831 123,39.5716096 123,39.6645221" id="Fill-12" fill="#FF7828"/>
            <path d="M141.992604,39.7455481 C141.992604,39.9156612 141.853493,40 141.575976,40 L137.855208,39.9985644 C137.559025,39.9985644 137.346309,39.8948457 137.21706,39.6874081 L130.862346,30.0361794 L130.858824,39.4300851 C130.858472,39.5811772 130.802828,39.7128892 130.691892,39.826298 C130.580955,39.9393478 130.451001,39.9956933 130.303086,39.9956933 L127.554683,39.9946167 C127.406416,39.9946167 127.277166,39.9379123 127.165878,39.8248624 C127.054942,39.7110948 126.999649,39.5797416 127.000002,39.4282907 L127.007045,19.537256 C127.007045,19.3868818 127.062689,19.2594764 127.173978,19.1561165 C127.284914,19.0523977 127.414164,19 127.562431,19 L130.311186,19.0010767 C130.458749,19.0010767 130.589055,19.0538333 130.69964,19.1571932 C130.810928,19.2612708 130.86622,19.3883173 130.86622,19.5386916 L130.862698,28.5371022 L137.668905,19.2304064 C137.780194,19.0800321 137.99291,19.0043067 138.307757,19.0043067 L141.472788,19.0053833 C141.824262,19.0057422 142.000352,19.1187921 141.999999,19.3452507 C141.999999,19.4773217 141.934846,19.6280548 141.805949,19.7978091 L134.694051,29.1608504 L141.853845,39.4060396 C141.945764,39.5571316 141.992604,39.6701815 141.992604,39.7455481" id="Fill-14" fill="#FF7828"/>
            <path d="M161.257034,25.7131634 L161.257378,25.4613223 C161.257722,24.3056911 160.927805,23.4756798 160.267969,22.9719977 C159.608134,22.4686703 158.582259,22.2164745 157.189999,22.2157651 C156.231553,22.2154104 155.426884,22.2522998 154.776337,22.326788 L154.773585,28.9824859 C155.641554,29.0385294 156.445879,29.0669059 157.187591,29.0672606 C158.615629,29.0676153 159.650793,28.7934278 160.293083,28.2436339 C160.935029,27.6938401 161.25669,26.8503499 161.257034,25.7131634 Z M164.999656,25.7142275 C164.999312,26.9074575 164.791178,27.9421341 164.374911,28.8186119 C163.958299,29.694735 163.379997,30.3750605 162.638285,30.8592338 C161.896572,31.3437618 161.078486,31.6974034 160.18334,31.920868 C159.288537,32.1443326 158.289152,32.2557102 157.186559,32.2553555 C156.969481,32.2553555 156.715936,32.2507443 156.426613,32.2408126 C156.13729,32.2319449 155.82079,32.2127908 155.477799,32.1847691 C155.133777,32.1567473 154.898809,32.1422044 154.772553,32.1422044 L154.770145,39.4409838 C154.769457,39.5906696 154.719574,39.7204919 154.620151,39.8325789 C154.520728,39.9443112 154.3986,40 154.254111,40 L151.541837,39.9989359 C151.397004,39.9989359 151.270747,39.9428924 151.162036,39.8311601 C151.053669,39.7190731 150.999658,39.5888961 151.000002,39.439565 L151.006882,20.1996178 C151.006882,19.7342439 151.296205,19.4547358 151.875195,19.3610935 C153.4116,19.1198936 155.184004,18.9992937 157.191376,19.0000031 C158.293624,19.0003578 159.293353,19.1081884 160.1885,19.3224306 C161.083303,19.537737 161.9007,19.8828656 162.642413,20.3581713 C163.383438,20.8338316 163.961395,21.5052895 164.377663,22.372545 C164.792898,23.2394458 165.000344,24.2702206 165,25.4630959 L164.999656,25.7142275 Z" id="Fill-16" fill="#FF7828"/>
            <path d="M181.069244,31.369146 L181.070312,27.6336607 C181.071024,25.826632 180.739575,24.4933825 180.075608,23.6353158 C179.411285,22.7776001 178.387032,22.3483913 177.002848,22.3476894 C175.617952,22.3473385 174.592987,22.7754944 173.928308,23.6328592 C173.264341,24.4909258 172.931468,25.8234735 172.930756,27.6308531 L172.929688,31.3659874 C172.92862,33.174069 173.260069,34.5066166 173.924036,35.3646833 C174.587647,36.222399 175.612256,36.6519587 176.997152,36.6523097 C178.381336,36.6530116 179.406301,36.2245047 180.07098,35.3671399 C180.735303,34.5097752 181.068532,33.1768765 181.069244,31.369146 Z M184.998931,31.3705497 C184.997507,34.2855197 184.275866,36.4522696 182.834719,37.8718523 C181.393217,39.2917859 179.446887,40.0014017 176.996084,39.9999979 C174.544569,39.999296 172.598594,39.2882764 171.158516,37.8679918 C169.718082,36.4470054 168.998933,34.2792027 169.000001,31.3642327 L169.001069,27.6294493 C169.002137,24.7151813 169.723422,22.5484314 171.164925,21.1281468 C172.606071,19.7082132 174.552401,18.9989483 177.004272,19.0000012 C179.455075,19.001054 181.400338,19.7117227 182.841484,21.1323582 C184.281206,22.5536956 185.001067,24.7214983 184.999999,27.6354155 L184.998931,31.3705497 Z" id="Fill-18" fill="#FF7828"/>
            <path d="M200.069244,31.3689395 L200.070312,27.6338674 C200.071024,25.8265178 199.739575,24.4936413 199.075608,23.635589 C198.411285,22.7778875 197.387388,22.3486859 196.003204,22.347984 C194.617952,22.3476331 193.592987,22.7761328 192.928664,23.6331324 C192.264341,24.4908338 191.931468,25.8237103 191.930756,27.6310598 L191.929688,31.366132 C191.928976,33.1741834 192.260069,34.5067089 192.924036,35.3647613 C193.588003,36.2228137 194.612256,36.6520153 195.997152,36.6523663 C197.381692,36.6530682 198.406657,36.2242175 199.07098,35.366867 C199.735659,34.5095165 200.068532,33.176991 200.069244,31.3689395 Z M203.998931,31.3706942 C203.997863,34.2856157 203.275866,36.4523295 201.835075,37.8715376 C200.393217,39.2917985 198.447243,40.0010517 195.99644,39.9999988 C193.544569,39.9992969 191.59895,39.2882891 190.158872,37.8676773 C188.718082,36.4470654 187.998933,34.2792987 188.000001,31.3643773 L188.001425,27.6296561 C188.002137,24.7154365 188.723422,22.5487226 190.165281,21.1284617 C191.606071,19.7089027 193.552401,18.9992986 196.004272,19.0000005 C198.455075,19.0014043 200.400694,19.7120612 201.841484,21.132673 C203.281206,22.5539868 204.001067,24.7217534 203.999999,27.6352711 L203.998931,31.3706942 Z" id="Fill-20" fill="#FF7828"/>
            <path d="M219.999277,39.0229644 C219.999277,39.2095049 219.960588,39.3446227 219.885019,39.4286724 C219.808726,39.5123674 219.656864,39.5730108 219.429071,39.6098933 C218.288297,39.8709082 216.673136,40.0007064 214.582862,39.9999971 C213.575149,39.9996425 212.705558,39.9194939 211.97445,39.7609699 C211.24262,39.6024459 210.558155,39.3229897 209.922143,38.9215374 C209.285407,38.5204398 208.805956,37.9331562 208.48343,37.1600414 C208.160181,36.3862173 207.999279,35.4219516 208.000002,34.2658258 L208.005788,19.5589124 C208.005788,19.4099636 208.062917,19.2794562 208.176813,19.1677446 C208.291071,19.0556785 208.423408,19 208.575994,19 L211.398097,19.0010639 C211.54996,19.0010639 211.683381,19.057097 211.796916,19.1691632 C211.911174,19.2808747 211.967942,19.4113822 211.967942,19.5603309 L211.962518,34.2672444 C211.962157,35.1807966 212.123058,35.809573 212.446307,36.1546375 C212.768472,36.5000567 213.348079,36.672057 214.184767,36.6724117 L219.430156,36.6745395 C219.581656,36.6745395 219.715078,36.7305726 219.829336,36.8426388 C219.943233,36.9543503 220,37.0848578 220,37.2338065 L219.999277,39.0229644 Z" id="Fill-22" fill="#FF7828"/>
        </g>
    </g>
</svg>