<svg xmlns="http://www.w3.org/2000/svg" width="161" height="76" viewBox="0 0 161 76">
  <defs>
    <linearGradient id="dfinity-logo-a" x1="26.031%" x2="93.176%" y1="22.332%" y2="78.932%">
      <stop offset="21%" stop-color="#F15A24"/>
      <stop offset="68.41%" stop-color="#FBB03B"/>
    </linearGradient>
    <linearGradient id="dfinity-logo-b" x1="73.914%" x2="6.769%" y1="77.639%" y2="21.038%">
      <stop offset="21%" stop-color="#ED1E79"/>
      <stop offset="89.29%" stop-color="#522785"/>
    </linearGradient>
  </defs>
  <g fill="none" transform="translate(.5)">
    <rect width="160" height="76"/>
    <rect width="160" height="75.528"/>
    <rect width="160" height="15.73" y="59.798"/>
    <path fill="#000" d="M5.20183,59.8428 L1.13653,59.8428 C0.437129,59.8428 0,60.2821 0,60.9851 L0,74.386 C0,75.089 0.437129,75.5284 1.13653,75.5284 L5.24554,75.5284 C9.96653,75.5284 13.245,72.321 13.245,67.7075 C13.2013,63.0941 9.92282,59.8428 5.20183,59.8428 Z M10.1851,67.6636 C10.1851,70.7392 8.13059,72.8921 5.15812,72.8921 L2.97247,72.8921 L2.97247,62.3911 L5.15812,62.3911 C8.13059,62.4351 10.1851,64.588 10.1851,67.6636 Z"/>
    <path fill="#000" d="M36.0195,59.8423 L28.0638,59.8423 C27.3644,59.8423 26.9272,60.2817 26.9272,60.9847 L26.9272,74.3855 C26.9272,75.0885 27.3644,75.5279 28.0638,75.5279 L28.7632,75.5279 C29.4626,75.5279 29.8997,75.0885 29.8997,74.3855 L29.8997,69.113 L35.1016,69.113 C35.801,69.113 36.2381,68.6297 36.2381,67.9707 L36.2381,67.6631 C36.2381,66.9601 35.801,66.5207 35.1016,66.5207 L29.8997,66.5207 L29.8997,62.3906 L36.0195,62.3906 C36.7189,62.3906 37.1561,61.9513 37.1561,61.2483 L37.1561,60.9407 C37.1561,60.2817 36.7189,59.8423 36.0195,59.8423 Z"/>
    <path fill="#000" d="M55.8213,59.8423 L55.1219,59.8423 C54.4225,59.8423 53.9854,60.2817 53.9854,60.9847 L53.9854,74.3855 C53.9854,75.0885 54.4225,75.5279 55.1219,75.5279 L55.8213,75.5279 C56.5207,75.5279 56.9578,75.0885 56.9578,74.3855 L56.9578,60.9847 C56.9578,60.2817 56.5207,59.8423 55.8213,59.8423 Z"/>
    <path fill="#000" d="M85.0653,59.8423 L84.3659,59.8423 C83.6665,59.8423 83.2294,60.2817 83.2294,60.9847 L83.2294,69.9039 L76.279,60.4574 C75.973,60.018 75.5796,59.8423 75.0551,59.8423 L74.7491,59.8423 C74.0497,59.8423 73.6125,60.2817 73.6125,60.9847 L73.6125,74.3855 C73.6125,75.0885 74.0497,75.5279 74.7491,75.5279 L75.4485,75.5279 C76.1479,75.5279 76.585,75.0885 76.585,74.3855 L76.585,65.4223 L83.5354,74.9128 C83.8414,75.3521 84.2348,75.5279 84.7593,75.5279 L85.0653,75.5279 C85.7647,75.5279 86.2019,75.0885 86.2019,74.3855 L86.2019,60.9847 C86.2019,60.2817 85.7647,59.8423 85.0653,59.8423 Z"/>
    <path fill="#000" d="M104.692,59.8423 L103.993,59.8423 C103.294,59.8423 102.856,60.2817 102.856,60.9847 L102.856,74.3855 C102.856,75.0885 103.294,75.5279 103.993,75.5279 L104.692,75.5279 C105.392,75.5279 105.829,75.0885 105.829,74.3855 L105.829,60.9847 C105.829,60.2817 105.348,59.8423 104.692,59.8423 Z"/>
    <path fill="#000" d="M132.975,59.8423 L122.483,59.8423 C121.828,59.8423 121.347,60.2817 121.347,60.9847 L121.347,61.2922 C121.347,61.9513 121.784,62.4346 122.483,62.4346 L126.243,62.4346 L126.243,74.3855 C126.243,75.0885 126.68,75.5279 127.379,75.5279 L128.079,75.5279 C128.778,75.5279 129.215,75.0885 129.215,74.3855 L129.215,62.4346 L132.975,62.4346 C133.674,62.4346 134.111,61.9952 134.111,61.2922 L134.111,60.9847 C134.111,60.2817 133.674,59.8423 132.975,59.8423 Z"/>
    <path fill="#000" d="M159.902,60.3256 C159.727,60.018 159.421,59.8423 158.984,59.8423 L158.066,59.8423 C157.497,59.8423 157.104,60.062 156.842,60.5013 L153.17,66.345 L149.542,60.5013 C149.279,60.018 148.886,59.7983 148.318,59.7983 L147.4,59.7983 C146.963,59.7983 146.613,59.9741 146.482,60.2816 C146.394,60.4574 146.307,60.8089 146.613,61.3361 L151.727,69.0691 L151.727,74.3416 C151.727,75.0446 152.165,75.4839 152.864,75.4839 L153.563,75.4839 C154.263,75.4839 154.7,75.0446 154.7,74.3416 L154.7,69.0691 L159.771,61.3361 C160.12,60.8528 159.989,60.5013 159.902,60.3256 Z"/>
    <rect width="103.294" height="50.66" x="26.184"/>
    <rect width="58.444" height="50.616" x="71.034"/>
    <rect width="58.444" height="50.616" x="71.034"/>
    <path fill="url(#dfinity-logo-a)" d="M104.387,0 C98.6164,0 92.3218,3.07561 85.6774,9.13894 C82.5301,11.9949 79.7762,15.0705 77.7654,17.531 C77.7654,17.531 81.0001,21.1777 84.5409,25.0882 C86.4642,22.7155 89.2182,19.5081 92.4092,16.6083 C98.3104,11.204 102.157,10.1056 104.387,10.1056 C112.692,10.1056 119.424,16.9158 119.424,25.3518 C119.424,33.6999 112.692,40.5101 104.387,40.598 C103.993,40.598 103.512,40.5541 102.944,40.4223 C105.348,41.5207 107.971,42.3116 110.419,42.3116 C125.631,42.3116 128.603,32.0302 128.778,31.2833 C129.215,29.394 129.478,27.4168 129.478,25.3957 C129.434,11.3797 118.2,0 104.387,0 Z"/>
    <path fill="#29ABE2" d="M110.375,41.9599 C102.594,41.7402 94.5075,35.3693 92.8464,33.7875 C88.5625,29.7014 84.541,25.044 84.541,25.044 C81.0002,21.1336 77.7655,17.4868 77.7655,17.4868 C76.6289,18.8489 71.0337,25.3076 71.0337,25.3076 C71.0337,25.3076 74.793,29.3499 75.099,29.7014 C82.4427,38.6646 93.5021,50.6155 104.43,50.6155 C116.233,50.5715 126.156,42.2674 128.778,31.1513 C128.56,31.9422 124.626,42.3553 110.375,41.9599 Z"/>
    <rect width="58.444" height="50.66" x="26.184"/>
    <rect width="58.444" height="50.66" x="26.184"/>
    <path fill="url(#dfinity-logo-b)" d="M51.2753,50.6597 C57.0454,50.6597 63.34,47.5841 69.9844,41.5208 C73.1317,38.6648 75.8856,35.5892 77.8964,33.1287 C77.8964,33.1287 74.6616,29.482 71.1209,25.5715 C69.1975,27.9442 66.4436,31.1516 63.2526,34.0514 C57.3514,39.4118 53.4609,40.5541 51.2753,40.5541 C42.9698,40.5541 36.238,33.7439 36.238,25.3079 C36.238,16.9598 42.9698,10.1496 51.2753,10.0617 C51.6687,10.0617 52.1495,10.1056 52.7178,10.2374 C50.3136,9.13901 47.6908,8.34814 45.2429,8.34814 C30.0308,8.34814 27.0583,18.6295 26.8835,19.3764 C26.4464,21.2657 26.1841,23.2429 26.1841,25.264 C26.1841,39.28 37.4183,50.6597 51.2753,50.6597 Z"/>
    <path fill="#29ABE2" d="M45.2429,8.56776 C53.0238,8.78745 61.1544,15.2462 62.8155,16.828 C67.0994,20.9141 71.1209,25.5715 71.1209,25.5715 C74.6617,29.4819 77.8964,33.1287 77.8964,33.1287 C79.033,31.7666 84.6282,25.3078 84.6282,25.3078 C84.6282,25.3078 80.8689,21.2656 80.5629,20.9141 C73.2629,11.9509 62.2035,0 51.2753,0 C39.4728,0.0439372 29.55,8.34807 26.9272,19.4642 C27.0584,18.7173 30.9488,8.21626 45.2429,8.56776 Z"/>
  </g>
</svg>
