<svg id="Layer_1" data-name="Layer 1" xmlns="http://www.w3.org/2000/svg" viewBox="0 0 935 178.97"><defs><style>.cls-1{fill:#4a4f54}</style></defs><g id="SALT-logo-TM"><path class="cls-1" d="M0 150.07c14.52 15.85 37 27.1 67.58 27.1 47.52 0 64.94-25.31 64.94-50.12 0-63.67-104.27-41.68-104.27-80 0-16.11 15-27.11 36.16-27.11 19.27 0 37.76 6.4 51 20.46l13.2-15.59C113.78 9.68 92.92 1 66 1 31.42 1 5.54 20.16 5.54 48.29c0 60.86 104.28 36.57 104.28 80.56 0 13-10 29.4-41.44 29.4A75.42 75.42 0 0 1 12.94 134L0 150.07m647.37 26.4V159h-82.54V1.39h-22.51v175.08zM820 179V21.4h57.52v-20H742.41v20h57.53V179zm-544.8-22.54h102.47l-51.23-107.8zm135.12 20H242.56L326.44 0z" id="SALT-logo"/><path class="cls-1" d="M902.48 21.4V3.89h-5v-2.5h15v2.5h-5V21.4zM915 21.4v-20h6.16l3.68 13.27 3.65-13.27H935v20h-5V5.13l-3.21 16.27h-3.95L920 5.13V21.4z"/></g></svg>