<?xml version="1.0" encoding="UTF-8" standalone="no"?>
<!-- Created with Inkscape (http://www.inkscape.org/) -->

<svg
   xmlns:dc="http://purl.org/dc/elements/1.1/"
   xmlns:cc="http://creativecommons.org/ns#"
   xmlns:rdf="http://www.w3.org/1999/02/22-rdf-syntax-ns#"
   xmlns:svg="http://www.w3.org/2000/svg"
   xmlns="http://www.w3.org/2000/svg"
   xmlns:sodipodi="http://sodipodi.sourceforge.net/DTD/sodipodi-0.dtd"
   xmlns:inkscape="http://www.inkscape.org/namespaces/inkscape"
   width="126.52515mm"
   height="113.3727mm"
   viewBox="0 0 126.52515 113.3727"
   version="1.1"
   id="svg4018"
   inkscape:version="0.92.4 (5da689c313, 2019-01-14)"
   sodipodi:docname="logo-rustconasia-white.svg">
  <defs
     id="defs4012" />
  <sodipodi:namedview
     id="base"
     pagecolor="#ffffff"
     bordercolor="#666666"
     borderopacity="1.0"
     inkscape:pageopacity="0.0"
     inkscape:pageshadow="2"
     inkscape:zoom="2.8"
     inkscape:cx="500.36817"
     inkscape:cy="235.86696"
     inkscape:document-units="mm"
     inkscape:current-layer="layer1"
     showgrid="false"
     fit-margin-top="5"
     fit-margin-left="5"
     fit-margin-bottom="5"
     fit-margin-right="5"
     inkscape:window-width="2560"
     inkscape:window-height="1330"
     inkscape:window-x="-12"
     inkscape:window-y="-12"
     inkscape:window-maximized="1" />
  <metadata
     id="metadata4015">
    <rdf:RDF>
      <cc:Work
         rdf:about="">
        <dc:format>image/svg+xml</dc:format>
        <dc:type
           rdf:resource="http://purl.org/dc/dcmitype/StillImage" />
        <dc:title></dc:title>
      </cc:Work>
    </rdf:RDF>
  </metadata>
  <g
     inkscape:label="Layer 1"
     inkscape:groupmode="layer"
     id="layer1"
     transform="translate(559.92329,217.03754)">
    <g
       transform="matrix(0.26458333,0,0,0.26458333,-100.30563,-252.48704)"
       id="g124"
       style="fill:#ffffff">
      <path
         inkscape:connector-curvature="0"
         id="XMLID_2_"
         d="m -1335.24,239.7 c -0.99,-1.97 -2.96,-2.96 -4.93,-2.96 l -19.74,0.99 c -0.98,-0.99 -1.97,-2.96 -2.96,-3.94 l 3.95,-18.75 c 0,-1.97 0,-3.95 -1.97,-4.93 -0.99,-0.99 -2.96,-1.98 -4.93,-1.98 l -18.75,3.95 c -0.99,-0.99 -1.97,-1.97 -3.95,-2.96 l 0.99,-19.73 c 0,-1.98 -0.99,-3.95 -2.96,-4.93 -1.97,-0.99 -3.94,-0.99 -5.92,0 l -17.76,7.89 c -0.98,-0.99 -2.96,-1.98 -3.94,-1.98 l -2.96,-18.75 c 0,-1.97 -1.97,-3.94 -2.96,-3.94 -1.97,-0.99 -3.94,-0.99 -5.92,0.99 l -15.79,10.84 c -1.97,-0.98 -2.96,-0.98 -4.93,-0.98 l -6.9,-17.76 c -0.99,-1.98 -1.97,-2.96 -3.95,-3.95 -1.97,0 -3.94,0 -4.93,1.97 l -12.83,13.82 h -4.93 l -9.86,-16.77 c -0.99,-1.98 -2.96,-2.96 -4.93,-2.96 -1.97,0 -3.95,0.98 -4.93,2.96 l -9.86,16.77 h -4.94 l -12.83,-13.82 c -0.98,-0.98 -2.96,-1.97 -4.93,-1.97 -1.97,0 -3.94,1.97 -3.94,3.95 l -6.91,17.76 c -1.97,0 -2.95,0.98 -4.93,0.98 l -15.79,-10.84 c -1.97,-0.99 -3.94,-0.99 -5.91,-0.99 -1.98,0.99 -2.96,1.97 -2.96,3.94 l -2.96,18.75 c -0.99,0.99 -2.96,1.98 -3.95,1.98 l -17.76,-7.89 c -1.97,-0.99 -3.94,-0.99 -5.91,0 -1.98,0.98 -2.96,2.95 -2.96,4.93 l 0.98,19.73 c -0.98,0.99 -2.96,1.97 -3.94,2.96 l -18.75,-3.95 c -1.97,0 -3.94,0 -4.93,1.98 -0.99,0.98 -1.97,2.96 -1.97,4.93 l 4.93,18.75 c -0.99,0.98 -1.97,1.97 -2.96,3.94 l -19.73,-0.99 c -1.98,0 -3.95,0.99 -4.94,2.96 -0.98,1.98 -0.98,3.95 0,5.92 l 1.01,2.28 h 56.05 c 23.42,-23.32 54.99,-38.38 78.12,-40.76 l 17.77,18.75 c 3.94,3.94 10.84,3.94 14.8,0 l 19.73,-18.75 c 29.91,5.56 56.39,19.95 76.32,40.76 h 61.8 l 1.01,-2.28 c 0.91,-1.97 0.91,-3.94 -0.07,-5.92 z m -156.88,-32.56 c -4.93,4.93 -11.84,3.94 -16.77,0 -4.93,-4.93 -4.93,-12.83 0,-16.78 4.93,-4.93 11.84,-3.94 16.77,0 3.95,4.93 3.95,11.85 0,16.78 z m 157.86,243.71 -1.01,-2.28 h -62.82 c -0.1,0.11 -0.2,0.2 -0.3,0.31 l -1.11,-0.31 h -36.07 c -0.13,0.42 -0.23,0.85 -0.31,1.3 l -0.49,2.28 -5.43,25.34 c -17.76,7.89 -38.48,12.83 -59.2,12.83 -21.71,0 -42.43,-4.93 -60.19,-12.83 l -5.43,-25.34 -0.49,-2.28 c -0.07,-0.45 -0.18,-0.87 -0.32,-1.3 h -93.4 l -1.01,2.28 c -0.98,1.97 -0.98,3.95 0,5.92 0.99,1.97 2.96,2.96 4.94,2.96 l 19.73,-0.99 c 0.99,0.99 1.97,2.96 2.96,3.95 l -3.95,18.74 c 0,1.98 0,3.95 1.98,4.93 0.98,0.99 2.95,1.98 4.93,1.98 l 18.74,-3.95 c 0.99,0.99 1.98,1.97 3.95,2.96 l -0.99,19.74 c 0,1.97 0.99,3.94 2.96,4.93 1.97,0.98 3.95,0.98 5.92,0 l 17.76,-7.89 c 0.99,0.98 2.96,1.97 3.95,1.97 l 2.95,18.75 c 0,1.97 1.98,3.94 2.96,3.94 1.98,0.99 3.95,0.99 5.92,-0.98 l 15.79,-10.86 c 1.97,0 2.96,0.98 4.93,0.98 l 6.9,17.76 c 0.99,1.98 1.98,2.96 3.95,3.95 1.97,0 3.94,0 4.93,-1.97 l 12.83,-13.82 h 4.93 l 9.86,16.78 c 0.99,1.97 2.96,2.95 4.93,2.95 1.98,0 3.95,-0.98 4.94,-2.95 l 9.86,-16.78 h 4.93 l 12.83,13.82 c 0.99,0.98 2.96,1.97 4.93,1.97 1.97,0 3.95,-1.97 3.95,-3.95 l 6.9,-17.76 c 1.97,0 2.96,-0.98 4.93,-0.98 l 15.79,10.86 c 1.97,0.98 3.94,0.98 5.92,0.98 1.97,-0.98 2.95,-1.97 2.95,-3.94 l 2.96,-18.75 c 0.99,-0.99 2.96,-1.97 3.95,-1.97 l 17.76,7.89 c 1.97,0.98 3.94,0.98 5.92,0 1.97,-0.99 2.96,-2.96 2.96,-4.93 l -0.99,-19.74 c 0.99,-0.99 2.96,-1.97 3.94,-2.96 l 18.75,3.95 c 1.97,0 3.95,0 4.93,-1.98 0.99,-0.98 1.98,-2.95 1.98,-4.93 l -3.95,-18.74 c 0.99,-0.99 1.97,-1.98 2.96,-3.95 l 19.73,0.99 c 1.98,0 3.95,-0.99 4.93,-2.96 1.05,-1.97 1.05,-3.95 0.06,-5.92 z m -250.61,28.61 c -5.92,0.99 -12.83,-2.96 -13.82,-8.87 -0.98,-5.92 2.96,-12.84 8.88,-13.82 5.91,-0.99 12.83,2.96 13.81,8.87 1.99,5.93 -1.97,12.84 -8.87,13.82 z m 181.55,-7.89 c -0.99,5.92 -6.9,9.86 -13.82,8.88 -5.91,-0.99 -9.86,-7.89 -8.87,-13.82 0.98,-5.92 7.89,-9.86 13.81,-8.88 5.92,0.99 9.87,7.9 8.88,13.82 z"
         style="fill:#ffffff" />
      <g
         id="g122"
         style="fill:#ffffff">
        <g
           id="g110"
           style="fill:#ffffff">
          <path
             inkscape:connector-curvature="0"
             d="m -1350.02,330.73 c -4.41,4.05 -10.78,6.07 -19.12,6.07 -8.34,0 -14.71,-2.02 -19.12,-6.07 -5.91,-4.96 -8.87,-12.11 -8.87,-21.45 0,-9.53 2.96,-16.68 8.87,-21.45 4.41,-4.05 10.78,-6.07 19.12,-6.07 8.34,0 14.71,2.02 19.12,6.07 5.89,4.78 8.83,11.93 8.83,21.45 0,9.34 -2.95,16.49 -8.83,21.45 z m -7.62,-7.9 c 2.84,-3.18 4.26,-7.69 4.26,-13.55 0,-5.83 -1.42,-10.34 -4.26,-13.53 -2.84,-3.19 -6.67,-4.78 -11.5,-4.78 -4.83,0 -8.68,1.59 -11.56,4.76 -2.88,3.18 -4.32,7.69 -4.32,13.55 0,5.86 1.44,10.37 4.32,13.55 2.88,3.18 6.73,4.76 11.56,4.76 4.83,0 8.66,-1.58 11.5,-4.76 z"
             id="path96"
             style="fill:#ffffff" />
          <path
             inkscape:connector-curvature="0"
             d="m -1663.7,326.39 c 0,-0.05 0,-0.09 0,-0.13 v -3.49 c 0,-3.65 -0.56,-6.36 -1.68,-8.13 -1.12,-1.78 -3.03,-3.15 -5.72,-4.11 3.22,-0.99 5.53,-2.68 6.93,-5.06 1.4,-2.39 2.1,-4.82 2.1,-7.29 0,-2.05 -0.36,-3.87 -1.08,-5.47 -0.72,-1.6 -1.7,-3.06 -2.93,-4.38 -1.49,-1.6 -3.31,-2.81 -5.46,-3.63 -2.15,-0.82 -5.22,-1.27 -9.21,-1.34 h -4.52 -23.39 -9.58 v 8.97 h 9.58 v 34.07 h -9.58 v 8.97 h 9.58 11.92 10.88 v -8.97 h -10.88 v -11.42 h 11.91 c 3.39,0 5.71,0.55 6.95,1.66 1.24,1.11 1.88,3.32 1.93,6.63 l 0.08,4.83 v 7.27 h 0.02 14.75 7.7 v -8.97 h -10.3 z m -14.07,-20.89 c -1.3,0.57 -3.26,0.85 -5.87,0.85 h -13.12 v -13.97 h 13.46 c 2.51,0 4.39,0.31 5.64,0.92 2.23,1.08 3.35,3.2 3.35,6.35 0,2.91 -1.15,4.87 -3.46,5.85 z"
             id="path98"
             style="fill:#ffffff" />
          <path
             inkscape:connector-curvature="0"
             d="m -1590.73,283.35 h -5.88 -12.39 -7.32 v 8.97 h 7.32 v 22.97 c 0,3.57 -0.47,6.18 -1.42,7.83 -1.47,2.92 -4.67,4.37 -9.58,4.37 -4.94,0 -8.15,-1.46 -9.63,-4.37 -0.95,-1.64 -1.42,-4.25 -1.42,-7.83 v -22.97 h 8.08 v -8.97 h -8.08 -12.39 -6.18 v 8.97 h 6.18 v 23 c 0,5.53 0.96,9.83 2.88,12.91 3.61,5.65 10.46,8.47 20.55,8.47 10.09,0 16.93,-2.82 20.51,-8.47 1.92,-3.08 2.88,-7.39 2.88,-12.91 v -23 h 5.88 v -8.97 z"
             id="path100"
             style="fill:#ffffff" />
          <path
             inkscape:connector-curvature="0"
             d="m -1538.69,309.53 c -2.24,-1.58 -5.6,-2.83 -10.09,-3.77 l -10.24,-2.15 c -3.95,-0.82 -6.53,-1.54 -7.75,-2.15 -1.89,-0.92 -2.84,-2.31 -2.84,-4.16 0,-2.02 0.96,-3.6 2.88,-4.73 1.92,-1.13 4.49,-1.69 7.71,-1.69 2.9,0 5.32,0.44 7.26,1.31 2.92,1.32 4.49,3.54 4.71,6.67 h 11.72 c -0.01,-0.18 -0.02,-0.36 -0.03,-0.55 v -15.84 h -10.06 v 1.97 c -3.71,-1.72 -7.95,-2.59 -12.74,-2.59 -7.45,0 -13.1,1.54 -16.95,4.62 -3.85,3.08 -5.77,6.95 -5.77,11.61 0,5.1 1.97,8.86 5.9,11.26 2.32,1.43 6.59,2.76 12.8,3.99 l 6.32,1.23 c 3.7,0.71 6.4,1.52 8.1,2.44 1.7,0.94 2.55,2.27 2.55,3.99 0,2.94 -1.74,4.95 -5.21,6.03 -1.83,0.56 -4.22,0.85 -7.15,0.85 -4.9,0 -8.37,-1.07 -10.39,-3.21 -1.1,-1.18 -1.85,-2.95 -2.22,-5.33 h -11.64 c 0,0 0,0 0,0 v 0 16.35 h 10.06 v -1.64 c 3.94,1.79 8.83,2.68 14.66,2.68 7.52,0 13.34,-1.57 17.47,-4.71 4.12,-3.14 6.18,-7.09 6.18,-11.84 -0.02,-4.66 -1.76,-8.2 -5.24,-10.64 z"
             id="path102"
             style="fill:#ffffff" />
          <polygon
             points="-1523.89,299.6 -1513.83,299.6 -1513.83,292.56 -1502.16,292.56 -1502.16,335.36 -1489.89,335.36 -1489.89,292.56 -1478.3,292.56 -1478.3,299.6 -1468.23,299.6 -1468.23,292.56 -1468.23,283.35 -1468.23,283.25 -1478.3,283.25 -1478.3,283.35 -1487.4,283.35 -1513.83,283.35 -1513.83,283.25 -1523.89,283.25 -1523.89,283.35 -1523.89,292.56 "
             id="polygon104"
             style="fill:#ffffff" />
          <path
             inkscape:connector-curvature="0"
             d="m -1408.49,282.71 h -10.06 v 3.07 c -4.04,-2.27 -9.12,-3.41 -15.24,-3.41 -7.26,0 -13.24,2.14 -17.94,6.42 -5.41,4.92 -8.11,11.92 -8.11,20.99 0,8.4 2.38,15.01 7.13,19.83 4.75,4.8 11.28,7.2 19.58,7.2 6.71,0 12.21,-1.78 16.51,-5.33 4.29,-3.55 6.96,-8.16 8.01,-13.83 h -12.11 c -0.8,2.68 -1.81,4.69 -3.02,6.03 -2.19,2.49 -5.38,3.74 -9.57,3.74 -4.08,0 -7.44,-1.45 -10.09,-4.36 -2.65,-2.91 -3.97,-7.27 -3.97,-13.11 0,-5.83 1.25,-10.34 3.76,-13.53 2.51,-3.19 5.93,-4.78 10.28,-4.78 4.26,0 7.48,1.13 9.66,3.39 1.21,1.27 2.21,3.15 2.99,5.65 h 12.19 c 0,0 0,-0.01 0,-0.01 v 0 z"
             id="path106"
             style="fill:#ffffff" />
          <polygon
             points="-1325.14,326.39 -1333.51,326.39 -1333.51,335.36 -1325.14,335.36 -1313.78,335.36 -1305.2,335.36 -1305.2,326.39 -1313.78,326.39 -1313.78,298.45 -1290.02,335.36 -1277.83,335.36 -1277.83,283.35 -1289.19,283.35 -1289.19,319.61 -1312.36,283.35 -1312.85,283.35 -1325.14,283.35 -1333.51,283.35 -1333.51,292.32 -1325.14,292.32 "
             id="polygon108"
             style="fill:#ffffff" />
        </g>
        <g
           id="g120"
           style="fill:#ffffff">
          <polygon
             points="-1491.68,404.4 -1491.68,413.37 -1475.48,413.37 -1463.36,413.37 -1447.16,413.37 -1447.16,404.4 -1463.36,404.4 -1463.36,370.33 -1447.16,370.33 -1447.16,361.36 -1463.36,361.36 -1475.48,361.36 -1491.68,361.36 -1491.68,370.33 -1475.48,370.33 -1475.48,404.4 "
             id="polygon112"
             style="fill:#ffffff" />
          <path
             inkscape:connector-curvature="0"
             d="m -1506.31,387.54 c -2.24,-1.58 -5.6,-2.83 -10.09,-3.77 l -10.24,-2.15 c -3.95,-0.82 -6.53,-1.54 -7.75,-2.15 -1.89,-0.92 -2.84,-2.31 -2.84,-4.16 0,-2.02 0.96,-3.6 2.88,-4.73 1.92,-1.13 4.49,-1.69 7.71,-1.69 2.89,0 5.32,0.44 7.26,1.31 2.92,1.32 4.49,3.54 4.71,6.67 h 11.72 c 0,0 0,0 0,0 V 360.5 h -10.06 v 1.95 c -3.72,-1.73 -7.97,-2.61 -12.78,-2.61 -7.45,0 -13.1,1.54 -16.95,4.62 -3.85,3.08 -5.77,6.95 -5.77,11.61 0,5.1 1.97,8.86 5.9,11.26 2.32,1.43 6.59,2.76 12.8,3.99 l 6.32,1.23 c 3.7,0.71 6.4,1.52 8.1,2.44 1.7,0.94 2.55,2.27 2.55,3.99 0,2.94 -1.74,4.95 -5.21,6.03 -1.83,0.56 -4.22,0.85 -7.15,0.85 -4.9,0 -8.37,-1.07 -10.39,-3.21 -1.1,-1.18 -1.85,-2.95 -2.22,-5.33 h -11.64 c 0,0 0,0 0,0 v 0 16.35 h 10.06 v -1.64 c 3.94,1.79 8.83,2.68 14.66,2.68 7.52,0 13.34,-1.57 17.47,-4.71 4.12,-3.14 6.18,-7.09 6.18,-11.84 -0.01,-4.63 -1.75,-8.17 -5.23,-10.62 z"
             id="path114"
             style="fill:#ffffff" />
          <path
             inkscape:connector-curvature="0"
             d="m -1557.85,404.4 h -9.85 l -17.08,-43.04 h -0.7 v 0 h -29.83 v 8.97 h 13.14 l -13.65,34.07 h -9.83 v 8.97 h 6.24 v 0 h 12.76 v 0 h 10.44 v -8.97 h -7.13 l 0.52,-1.4 0.12,-0.33 1.33,-3.6 0.47,-1.27 h 17.94 l 0.46,1.27 1.55,4.29 h -0.01 l 0.37,1.03 h -6.69 v 8.97 h 9.93 v 0 h 13.22 v 0 h 6.29 v -8.96 z m -28.34,-15.56 h -11.39 l 5.77,-15.59 z"
             id="path116"
             style="fill:#ffffff" />
          <path
             inkscape:connector-curvature="0"
             d="m -1370.45,404.4 h -9.85 l -17.08,-43.04 h -0.7 v 0 h -29.83 v 8.97 h 13.13 l -13.64,34.07 h -9.83 v 8.97 h 6.24 v 0 h 12.75 v 0 h 10.45 v -8.97 h -7.13 l 0.63,-1.72 h 0.01 l 1.8,-4.87 h 17.93 l 1.75,4.87 0.25,0.7 0.37,1.03 h -6.7 v 8.97 h 9.93 v 0 h 13.23 v 0 h 6.29 z m -28.34,-15.56 h -11.38 l 5.77,-15.59 z"
             id="path118"
             style="fill:#ffffff" />
        </g>
      </g>
    </g>
  </g>
</svg>
