<?xml version="1.0" encoding="utf-8"?>
<!-- Generator: Adobe Illustrator 23.0.2, SVG Export Plug-In . SVG Version: 6.00 Build 0)  -->
<svg version="1.1" id="Layer_1" xmlns="http://www.w3.org/2000/svg" xmlns:xlink="http://www.w3.org/1999/xlink" x="0px" y="0px"
	 viewBox="0 0 689.3 682.6" style="enable-background:new 0 0 689.3 682.6;" xml:space="preserve">
<style type="text/css">
	.st0{fill:#FFFFFF;}
	.st1{fill:#D8D8D8;}
	.st2{fill:#3CC68A;}
	.st3{fill:#424242;}
</style>
<g>
	<polygon class="st0" points="95.2,142 95.2,225.4 95.2,308.7 95.2,392.1 178.6,392.1 178.6,308.7 178.6,225.4 178.6,142 	"/>
	<polygon class="st0" points="508.4,308.7 508.4,392.1 508.4,475.5 508.4,558.8 591.8,558.8 591.8,475.5 591.8,392.1 591.8,308.7 	
		"/>
	<polygon class="st0" points="341.7,142 341.7,225.4 341.7,305.1 425.1,388.5 425.1,308.7 425.1,225.4 	"/>
	<polygon class="st0" points="261.9,312.3 261.9,392.1 261.9,475.5 345.3,558.8 345.3,475.5 345.3,395.7 	"/>
	<polygon class="st1" points="341.7,142 425.1,142 591.8,308.7 508.4,308.7 	"/>
	<polygon class="st1" points="95.2,392.1 178.6,392.1 345.3,558.8 261.9,558.8 	"/>
	<polygon class="st2" points="425.1,225.4 425.1,308.7 425.1,387.4 178.6,142 178.6,225.4 178.6,230.5 178.6,308.7 178.6,392.1 
		261.9,475.5 261.9,392.1 261.9,313.5 508.4,558.8 508.4,475.5 508.4,470.4 508.4,392.1 508.4,308.7 	"/>
</g>
</svg>
