<svg xmlns="http://www.w3.org/2000/svg" xmlns:xlink="http://www.w3.org/1999/xlink" width="392" height="72" viewBox="0 0 392 72">
  <defs>
    <polygon id="oasis-labs-logo-a" points=".06 0 391.175 0 391.175 71.94 .06 71.94"/>
  </defs>
  <g fill="none" fill-rule="evenodd">
    <mask id="oasis-labs-logo-b" fill="#fff">
      <use xlink:href="#oasis-labs-logo-a"/>
    </mask>
    <path fill="#DE4F35" d="M383.87,14.261 C378.42,7.288 370.42,2.875 361.573,2.875 C344.463,2.875 331.945,18.775 331.945,36 C331.945,48.008 339.914,56.994 348.779,56.994 C349.607,56.994 350.429,56.919 351.239,56.77 C345.302,52.44 341.503,44.553 341.503,36 C341.503,22.381 350.716,11.768 361.573,11.768 C373.414,11.768 381.648,23.527 381.648,36 C381.617,45.212 378.333,54.371 372.554,61.129 C367.51,67.028 360.977,70.769 353.794,71.956 C353.794,71.956 354.393,72 355.176,72 C375.058,72 391.175,55.882 391.175,36 C391.175,27.832 388.453,20.301 383.87,14.261 Z M378.406,36 C378.406,23.991 370.437,15.005 361.573,15.005 C360.744,15.005 359.923,15.08 359.112,15.23 C365.05,19.56 368.848,27.447 368.848,36 C368.848,49.619 359.636,60.232 348.779,60.232 C336.937,60.232 328.704,48.473 328.704,36 C328.734,26.788 332.019,17.629 337.797,10.871 C342.842,4.972 349.375,1.231 356.557,0.044 C356.557,0.044 355.959,0 355.176,0 C335.294,0 319.176,16.118 319.176,36 C319.176,44.167 321.898,51.698 326.482,57.74 C331.931,64.711 339.932,69.125 348.779,69.125 C365.889,69.125 378.406,53.225 378.406,36 L378.406,36 Z" mask="url(#oasis-labs-logo-b)"/>
    <path fill="#DE4F35" d="M212.098,43.635 L215.741,34.557 L219.385,43.635 L212.098,43.635 Z M214.699,22.574 L201.182,54.403 L207.775,54.404 L209.987,48.892 L221.495,48.892 L223.707,54.404 L230.301,54.404 L216.783,22.574 L214.699,22.574 Z M143.144,36.453 L139.591,34.889 C138.264,34.289 137.325,33.745 136.773,33.255 C136.22,32.765 135.945,32.11 135.945,31.289 C135.945,30.31 136.315,29.56 137.056,29.039 C137.798,28.519 138.722,28.258 139.827,28.258 C142.196,28.258 144.185,29.458 145.796,31.858 L150.154,28.494 C149.175,26.695 147.809,25.258 146.057,24.184 C144.304,23.111 142.227,22.573 139.827,22.573 C136.828,22.573 134.349,23.387 132.391,25.012 C130.433,26.639 129.455,28.778 129.455,31.432 C129.455,33.484 130.11,35.22 131.419,36.642 C132.731,38.062 134.601,39.325 137.033,40.431 L140.397,41.947 C141.407,42.421 142.141,42.783 142.599,43.035 C143.057,43.288 143.466,43.66 143.83,44.149 C144.193,44.638 144.375,45.2 144.375,45.831 C144.375,46.905 143.98,47.748 143.191,48.365 C142.402,48.981 141.311,49.289 139.922,49.289 C136.986,49.289 134.428,47.773 132.249,44.74 L127.844,48.057 C129.044,50.173 130.694,51.855 132.794,53.101 C134.893,54.349 137.27,54.972 139.922,54.972 C143.112,54.972 145.732,54.119 147.785,52.414 C149.837,50.709 150.864,48.435 150.864,45.594 C150.864,43.478 150.232,41.718 148.97,40.313 C147.706,38.907 145.765,37.62 143.144,36.453 Z M110.287,23.143 L110.287,48.011 C110.287,51.542 113.15,54.405 116.681,54.405 L116.681,29.536 C116.681,26.005 113.818,23.143 110.287,23.143 Z M294.269,40.312 C293.006,38.907 291.066,37.62 288.446,36.454 L284.895,34.89 C283.569,34.29 282.63,33.746 282.076,33.257 C281.524,32.768 281.248,32.112 281.248,31.291 C281.248,30.313 281.619,29.563 282.361,29.043 C283.103,28.521 284.027,28.262 285.131,28.262 C287.498,28.262 289.487,29.461 291.097,31.86 L295.453,28.498 C294.474,26.698 293.109,25.263 291.358,24.189 C289.606,23.115 287.53,22.579 285.131,22.579 C282.131,22.579 279.654,23.392 277.696,25.018 C275.739,26.643 274.761,28.782 274.761,31.434 C274.761,33.486 275.416,35.222 276.727,36.643 C278.037,38.062 279.907,39.324 282.337,40.431 L285.699,41.945 C286.709,42.42 287.444,42.782 287.901,43.034 C288.359,43.287 288.769,43.658 289.132,44.147 C289.495,44.637 289.676,45.197 289.676,45.828 C289.676,46.901 289.282,47.746 288.491,48.362 C287.703,48.976 286.614,49.284 285.225,49.284 C282.289,49.284 279.734,47.769 277.555,44.739 L273.152,48.054 C274.351,50.168 276,51.849 278.099,53.096 C280.199,54.343 282.574,54.967 285.225,54.967 C288.413,54.967 291.033,54.115 293.086,52.408 C295.138,50.704 296.163,48.432 296.163,45.592 C296.163,43.476 295.531,41.716 294.269,40.312 Z M256.562,47.864 C255.774,48.559 254.684,48.905 253.295,48.905 L246.003,48.905 L246.001,41.045 L253.295,41.045 C254.684,41.045 255.774,41.401 256.562,42.111 C257.351,42.822 257.744,43.776 257.744,44.975 C257.744,46.206 257.351,47.169 256.562,47.864 Z M246.003,28.64 L252.311,28.64 C253.699,28.64 254.788,28.988 255.577,29.682 C256.366,30.376 256.76,31.339 256.76,32.57 C256.76,33.769 256.366,34.725 255.577,35.434 C254.788,36.145 253.699,36.5 252.311,36.5 L246.001,36.5 L246.003,28.64 Z M260.378,38.413 C260.839,38.022 261.263,37.601 261.613,37.115 C262.576,35.79 263.059,34.196 263.059,32.334 C263.059,29.618 262.104,27.409 260.194,25.705 C258.283,24 255.814,23.147 252.783,23.147 L239.848,23.147 L239.848,54.399 L253.768,54.399 C256.798,54.399 259.268,53.546 261.178,51.842 C263.088,50.136 264.043,47.927 264.043,45.213 C264.043,43.351 263.563,41.756 262.598,40.43 C262.014,39.623 261.261,38.963 260.378,38.413 Z M179.043,23.147 L172.65,23.147 L172.65,54.399 L186.949,54.399 C190.14,54.399 192.727,51.812 192.727,48.621 L179.043,48.621 L179.043,23.147 Z M23.801,46.163 C21.89,48.089 19.499,49.052 16.625,49.052 C13.689,49.052 11.281,48.097 9.402,46.187 C7.523,44.276 6.583,41.805 6.583,38.773 C6.583,35.774 7.531,33.31 9.426,31.384 C11.32,29.457 13.72,28.494 16.625,28.494 C19.499,28.494 21.89,29.457 23.801,31.384 C25.712,33.31 26.667,35.774 26.667,38.773 C26.667,41.774 25.712,44.237 23.801,46.163 Z M16.577,22.573 C11.967,22.573 8.051,24.13 4.832,27.24 C1.609,30.35 0,34.195 0,38.773 C0,43.352 1.609,47.198 4.832,50.308 C8.051,53.418 11.967,54.973 16.577,54.973 C21.188,54.973 25.12,53.418 28.372,50.308 C31.624,47.198 33.251,43.352 33.251,38.773 C33.251,34.195 31.624,30.35 28.372,27.24 C25.12,24.13 21.188,22.573 16.577,22.573 Z M90.726,36.453 L87.174,34.889 C85.847,34.289 84.908,33.745 84.355,33.255 C83.802,32.765 83.527,32.11 83.527,31.289 C83.527,30.31 83.897,29.56 84.639,29.039 C85.382,28.519 86.305,28.258 87.41,28.258 C89.779,28.258 91.768,29.458 93.378,31.858 L97.736,28.494 C96.757,26.695 95.392,25.258 93.639,24.184 C91.886,23.111 89.81,22.573 87.41,22.573 C84.41,22.573 81.931,23.387 79.975,25.012 C78.015,26.639 77.037,28.778 77.037,31.432 C77.037,33.484 77.693,35.22 79.003,36.642 C80.314,38.062 82.184,39.325 84.616,40.431 L87.979,41.947 C88.989,42.421 89.723,42.783 90.181,43.035 C90.639,43.288 91.049,43.66 91.414,44.149 C91.776,44.638 91.957,45.2 91.957,45.831 C91.957,46.905 91.562,47.748 90.773,48.365 C89.984,48.981 88.895,49.289 87.505,49.289 C84.568,49.289 82.011,47.773 79.831,44.74 L75.426,48.057 C76.626,50.173 78.276,51.855 80.377,53.101 C82.477,54.349 84.852,54.972 87.505,54.972 C90.695,54.972 93.315,54.119 95.367,52.414 C97.42,50.709 98.447,48.435 98.447,45.594 C98.447,43.478 97.816,41.718 96.552,40.313 C95.289,38.907 93.347,37.62 90.726,36.453 Z M49.712,43.635 L53.356,34.557 L56.999,43.635 L49.712,43.635 Z M52.314,22.574 L38.796,54.403 L45.389,54.404 L47.601,48.892 L59.11,48.892 L61.322,54.404 L67.916,54.404 L54.398,22.574 L52.314,22.574 L52.314,22.574 Z" mask="url(#oasis-labs-logo-b)"/>
  </g>
</svg>