<?xml version="1.0" encoding="utf-8"?>
<!-- Generator: Adobe Illustrator 22.0.1, SVG Export Plug-In . SVG Version: 6.00 Build 0)  -->
<svg version="1.1" id="Layer_1" xmlns="http://www.w3.org/2000/svg" xmlns:xlink="http://www.w3.org/1999/xlink" x="0px" y="0px"
	 viewBox="0 0 1541 525" style="enable-background:new 0 0 1541 525;" xml:space="preserve">
<style type="text/css">
	.st0{fill:url(#XMLID_2_);}
	.st1{display:none;fill:#231F20;}
	.st2{font-family:'UniversFiftySevenBDI';}
	.st3{font-size:40.4849px;}
	.st4{display:none;}
	.st5{display:inline;}
	.st6{display:inline;fill:url(#XMLID_3_);}
</style>
<g>
	<circle id="XMLID_4_" cx="273.6" cy="262.5" r="257"/>
	
		<linearGradient id="XMLID_2_" gradientUnits="userSpaceOnUse" x1="415.0027" y1="801.082" x2="132.16" y2="1083.9247" gradientTransform="matrix(1 0 0 1 0 -680)">
		<stop  offset="0" style="stop-color:#FFD25C"/>
		<stop  offset="1" style="stop-color:#CD8421"/>
	</linearGradient>
	<circle id="XMLID_7_" class="st0" cx="273.6" cy="262.5" r="200"/>
	<path d="M369.9,325H263.4v-1c12.6-13.5,24-29,36.2-45.1l66.6-92.8v-45.6h-65.9V95.8H245v44.7h-60v60.3h97.4v1
		c-12.6,15-22.6,27-35.3,43.6l-69.8,96.8v43.5H245v43.5h55.3v-43.5h69.6V325z"/>
	<g>
		<path d="M809.1,306.3l0.6,1.2c0.6,26.1-8.1,47.8-25.5,64c-17.4,16.8-41.6,24.8-71.4,24.8c-30.4,0-55.3-9.9-73.9-30.4
			c-19.3-20.5-28.6-46.6-28.6-78.3V238c0-31.7,9.3-57.8,28-78.3s42.9-31.1,73.3-31.1c30.4,0,54.7,8.1,72.7,24.2
			c18,16.2,26.1,37.9,26.1,65.2l-0.6,1.2h-42.2c0-17.4-5-31.1-14.3-41s-23.6-14.9-41.6-14.9s-31.7,6.8-42.2,21.1
			c-10.6,14.3-15.5,31.7-15.5,52.8V287c0,21.1,5.6,39.1,16.2,53.4c10.6,14.3,24.8,21.1,42.9,21.1c18,0,31.7-5,41-14.3
			s13.7-23,13.7-41C767.5,306.3,809.1,306.3,809.1,306.3z"/>
		<path d="M993,331.8H891.1l-20.5,60.9h-44.1L922.2,133h41l94.4,259.6h-44.1L993,331.8z M903.5,295.1h77l-37.9-111.2h-1.2
			L903.5,295.1z"/>
		<path d="M1228.4,325.5c0-10.6-3.7-19.9-11.8-26.7c-8.1-6.8-22.4-13-42.9-18.6c-29.2-7.5-51.6-17.4-67.1-30.4
			c-15.5-12.4-23.6-29.2-23.6-49.1c0-21.1,8.7-37.9,26.1-51.6c17.4-13.7,39.8-20.5,67.1-20.5c28.6,0,51.6,7.5,68.9,23
			c17.4,15.5,25.5,34.2,24.8,55.3l-0.6,1.2h-41.6c0-13-4.3-24.2-13.7-32.3s-21.7-12.4-38.5-12.4c-15.5,0-28,3.7-36.6,10.6
			c-8.7,6.8-13,15.5-13,26.7c0,9.9,4.3,18,13.7,24.8c9.3,6.8,24.2,12.4,46,18.6c28,7.5,49.1,18,64,31.1c14.9,13,21.7,29.8,21.7,50.3
			c0,21.7-8.7,39.1-26.1,51.6c-17.4,13-40.4,19.3-68.3,19.3c-27.3,0-50.9-7.5-71.4-21.7c-20.5-14.3-30.4-34.2-29.8-59l0.6-1.2h41.6
			c0,15.5,5.6,27.3,16.2,35.4c11.2,8.1,25.5,11.8,42.9,11.8c16.2,0,28.6-3.1,37.3-9.9C1224,344.8,1228.4,336.1,1228.4,325.5z"/>
		<path d="M1520.3,392h-43.5V281.4h-116.2V392h-43.5V132.4h43.5v114.3h116.2V132.4h43.5V392z"/>
	</g>
	<text transform="matrix(1 0 0 1 1539.2288 161.828)" class="st1 st2 st3">TM</text>
</g>
<g>
	
		<text transform="matrix(1 0 0 1 659.2261 1380.6057)" style="display:none;fill:#58595B; font-family:'UniversFiftyEightBDI'; font-size:46.3758px;">ACCEPTED HERE</text>
	<g class="st4">
		<circle id="XMLID_12_" class="st5" cx="343.7" cy="1259" r="126"/>
		
			<linearGradient id="XMLID_3_" gradientUnits="userSpaceOnUse" x1="413.0096" y1="1869.6702" x2="274.3433" y2="2008.3364" gradientTransform="matrix(1 0 0 1 0 -680)">
			<stop  offset="0" style="stop-color:#FFD25C"/>
			<stop  offset="1" style="stop-color:#CD8421"/>
		</linearGradient>
		<circle id="XMLID_11_" class="st6" cx="343.7" cy="1259" r="98.1"/>
		<path class="st5" d="M390.9,1289.6h-52.2v-0.5c6.2-6.6,11.8-14.2,17.7-22.1l32.7-45.5v-22.4h-32.3v-21.9h-27.1v21.9h-29.4v29.6
			H348v0.5c-6.2,7.4-11.1,13.2-17.3,21.4l-34.2,47.5v21.3h33.2v21.3h27.1v-21.3h34.1V1289.6z"/>
		<g class="st5">
			<path d="M606.2,1280.5l0.3,0.6c0.3,12.8-4,23.4-12.5,31.4c-8.5,8.2-20.4,12.2-35,12.2c-14.9,0-27.1-4.9-36.2-14.9
				c-9.5-10.1-14-22.8-14-38.4V1247c0-15.5,4.6-28.3,13.7-38.4s21-15.2,35.9-15.2c14.9,0,26.8,4,35.6,11.9
				c8.8,7.9,12.8,18.6,12.8,32l-0.3,0.6h-20.7c0-8.5-2.5-15.2-7-20.1c-4.6-4.9-11.6-7.3-20.4-7.3s-15.5,3.3-20.7,10.3
				c-5.2,7-7.6,15.5-7.6,25.9v24.4c0,10.3,2.7,19.2,7.9,26.2c5.2,7,12.2,10.3,21,10.3c8.8,0,15.5-2.5,20.1-7
				c4.6-4.6,6.7-11.3,6.7-20.1C585.8,1280.5,606.2,1280.5,606.2,1280.5z"/>
			<path d="M696.4,1293h-50l-10.1,29.9h-21.6l46.9-127.3h20.1l46.3,127.3h-21.6L696.4,1293z M652.5,1275h37.8l-18.6-54.5h-0.6
				L652.5,1275z"/>
			<path d="M811.8,1289.9c0-5.2-1.8-9.8-5.8-13.1c-4-3.3-11-6.4-21-9.1c-14.3-3.7-25.3-8.5-32.9-14.9c-7.6-6.1-11.6-14.3-11.6-24.1
				c0-10.3,4.3-18.6,12.8-25.3s19.5-10.1,32.9-10.1c14,0,25.3,3.7,33.8,11.3c8.5,7.6,12.5,16.8,12.2,27.1l-0.3,0.6h-20.4
				c0-6.4-2.1-11.9-6.7-15.8s-10.6-6.1-18.9-6.1c-7.6,0-13.7,1.8-17.9,5.2c-4.3,3.3-6.4,7.6-6.4,13.1c0,4.9,2.1,8.8,6.7,12.2
				c4.6,3.3,11.9,6.1,22.6,9.1c13.7,3.7,24.1,8.8,31.4,15.2c7.3,6.4,10.6,14.6,10.6,24.7c0,10.6-4.3,19.2-12.8,25.3
				c-8.5,6.4-19.8,9.5-33.5,9.5c-13.4,0-25-3.7-35-10.6c-10.1-7-14.9-16.8-14.6-28.9l0.3-0.6h20.4c0,7.6,2.7,13.4,7.9,17.4
				c5.5,4,12.5,5.8,21,5.8c7.9,0,14-1.5,18.3-4.9C809.6,1299.4,811.8,1295.1,811.8,1289.9z"/>
			<path d="M954.9,1322.5h-21.3v-54.2h-57v54.2h-21.3v-127.3h21.3v56h57v-56h21.3V1322.5z"/>
		</g>
		<g class="st5">
			<text transform="matrix(1 0 0 1 964.1715 1209.6455)" class="st2" style="fill:#231F20; font-size:19.8481px;">TM</text>
		</g>
	</g>
</g>
</svg>
