<svg xmlns="http://www.w3.org/2000/svg" xmlns:xlink="http://www.w3.org/1999/xlink" width="222" height="64" viewBox="0 0 222 64">
  <defs>
    <polygon id="transparent-systems-logo-a" points="0 .913 20.326 .913 20.326 20.893 0 20.893"/>
    <polygon id="transparent-systems-logo-c" points=".286 .451 27.409 .451 27.409 39.255 .286 39.255"/>
  </defs>
  <g fill="none" fill-rule="evenodd">
    <polygon fill="#3C3C3C" points="76.776 35.321 76.776 19.405 70.875 19.405 70.875 18.535 83.617 18.535 83.617 19.405 77.716 19.405 77.716 35.321"/>
    <g transform="translate(0 .856)">
      <path fill="#3C3C3C" d="M90.8576653,26.0490449 C92.4093388,26.0490449 93.5469714,25.7394939 94.2666449,25.1203918 C94.9876245,24.5012898 95.3481143,23.5334531 95.3481143,22.2168816 C95.3481143,20.9316571 94.9837061,19.9951673 94.2561959,19.4074122 C93.5273796,18.8196571 92.347951,18.5257796 90.7179102,18.5257796 L86.2261551,18.5257796 L86.2261551,26.0490449 L90.8576653,26.0490449 Z M95.7948082,34.465698 L92.2930939,26.8013714 C91.931298,26.8640653 91.4702367,26.8954122 90.9046857,26.8954122 L86.2261551,26.8954122 L86.2261551,34.465698 L85.3105633,34.465698 L85.3105633,17.6794122 L90.8341551,17.6794122 C94.4860735,17.6794122 96.3133388,19.1840653 96.3133388,22.1933714 C96.3133388,23.3375347 96.0508082,24.2818612 95.5244408,25.026351 C94.9993796,25.7708408 94.2274612,26.2919837 93.2099918,26.5897796 L96.8540735,34.465698 L95.7948082,34.465698 Z"/>
      <path fill="#3C3C3C" d="M105.386971,18.6899592 L101.672359,28.235102 L109.125094,28.235102 L105.386971,18.6899592 Z M111.570155,34.4653061 L109.454237,29.1049796 L101.321012,29.1049796 L99.2521143,34.4653061 L98.2633796,34.4653061 L104.893257,17.6790204 L105.974727,17.6790204 L112.604604,34.4653061 L111.570155,34.4653061 Z"/>
      <polygon fill="#3C3C3C" points="125.136 34.465 115.05 19.09 115.05 34.465 114.111 34.465 114.111 17.679 115.191 17.679 125.277 33.078 125.277 17.679 126.217 17.679 126.217 34.465"/>
      <path fill="#3C3C3C" d="M133.129404,26.1663347 C131.468016,25.8998857 130.249404,25.4140082 129.473567,24.708702 C128.696424,24.0033959 128.309812,23.0238041 128.309812,21.7699265 C128.309812,20.3279673 128.806139,19.215151 129.80271,18.4314776 C130.797976,17.6478041 132.220343,17.2559673 134.069812,17.2559673 C135.68418,17.2559673 136.949812,17.5733551 137.86671,18.2081306 C138.783608,18.8429061 139.428833,19.8499265 139.804996,21.2291918 L138.935118,21.4642939 C138.575935,20.2417633 138.023445,19.3718857 137.278955,18.8546612 C136.533159,18.3374367 135.447771,18.0788245 134.022792,18.0788245 C132.454139,18.0788245 131.26818,18.3844571 130.460996,18.9957224 C129.653812,19.6069878 129.25022,20.516049 129.25022,21.7229061 C129.25022,22.7416816 129.559771,23.5331918 130.178873,24.0974367 C130.797976,24.6616816 131.773649,25.0456816 133.104588,25.2494367 L135.221812,25.5785796 C136.851853,25.8293551 138.057404,26.3269878 138.842384,27.0714776 C139.626057,27.8159673 140.016588,28.8386612 140.016588,30.1395592 C140.016588,31.6598857 139.520261,32.8275592 138.524996,33.6425796 C137.529731,34.4576 136.106057,34.8651102 134.257894,34.8651102 C132.392751,34.8651102 130.90769,34.4771918 129.80271,33.7013551 C128.696424,32.9255184 128.059037,31.8087837 127.886629,30.351151 L128.780016,30.351151 C129.25022,32.7962122 131.068343,34.0187429 134.234384,34.0187429 C135.848751,34.0187429 137.047771,33.7013551 137.831445,33.0665796 C138.613812,32.4318041 139.006955,31.4718041 139.006955,30.1865796 C139.006955,29.1207837 138.693486,28.2900898 138.066547,27.694498 C137.439608,27.0989061 136.444343,26.6913959 135.080751,26.4719673 L133.129404,26.1663347 Z"/>
      <path fill="#3C3C3C" d="M147.892114,26.6364082 C149.522155,26.6364082 150.713339,26.3033469 151.464359,25.6372245 C152.217992,24.971102 152.594155,23.9327347 152.594155,22.5221224 C152.594155,21.1115102 152.220604,20.0888163 151.47742,19.4540408 C150.732931,18.8192653 149.529992,18.5018776 147.867298,18.5018776 L143.284114,18.5018776 L143.284114,26.6364082 L147.892114,26.6364082 Z M142.367216,34.4653061 L142.367216,17.6790204 L147.962645,17.6790204 C151.691624,17.6790204 153.558073,19.2868571 153.558073,22.4986122 C153.558073,24.1443265 153.083951,25.386449 152.135706,26.2249796 C151.186155,27.0635102 149.771624,27.4827755 147.892114,27.4827755 L143.284114,27.4827755 L143.284114,34.4653061 L142.367216,34.4653061 Z"/>
      <path fill="#3C3C3C" d="M159.037518,18.6899592 L155.3216,28.235102 L162.774335,28.235102 L159.037518,18.6899592 Z M165.219396,34.4653061 L163.103478,29.1049796 L154.970253,29.1049796 L152.901355,34.4653061 L151.913927,34.4653061 L158.542498,17.6790204 L159.623967,17.6790204 L166.253845,34.4653061 L165.219396,34.4653061 Z"/>
      <path fill="#3C3C3C" d="M173.423935,26.0490449 C174.975608,26.0490449 176.113241,25.7394939 176.832914,25.1203918 C177.553894,24.5012898 177.914384,23.5334531 177.914384,22.2168816 C177.914384,20.9316571 177.549976,19.9951673 176.822465,19.4074122 C176.092343,18.8196571 174.91422,18.5257796 173.28418,18.5257796 L168.792424,18.5257796 L168.792424,26.0490449 L173.423935,26.0490449 Z M178.361078,34.465698 L174.859363,26.8013714 C174.497567,26.8640653 174.0352,26.8954122 173.470955,26.8954122 L168.792424,26.8954122 L168.792424,34.465698 L167.875527,34.465698 L167.875527,17.6794122 L173.400424,17.6794122 C177.052343,17.6794122 178.878302,19.1840653 178.878302,22.1933714 C178.878302,23.3375347 178.617078,24.2818612 178.09071,25.026351 C177.565649,25.7708408 176.793731,26.2919837 175.774955,26.5897796 L179.419037,34.465698 L178.361078,34.465698 Z"/>
      <polygon fill="#3C3C3C" points="182.029 34.465 182.029 17.679 192.397 17.679 192.397 18.549 182.97 18.549 182.97 25.367 191.926 25.367 191.926 26.237 182.97 26.237 182.97 33.596 192.702 33.596 192.445 34.465"/>
      <polygon fill="#3C3C3C" points="205.515 34.465 195.429 19.09 195.429 34.465 194.488 34.465 194.488 17.679 195.57 17.679 205.654 33.078 205.654 17.679 206.596 17.679 206.596 34.465"/>
      <polygon fill="#3C3C3C" points="214.189 34.465 214.189 18.549 208.288 18.549 208.288 17.679 221.031 17.679 221.031 18.549 215.13 18.549 215.13 34.465"/>
      <path fill="#959595" d="M76.4469551,48.8316082 C74.878302,48.5808327 73.726302,48.1210776 72.9935673,47.4549551 C72.2621388,46.7888327 71.8951184,45.864098 71.8951184,44.6794449 C71.8951184,43.3171592 72.3653224,42.2670367 73.3057306,41.5264653 C74.2448327,40.7858939 75.5888327,40.4162612 77.3351184,40.4162612 C78.8593633,40.4162612 80.0557714,40.7166694 80.9217306,41.3161796 C81.7876898,41.9156898 82.397649,42.8665469 82.7529143,44.168751 L81.9313633,44.3907918 C81.5904653,43.2361796 81.0680163,42.4146286 80.3653224,41.9261388 C79.6626286,41.437649 78.6373224,41.1934041 77.2907102,41.1934041 C75.8108735,41.1934041 74.6889143,41.4820571 73.9261388,42.0593633 C73.1633633,42.6366694 72.7832816,43.496098 72.7832816,44.6350367 C72.7832816,45.597649 73.0758531,46.344751 73.6596898,46.877649 C74.2448327,47.4105469 75.1669551,47.773649 76.424751,47.965649 L78.4231184,48.2765061 C79.9617306,48.5129143 81.1019755,48.9831184 81.8425469,49.6858122 C82.5818122,50.3898122 82.9514449,51.3563429 82.9514449,52.584098 C82.9514449,54.0195265 82.4825469,55.1232 81.5421388,55.8925061 C80.6030367,56.6631184 79.2590367,57.0471184 77.5114449,57.0471184 C75.7507918,57.0471184 74.3493224,56.680098 73.3057306,55.9473633 C72.2621388,55.2159347 71.6574041,54.1605878 71.4954449,52.7839347 L72.3378939,52.7839347 C72.7832816,55.0931592 74.5008327,56.2477714 77.4905469,56.2477714 C79.0147918,56.2477714 80.1472,55.9473633 80.8877714,55.3478531 C81.6283429,54.7483429 81.9979755,53.8418939 81.9979755,52.6285061 C81.9979755,51.6214857 81.7014857,50.8378122 81.1098122,50.2748735 C80.5168327,49.7119347 79.5764245,49.3279347 78.2898939,49.1202612 L76.4469551,48.8316082 Z"/>
      <polygon fill="#959595" points="89.369 56.67 89.369 49.808 83.885 40.816 84.862 40.816 89.813 49.009 94.722 40.816 95.654 40.816 90.235 49.786 90.235 56.67"/>
      <path fill="#959595" d="M101.249306,48.8316082 C99.6806531,48.5808327 98.5286531,48.1210776 97.7959184,47.4549551 C97.0644898,46.7888327 96.6974694,45.864098 96.6974694,44.6794449 C96.6974694,43.3171592 97.1676735,42.2670367 98.1080816,41.5264653 C99.0471837,40.7858939 100.391184,40.4162612 102.137469,40.4162612 C103.661714,40.4162612 104.858122,40.7166694 105.724082,41.3161796 C106.590041,41.9156898 107.2,42.8665469 107.555265,44.168751 L106.733714,44.3907918 C106.392816,43.2361796 105.870367,42.4146286 105.167673,41.9261388 C104.46498,41.437649 103.439673,41.1934041 102.093061,41.1934041 C100.613224,41.1934041 99.4912653,41.4820571 98.7284898,42.0593633 C97.9657143,42.6366694 97.5856327,43.496098 97.5856327,44.6350367 C97.5856327,45.597649 97.8782041,46.344751 98.4620408,46.877649 C99.0471837,47.4105469 99.9693061,47.773649 101.227102,47.965649 L103.225469,48.2765061 C104.764082,48.5129143 105.904327,48.9831184 106.644898,49.6858122 C107.384163,50.3898122 107.753796,51.3563429 107.753796,52.584098 C107.753796,54.0195265 107.284898,55.1232 106.34449,55.8925061 C105.405388,56.6631184 104.061388,57.0471184 102.313796,57.0471184 C100.553143,57.0471184 99.1516735,56.680098 98.1080816,55.9473633 C97.0644898,55.2159347 96.4597551,54.1605878 96.2977959,52.7839347 L97.1402449,52.7839347 C97.5856327,55.0931592 99.3031837,56.2477714 102.292898,56.2477714 C103.817143,56.2477714 104.949551,55.9473633 105.690122,55.3478531 C106.430694,54.7483429 106.800327,53.8418939 106.800327,52.6285061 C106.800327,51.6214857 106.503837,50.8378122 105.912163,50.2748735 C105.319184,49.7119347 104.378776,49.3279347 103.092245,49.1202612 L101.249306,48.8316082 Z"/>
      <polygon fill="#959595" points="114.415 56.67 114.415 41.637 108.842 41.637 108.842 40.816 120.876 40.816 120.876 41.637 115.303 41.637 115.303 56.67"/>
      <polygon fill="#959595" points="123.142 56.67 123.142 40.816 132.933 40.816 132.933 41.637 124.03 41.637 124.03 48.077 132.489 48.077 132.489 48.898 124.03 48.898 124.03 55.848 133.223 55.848 132.977 56.67"/>
      <polygon fill="#959595" points="149.318 56.67 149.318 42.281 143.279 56.67 142.457 56.67 136.419 42.326 136.419 56.67 135.597 56.67 135.597 40.816 136.663 40.816 142.902 55.648 149.12 40.816 150.141 40.816 150.141 56.67"/>
      <path fill="#959595" d="M157.556637,48.8316082 C155.987984,48.5808327 154.83729,48.1210776 154.103249,47.4549551 C153.37182,46.7888327 153.006106,45.864098 153.006106,44.6794449 C153.006106,43.3171592 153.475004,42.2670367 154.415412,41.5264653 C155.354514,40.7858939 156.698514,40.4162612 158.4448,40.4162612 C159.970351,40.4162612 161.165453,40.7166694 162.031412,41.3161796 C162.897371,41.9156898 163.508637,42.8665469 163.862596,44.168751 L163.041045,44.3907918 C162.700147,43.2361796 162.179004,42.4146286 161.47631,41.9261388 C160.77231,41.437649 159.74831,41.1934041 158.400392,41.1934041 C156.920555,41.1934041 155.798596,41.4820571 155.03582,42.0593633 C154.273045,42.6366694 153.892963,43.496098 153.892963,44.6350367 C153.892963,45.597649 154.185535,46.344751 154.769371,46.877649 C155.354514,47.4105469 156.276637,47.773649 157.534433,47.965649 L159.5328,48.2765061 C161.071412,48.5129143 162.211657,48.9831184 162.952229,49.6858122 C163.691494,50.3898122 164.062433,51.3563429 164.062433,52.584098 C164.062433,54.0195265 163.592229,55.1232 162.65182,55.8925061 C161.712718,56.6631184 160.368718,57.0471184 158.622433,57.0471184 C156.86178,57.0471184 155.459004,56.680098 154.415412,55.9473633 C153.37182,55.2159347 152.768392,54.1605878 152.605127,52.7839347 L153.448882,52.7839347 C153.892963,55.0931592 155.610514,56.2477714 158.600229,56.2477714 C160.12578,56.2477714 161.256882,55.9473633 161.997453,55.3478531 C162.738024,54.7483429 163.107657,53.8418939 163.107657,52.6285061 C163.107657,51.6214857 162.811167,50.8378122 162.219494,50.2748735 C161.62782,49.7119347 160.687412,49.3279347 159.399576,49.1202612 L157.556637,48.8316082 Z"/>
      <polygon fill="#0F748C" points="56.017 3.635 43.263 10.887 48.611 13.586 48.577 24.102 56.25 28.377"/>
      <polygon fill="#77C9D7" points="48.577 24.787 68.493 35.911 43.991 52.397 21.33 39.739 34.407 32.104 48.54 40.326"/>
      <g transform="translate(0 13.061)">
        <mask id="transparent-systems-logo-b" fill="#fff">
          <use xlink:href="#transparent-systems-logo-a"/>
        </mask>
        <polygon fill="#77C9D7" points="20.326 .913 0 14.763 10.973 20.893 10.641 15.91 20.326 10.341" mask="url(#transparent-systems-logo-b)"/>
      </g>
      <g transform="translate(20.592)">
        <mask id="transparent-systems-logo-d" fill="#fff">
          <use xlink:href="#transparent-systems-logo-c"/>
        </mask>
        <polygon fill="#075759" points="27.33 39.255 14.121 31.575 14.114 15.164 .32 23.059 .286 .45 27.409 13.906" mask="url(#transparent-systems-logo-d)"/>
      </g>
      <polygon fill="#075759" points="47.886 50.62 47.847 62.694 26.438 52.588 34.647 47.89 43.94 53.049"/>
      <polygon fill="#0F748C" points="34.103 16.222 34.103 31.576 20.106 39.754 34.031 47.521 13.215 59.435 11.278 29.291"/>
    </g>
  </g>
</svg>