<?xml version="1.0" encoding="utf-8"?>
<!-- Generator: Adobe Illustrator 23.0.2, SVG Export Plug-In . SVG Version: 6.00 Build 0)  -->
<svg version="1.1" id="Layer_1" xmlns="http://www.w3.org/2000/svg" xmlns:xlink="http://www.w3.org/1999/xlink" x="0px" y="0px"
	 viewBox="0 0 689.3 916.4" style="enable-background:new 0 0 689.3 916.4;" xml:space="preserve">
<style type="text/css">
	.st0{fill:#FFFFFF;}
	.st1{fill:#D8D8D8;}
	.st2{fill:#3CC68A;}
	.st3{fill:#424242;}
</style>
<g>
	<g>
		<path class="st0" d="M158,658.2v66.1h-15.4l-29.2-35.2v35.2H95.1v-66.1h15.4l29.2,35.2v-35.2H158z"/>
		<path class="st0" d="M241.2,709.8v14.4h-53.1v-66.1H240v14.4h-33.3v11.1h29.4v14h-29.4v12.1H241.2z"/>
		<path class="st0" d="M297.5,706.7h-10.2v17.6h-18.7v-66.1h30.2c6,0,11.2,1,15.6,3c4.4,2,7.8,4.8,10.2,8.5c2.4,3.7,3.6,8,3.6,13
			c0,4.8-1.1,9-3.4,12.5c-2.2,3.6-5.4,6.3-9.6,8.4l14.3,20.8h-20L297.5,706.7z M306.4,675.5c-2-1.7-4.8-2.5-8.7-2.5h-10.4v19.4h10.4
			c3.8,0,6.7-0.8,8.7-2.5c1.9-1.7,2.9-4,2.9-7.1C309.3,679.5,308.3,677.2,306.4,675.5z"/>
		<path class="st0" d="M422.5,658.2l-28.3,66.1h-18.4l-28.2-66.1h20.2l17.9,43.1l18.3-43.1H422.5z"/>
		<path class="st2" d="M457,721.2c-5.6-3-9.9-7-13.1-12.3c-3.2-5.2-4.8-11.1-4.8-17.7c0-6.5,1.6-12.4,4.8-17.7
			c3.2-5.2,7.6-9.3,13.1-12.3c5.6-3,11.8-4.4,18.8-4.4c7,0,13.3,1.5,18.8,4.4c5.6,3,9.9,7.1,13.1,12.3c3.2,5.2,4.8,11.1,4.8,17.7
			c0,6.5-1.6,12.4-4.8,17.7c-3.2,5.2-7.6,9.3-13.1,12.3c-5.6,3-11.8,4.4-18.8,4.4C468.9,725.6,462.6,724.1,457,721.2z M484.9,707.7
			c2.7-1.6,4.8-3.8,6.4-6.7c1.6-2.9,2.4-6.2,2.4-9.9c0-3.7-0.8-7-2.4-9.9c-1.6-2.9-3.7-5.1-6.4-6.7c-2.7-1.6-5.7-2.4-9.1-2.4
			c-3.3,0-6.4,0.8-9.1,2.4c-2.7,1.6-4.8,3.8-6.4,6.7c-1.6,2.9-2.4,6.2-2.4,9.9c0,3.7,0.8,7,2.4,9.9c1.6,2.9,3.7,5.1,6.4,6.7
			c2.7,1.6,5.7,2.4,9.1,2.4C479.2,710.1,482.2,709.3,484.9,707.7z"/>
		<path class="st0" d="M547.1,723.6c-5-1.3-9.1-3.1-12.3-5.3l6.1-13.8c3,2,6.4,3.5,10.3,4.7c3.9,1.2,7.7,1.8,11.5,1.8
			c7.2,0,10.8-1.8,10.8-5.4c0-1.9-1-3.3-3.1-4.2c-2-0.9-5.3-1.9-9.9-2.9c-5-1.1-9.1-2.2-12.5-3.4c-3.3-1.2-6.2-3.2-8.6-5.9
			c-2.4-2.7-3.6-6.4-3.6-11c0-4,1.1-7.7,3.3-10.9c2.2-3.2,5.5-5.8,9.9-7.7c4.4-1.9,9.7-2.8,16.1-2.8c4.3,0,8.6,0.5,12.8,1.5
			c4.2,1,7.9,2.4,11.1,4.3l-5.8,13.9c-6.3-3.4-12.4-5.1-18.3-5.1c-3.7,0-6.4,0.6-8.1,1.7c-1.7,1.1-2.6,2.5-2.6,4.3c0,1.8,1,3.1,3,4
			c2,0.9,5.3,1.8,9.7,2.7c5,1.1,9.2,2.2,12.5,3.4c3.3,1.2,6.2,3.2,8.6,5.9c2.4,2.7,3.6,6.3,3.6,10.9c0,4-1.1,7.6-3.3,10.8
			c-2.2,3.2-5.5,5.8-9.9,7.7c-4.4,1.9-9.8,2.9-16.1,2.9C557.3,725.6,552.1,724.9,547.1,723.6z"/>
	</g>
	<g>
		<polygon class="st0" points="95.2,142 95.2,225.4 95.2,308.7 95.2,392.1 178.6,392.1 178.6,308.7 178.6,225.4 178.6,142 		"/>
		<polygon class="st0" points="508.4,308.7 508.4,392.1 508.4,475.5 508.4,558.8 591.8,558.8 591.8,475.5 591.8,392.1 591.8,308.7 
					"/>
		<polygon class="st0" points="341.7,142 341.7,225.4 341.7,305.1 425.1,388.5 425.1,308.7 425.1,225.4 		"/>
		<polygon class="st0" points="261.9,312.3 261.9,392.1 261.9,475.5 345.3,558.8 345.3,475.5 345.3,395.7 		"/>
		<polygon class="st1" points="341.7,142 425.1,142 591.8,308.7 508.4,308.7 		"/>
		<polygon class="st1" points="95.2,392.1 178.6,392.1 345.3,558.8 261.9,558.8 		"/>
		<polygon class="st2" points="425.1,225.4 425.1,308.7 425.1,387.4 178.6,142 178.6,225.4 178.6,230.5 178.6,308.7 178.6,392.1 
			261.9,475.5 261.9,392.1 261.9,313.5 508.4,558.8 508.4,475.5 508.4,470.4 508.4,392.1 508.4,308.7 		"/>
	</g>
</g>
</svg>
