<svg xmlns="http://www.w3.org/2000/svg" width="1108.24" height="365.28" viewBox="0 0 1108.24 365.28"><g fill="#fff"><path d="M152.37 78.86c-2.1 14.76-11.24 24.25-25.57 24.25H82.67l7.73-49.27h44.13c11.56 0 21 4.94 17.84 25.02zm-12.26 102.72c-3.51 22.17-13.66 29.94-28 29.94H65.14l9.8-61.25h46.94c17.53 0 21 15.18 18.23 31.31zM165 127.75c24.13-2.82 41-23.58 44.82-48.89 5.94-40.13-9.83-75.01-63.41-75.01H40.65L0 261.47h106.84c53.93 0 81.93-9.15 90.4-69.3 4.53-35.22-10.58-60.92-32.25-64.42M204.2 261.47h57.47l29.4-186.8h-57.44l-29.44 186.8M295.61 3.53h-43.78c-5.61 0-9.1 3.5-9.8 8.8l-5.23 35.54c-.74 4.94 2.07 8.12 6.95 8.12h43.46c4.92 0 8.78-2.83 9.45-8.12l5.27-35.55c.74-4.9-1.05-8.79-6.32-8.79M708.23 74.6l-20.38 130.6c-11.5 10.52-22.03 14.75-38.83 14.75-10.22 0-15.77-4.23-12.96-21.81l19.6-123.55h-57.44l-19.6 122.17c-5.94 37.98-1.4 67.92 44.16 67.92 28.35 0 42.34-8.8 59.2-22.17l7 18.96h47.24l29.45-186.88h-57.44M841.48 98.2l-4.25-23.6h-49.71l-29.44 186.87h57.44l17.5-110.84c9.87-19.03 25.26-20.76 42.75-20.76 10.5 0 21.72 0 26.99.35l8.74-55.28c-4.88-2.08-11.2-2.08-18.51-2.08-21 0-39.6 12.67-51.5 25.35M1106.88 74.27h-53.96c-2.11 20.37-5.24 33.79-9.1 43.31l-39.57 96.02c-4.24-.35-14.75-1.38-15.8-13.7l-7.7-125.3h-59.52l11.92 136.18c2.77 32.4 19.6 50.69 52.52 50.69-12.96 25.66-28.7 47.15-60.92 63.36v40.45c24.52-3.85 78.77-13.03 118.36-103.81l53.58-123.84c7.03-16.2 14.72-40.16 10.19-63.36M408.39 22.17h-53.86l-11.66 52.1h-35.04l-6.28 41.87h34.68l-12.27 78.47c-7.73 48.57 14.34 67.24 43.78 67.24h37.49l5.23-34.87c-1.75 0-18.52-7.03-18.52-7.03-8.78-4.23-13.3-8.43-9.16-35.9l10.89-67.91h37.13l6.29-41.87H400.3l8.08-52.1M541.08 71.87c1.22-8.26 3.25-14.42 5.88-17.9 2.01-2.68 5.53-3.98 10.75-3.98 5.03 0 10.27.35 15.58 1.06 4.98.67 9.94 2.03 14.74 4.04l.07.02L601 8.94a83.3 83.3 0 0 0-10.28-3.42c-4.6-1.21-9.4-2.27-14.26-3.13-4.91-.86-9.93-1.48-14.91-1.85-4.94-.36-9.42-.54-13.32-.54-9.86 0-18.35 1.2-25.24 3.54a47.34 47.34 0 0 0-18.48 11.38 54.77 54.77 0 0 0-11.9 18.58c-2.73 6.86-4.99 14.95-6.69 24.03L482.8 73.7h-27.02l-7.34 41.87h27.63l-22.43 138.46-.08.27v.22c-.34 2.08-.73 4.22-1.25 6.76l.1.13h56.75l24.95-145.84 33.44-.03 7.27-41.84H540.8l.29-1.83"/></g></svg>