<?xml version="1.0" encoding="UTF-8"?>
<svg width="350px" height="160px" viewBox="0 0 350 160" version="1.1" xmlns="http://www.w3.org/2000/svg" xmlns:xlink="http://www.w3.org/1999/xlink">
    <!-- Generator: Sketch 50.2 (55047) - http://www.bohemiancoding.com/sketch -->
    <title>Var3_Black_Transp</title>
    <desc>Created with Sketch.</desc>
    <defs>
        <polygon id="path-1" points="0 0.98 36.4824474 0.98 36.4824474 60 0 60"></polygon>
        <polygon id="path-3" points="0.298430734 0.0291 39 0.0291 39 58.8311 0.298430734 58.8311"></polygon>
        <polygon id="path-5" points="0 19.6721311 66.3934426 19.6721311 66.3934426 0 0 0"></polygon>
        <polygon id="path-7" points="0 19.6721311 66.3934426 19.6721311 66.3934426 0 0 0"></polygon>
    </defs>
    <g id="Var3_Black_Transp" stroke="none" stroke-width="1" fill="none" fill-rule="evenodd">
        <g id="Variation-3">
            <g id="Logotype" transform="translate(150.000000, 87.000000)">
                <g id="Group-3" transform="translate(0.000000, 17.000000)">
                    <mask id="mask-2" fill="white">
                        <use xlink:href="#path-1"></use>
                    </mask>
                    <g id="Clip-2"></g>
                    <path d="M18.2695,7.457 C16.8335,7.457 15.4145,7.555 14.0525,7.747 C9.3515,8.414 7.2105,12.238 7.2105,15.51 L7.2205,32.085 C7.2205,36.152 10.5605,39.36 15.1605,39.716 C16.2185,39.797 17.2755,39.838 18.2965,39.838 C19.2555,39.838 20.2085,39.802 21.1235,39.729 C25.8945,39.358 28.8105,36.723 29.3375,32.308 C29.8285,28.187 29.9275,19.336 29.3475,14.878 C28.9535,11.833 26.9965,8.366 22.6935,7.764 C21.2385,7.561 19.7495,7.457 18.2695,7.457 Z M6.1325,60 C4.0115,60 -0.0005,58.849 -0.0005,54.492 L-0.0005,13.162 C-0.0005,8.99 3.1285,5.385 5.2345,3.981 C7.6795,2.346 11.6465,1.533 13.4045,1.33 C15.4515,1.095 17.2345,0.98 18.8555,0.98 C21.1055,0.98 23.1265,1.195 25.0405,1.637 C31.0895,3.035 34.7715,6.936 35.9785,13.231 C36.2485,14.64 36.3845,16.182 36.4125,18.081 L36.4315,19.645 C36.4845,23.177 36.5355,26.828 36.3675,30.422 C36.2555,32.717 35.8085,34.977 35.0745,36.959 C33.2595,41.864 29.5295,44.868 23.9865,45.89 C22.4495,46.172 20.8415,46.316 19.2085,46.316 C17.8745,46.316 16.4765,46.22 15.0565,46.032 C11.4925,45.559 8.8375,44.049 6.9555,41.422 L6.9585,60 L6.1325,60 Z" id="Fill-1" fill="#282828" mask="url(#mask-2)"></path>
                </g>
                <g id="Group-6" transform="translate(161.000000, 18.000000)">
                    <mask id="mask-4" fill="white">
                        <use xlink:href="#path-3"></use>
                    </mask>
                    <g id="Clip-5"></g>
                    <path d="M10.4785,58.8311 C9.9685,58.8311 9.6445,58.7851 9.6115,58.7801 L8.5685,58.6251 L14.7105,43.8371 C15.1585,42.7451 15.7075,41.1731 15.3005,40.1611 C11.6155,31.0311 8.0975,22.2351 4.5095,13.2641 L1.0135,4.5191 C0.3905,2.9641 0.0195,1.8851 0.5585,1.1011 C1.1115,0.2961 2.2615,0.2961 3.8555,0.2961 C6.1995,0.2961 6.8655,1.5021 7.4415,2.9571 C8.2755,5.0631 17.8125,29.1081 19.5875,33.5031 L31.7695,3.2151 C32.6135,1.1581 34.0295,0.0291 35.7595,0.0291 C36.3635,0.0291 37.0015,0.1661 37.6585,0.4371 C39.2555,1.0941 39.0545,2.2861 38.8945,2.7681 L18.4215,53.4881 C16.3415,58.3111 12.1735,58.8311 10.4785,58.8311" id="Fill-4" fill="#282828" mask="url(#mask-4)"></path>
                </g>
                <path d="M61.6816,42.3516 C58.9566,42.3516 56.5996,42.4326 54.8676,42.5886 C50.4296,42.9866 48.7306,44.6466 48.6016,48.7146 C48.5726,49.7076 48.5816,50.5036 48.6306,51.2166 C48.8676,54.6286 50.8596,56.5806 54.2426,56.7166 C55.4886,56.7666 56.5256,56.7896 57.5076,56.7896 C58.5726,56.7896 59.5406,56.7616 60.4686,56.7056 C64.2756,56.4746 67.1936,54.7806 69.3926,51.5256 C70.7716,49.4876 70.7206,47.2386 70.6656,44.8566 C70.6566,44.4536 70.6466,44.0506 70.6446,43.6456 C70.6446,43.4546 70.6406,42.9046 70.5876,42.7006 C70.4046,42.6456 69.9296,42.6136 69.5406,42.5866 C67.3826,42.4396 64.4456,42.3516 61.6816,42.3516 Z M76.6056,63.2556 C74.5526,63.2556 70.6736,62.0966 70.6736,57.7116 C70.6736,57.6076 70.6756,57.5116 70.6776,57.4226 L70.5686,57.5406 C68.3986,60.7806 63.9606,63.0596 59.4976,63.2206 C58.8616,63.2436 58.2206,63.2556 57.5796,63.2556 C55.4516,63.2556 53.5446,63.1206 51.7556,62.8376 C46.9746,62.0906 43.7146,59.2336 42.3316,54.5756 C41.3576,51.2966 41.3376,47.9976 42.2756,44.7656 C43.6036,40.1856 46.7926,37.4626 51.4976,36.8946 C54.4996,36.5336 58.1286,36.3416 61.9956,36.3416 C64.6506,36.3416 67.3496,36.4326 69.5996,36.6006 C69.7906,36.6156 69.9626,36.6226 70.1176,36.6226 C70.5076,36.6226 70.6116,36.5676 70.6156,36.5656 C70.6796,36.4286 70.6426,35.6336 70.6306,35.3736 C70.5336,33.3706 70.3726,31.0036 69.9006,28.6646 C69.5016,26.6876 68.1326,25.4566 65.7206,24.9026 C64.1096,24.5336 62.4766,24.3446 60.8696,24.3446 C57.5586,24.3446 52.8906,25.1546 49.4586,29.0086 C48.9236,29.6096 48.1156,30.5186 47.0586,30.5186 C46.7126,30.5186 46.3826,30.4196 46.0766,30.2266 C45.1896,29.6656 44.2496,29.0276 43.3596,28.1586 C42.9006,27.7166 42.6976,26.7576 43.6426,25.5216 C44.4396,24.4776 47.4336,20.9446 52.4646,19.2776 C54.8746,18.4786 57.7986,18.0566 60.9156,18.0566 C63.2206,18.0566 65.5156,18.2906 67.5526,18.7326 C72.2346,19.7476 75.3316,22.6856 76.5036,27.2286 C76.9906,29.1036 77.2836,31.1606 77.3786,33.3426 C77.7246,41.3226 77.4356,62.2396 77.4316,62.4506 L77.4196,63.2556 L76.6056,63.2556 Z" id="Fill-7" fill="#282828"></path>
                <path d="M92.5137,63.2559 C90.4317,63.2559 86.4957,62.1199 86.4957,57.8149 L86.4997,18.1329 L87.3267,18.1329 C89.4477,18.1329 93.4587,19.2169 93.4587,23.3229 L93.4587,23.3989 C93.4807,23.3769 93.5037,23.3559 93.5257,23.3349 C94.7247,22.1569 95.8497,21.1739 97.4357,20.1899 C99.5687,18.8679 102.1387,18.1969 105.0797,18.1969 C105.9607,18.1969 106.8807,18.2589 107.8167,18.3799 C109.6097,18.6109 110.6037,18.7759 111.9867,19.2739 C112.6137,19.4999 114.0017,20.2089 113.3847,21.9319 C113.1387,22.6419 112.8187,23.3159 112.4977,23.7989 L112.4377,23.8899 C112.0687,24.4509 111.6837,25.0329 110.6877,25.0329 C110.3617,25.0329 109.9627,24.9749 109.3147,24.8289 C107.8167,24.4899 106.3437,24.3179 104.9437,24.3179 C103.0707,24.3179 101.3947,24.6179 99.9647,25.2109 C98.5587,25.7919 96.9507,26.7069 96.0877,27.3089 C94.1677,28.6489 93.3687,30.2949 93.4177,32.8189 C93.4177,37.1859 93.3967,42.9849 93.3787,48.5879 C93.3597,53.8219 93.3397,58.8859 93.3397,62.4379 L93.3397,63.2559 L92.5137,63.2559 Z" id="Fill-9" fill="#282828"></path>
                <path d="M124.877,62.6201 C122.795,62.6201 118.857,61.5951 118.857,57.7121 L118.857,18.0021 L119.703,18.0191 C121.781,18.0641 125.709,19.3721 125.709,23.9971 L125.709,25.4071 C125.711,31.7271 125.711,56.4051 125.705,61.8031 L125.703,62.6201 L124.877,62.6201 Z" id="Fill-11" fill="#282828"></path>
                <path d="M145.4316,62.6201 C143.4316,62.6201 139.6506,61.5951 139.6506,57.7121 L139.6506,25.3381 L134.6056,25.3381 C133.5816,25.3381 133.0386,24.1831 133.0386,23.3491 L133.0386,20.0781 C133.0386,19.2241 133.5646,18.7931 134.6056,18.7931 L139.6506,18.7931 L139.6506,6.5211 L140.4766,6.5211 C142.4766,6.5211 146.2616,7.2671 146.2616,11.4251 L146.2616,18.7931 L156.0956,18.7931 C157.5336,18.7931 157.8336,19.4921 157.8336,20.0781 L157.8336,23.3491 C157.8336,24.1501 157.1036,25.3381 156.0956,25.3381 L146.2616,25.3381 L146.2616,62.6141 L145.4316,62.6201 Z" id="Fill-13" fill="#282828"></path>
                <path d="M122.2676,9.4033 C119.6486,9.4033 117.5176,7.2953 117.5176,4.7023 C117.5176,2.1103 119.6486,0.0003 122.2676,0.0003 C124.8866,0.0003 127.0176,2.1103 127.0176,4.7023 C127.0176,7.2953 124.8866,9.4033 122.2676,9.4033" id="Fill-15" fill="#282828"></path>
            </g>
            <g id="11-Line-Logo-Thin" transform="translate(7.000000, 8.000000)">
                <g id="Rotated-Red" transform="translate(72.180717, 72.041722) rotate(-32.000000) translate(-72.180717, -72.041722) translate(19.180717, 21.041722)" fill="#282828" fill-rule="nonzero">
                    <g id="Red" transform="translate(0.000000, -0.000000)">
                        <polygon id="Path-2" points="3.62980802e-18 1.74743852 -9.84354717e-19 0.809938525 105.737705 0.809938525 105.737705 1.74743852"></polygon>
                        <polygon id="Path-2" points="0 11.5835041 0 10.6460041 105.737705 10.6460041 105.737705 11.5835041"></polygon>
                        <polygon id="Path-2" points="0 21.4195697 0 20.4820697 105.737705 20.4820697 105.737705 21.4195697"></polygon>
                        <polygon id="Path-2" points="2.90384641e-17 31.2556352 -7.87483773e-18 30.3181352 105.737705 30.3181352 105.737705 31.2556352"></polygon>
                        <polygon id="Path-2" points="0 41.0917008 0 40.1542008 105.737705 40.1542008 105.737705 41.0917008"></polygon>
                        <polygon id="Path-2" points="5.80769283e-17 50.9277664 -1.57496755e-17 49.9902664 105.737705 49.9902664 105.737705 50.9277664"></polygon>
                        <polygon id="Path-2" points="0 60.763832 0 59.826332 105.737705 59.826332 105.737705 60.763832"></polygon>
                        <polygon id="Path-2" points="0 70.5998975 0 69.6623975 105.737705 69.6623975 105.737705 70.5998975"></polygon>
                        <polygon id="Path-2" points="0 80.4359631 0 79.4984631 105.737705 79.4984631 105.737705 80.4359631"></polygon>
                        <polygon id="Path-2" points="0 90.2720287 0 89.3345287 105.737705 89.3345287 105.737705 90.2720287"></polygon>
                        <polygon id="Path-2" points="0 100.108094 0 99.1705943 105.737705 99.1705943 105.737705 100.108094"></polygon>
                    </g>
                </g>
                <g id="Rotated-Blue-Top" transform="translate(38.803279, 46.180328)">
                    <mask id="mask-6" fill="white">
                        <use xlink:href="#path-5"></use>
                    </mask>
                    <g id="Mask"></g>
                    <g id="Rotated-Blue" mask="url(#mask-6)">
                        <g transform="translate(33.334002, 25.791882) rotate(-32.000000) translate(-33.334002, -25.791882) translate(-19.665998, -20.208118)" id="Blue">
                            <g transform="translate(0.000000, -0.000000)">
                                <polygon id="Path-2" fill="#282828" fill-rule="nonzero" points="3.62980802e-18 1.74743852 -9.84354717e-19 0.809938525 105.737705 0.809938525 105.737705 1.74743852"></polygon>
                                <polygon id="Path-2" fill="#282828" fill-rule="nonzero" points="0 11.5835041 0 10.6460041 105.737705 10.6460041 105.737705 11.5835041"></polygon>
                                <polygon id="Path-2" fill="#282828" fill-rule="nonzero" points="0 21.4195697 0 20.4820697 105.737705 20.4820697 105.737705 21.4195697"></polygon>
                                <polygon id="Path-2" fill="#282828" fill-rule="nonzero" points="0 31.2556352 0 30.3181352 105.737705 30.3181352 105.737705 31.2556352"></polygon>
                                <polygon id="Path-2" fill="#282828" fill-rule="nonzero" points="0 41.0917008 0 40.1542008 105.737705 40.1542008 105.737705 41.0917008"></polygon>
                                <polygon id="Path-2" fill="#282828" fill-rule="nonzero" points="0 50.9277664 0 49.9902664 105.737705 49.9902664 105.737705 50.9277664"></polygon>
                                <polygon id="Path-2" fill="#282828" fill-rule="nonzero" points="0 60.763832 0 59.826332 105.737705 59.826332 105.737705 60.763832"></polygon>
                                <polygon id="Path-2" fill="#282828" fill-rule="nonzero" points="0 70.5998975 0 69.6623975 105.737705 69.6623975 105.737705 70.5998975"></polygon>
                                <polygon id="Path-2" fill="#282828" fill-rule="nonzero" points="0 80.4359631 0 79.4984631 105.737705 79.4984631 105.737705 80.4359631"></polygon>
                                <polygon id="Path-2" fill="#282828" fill-rule="nonzero" points="0 90.2720287 0 89.3345287 105.737705 89.3345287 105.737705 90.2720287"></polygon>
                            </g>
                        </g>
                    </g>
                </g>
                <g id="Rotated-Blue-Bottom" transform="translate(38.803279, 80.606557)">
                    <g id="Rotated-Blue">
                        <mask id="mask-8" fill="white">
                            <use xlink:href="#path-7"></use>
                        </mask>
                        <g id="Mask"></g>
                        <g mask="url(#mask-8)" id="Blue">
                            <g transform="translate(33.334002, -8.634348) rotate(-32.000000) translate(-33.334002, 8.634348) translate(-19.665998, -54.634348)">
                                <g>
                                    <polygon id="Path-2" fill="#282828" fill-rule="nonzero" points="3.62980802e-18 1.74743852 -9.84354717e-19 0.809938525 105.737705 0.809938525 105.737705 1.74743852"></polygon>
                                    <polygon id="Path-2" fill="#282828" fill-rule="nonzero" points="0 11.5835041 0 10.6460041 105.737705 10.6460041 105.737705 11.5835041"></polygon>
                                    <polygon id="Path-2" fill="#282828" fill-rule="nonzero" points="0 21.4195697 0 20.4820697 105.737705 20.4820697 105.737705 21.4195697"></polygon>
                                    <polygon id="Path-2" fill="#282828" fill-rule="nonzero" points="0 31.2556352 0 30.3181352 105.737705 30.3181352 105.737705 31.2556352"></polygon>
                                    <polygon id="Path-2" fill="#282828" fill-rule="nonzero" points="0 41.0917008 0 40.1542008 105.737705 40.1542008 105.737705 41.0917008"></polygon>
                                    <polygon id="Path-2" fill="#282828" fill-rule="nonzero" points="0 50.9277664 0 49.9902664 105.737705 49.9902664 105.737705 50.9277664"></polygon>
                                    <polygon id="Path-2" fill="#282828" fill-rule="nonzero" points="0 60.763832 0 59.826332 105.737705 59.826332 105.737705 60.763832"></polygon>
                                    <polygon id="Path-2" fill="#282828" fill-rule="nonzero" points="0 70.5998975 0 69.6623975 105.737705 69.6623975 105.737705 70.5998975"></polygon>
                                    <polygon id="Path-2" fill="#282828" fill-rule="nonzero" points="0 80.4359631 0 79.4984631 105.737705 79.4984631 105.737705 80.4359631"></polygon>
                                    <polygon id="Path-2" fill="#282828" fill-rule="nonzero" points="0 90.2720287 0 89.3345287 105.737705 89.3345287 105.737705 90.2720287"></polygon>
                                </g>
                            </g>
                        </g>
                    </g>
                </g>
            </g>
        </g>
    </g>
</svg>