<svg xmlns="http://www.w3.org/2000/svg" width="232" height="42" viewBox="0 0 232 42">
  <g fill="none" fill-rule="evenodd" transform="translate(.182 .318)">
    <path fill="#F76061" d="M31.3525573,20.0047047 C26.1521937,20.0047047 21.92133,15.7738411 21.92133,10.5731593 C21.92133,5.37279562 26.1521937,1.14193199 31.3525573,1.14193199 C36.5529209,1.14193199 40.7837846,5.37279562 40.7837846,10.5731593 C40.7837846,11.8500229 39.7487391,12.8853865 38.4715573,12.8853865 C37.1946937,12.8853865 36.15933,11.8500229 36.15933,10.5731593 C36.15933,7.92238653 34.0030119,5.76606835 31.3525573,5.76606835 C28.7021028,5.76606835 26.5457846,7.92238653 26.5457846,10.5731593 C26.5457846,13.223932 28.7021028,15.3802502 31.3525573,15.3802502 C32.6294209,15.3802502 33.6647846,16.4156138 33.6647846,17.6924774 C33.6647846,18.9693411 32.6294209,20.0047047 31.3525573,20.0047047"/>
    <path fill="#1C627A" d="M21.5541482,32.8212911 L19.6616028,32.8212911 C18.9040119,32.8212911 18.2896028,32.2072002 18.2896028,31.4496093 C18.2896028,30.6920184 18.9040119,30.0779274 19.6616028,30.0779274 L21.5541482,30.0779274 C22.3117391,30.0779274 22.9261482,30.6920184 22.9261482,31.4496093 C22.9261482,32.2072002 22.3117391,32.8212911 21.5541482,32.8212911 M41.3762391,30.8861093 C41.1337846,25.7127911 36.9051482,21.5372911 31.7292846,21.3552911 C27.91333,21.2213365 24.5546028,23.222382 22.7511482,26.2562456 C22.3298755,26.9645184 21.5808755,27.4122002 20.7567846,27.4122002 L20.6307846,27.4122002 C19.8070119,27.4122002 19.0573755,26.9645184 18.6367391,26.2562456 C16.8332846,23.222382 13.4739209,21.2213365 9.65860276,21.3552911 C4.48273913,21.5372911 0.254102763,25.7127911 0.0113300356,30.8861093 C-0.258488146,36.6391547 4.32587549,41.3877002 10.0194209,41.3877002 C13.6886937,41.3877002 16.8966028,39.4146547 18.64183,36.4717911 C19.0586482,35.7692456 19.8016028,35.3247456 20.6186937,35.3247456 L20.7688755,35.3247456 C21.5862846,35.3247456 22.3292391,35.7692456 22.7457391,36.4717911 C24.4909664,39.4146547 27.6988755,41.3877002 31.3684664,41.3877002 C37.0616937,41.3877002 41.6460573,36.6391547 41.3762391,30.8861093"/>
    <path fill="#123447" d="M4.90709822,18.6367138 C5.61537094,19.0576684 6.06305276,19.8069865 6.06305276,20.6307593 L6.06305276,20.7570774 C6.06305276,21.5808502 5.61537094,22.3301684 4.90709822,22.7511229 C4.90009822,22.7555774 4.89278004,22.7597138 4.88578004,22.7641684 L4.90455276,22.7622593 C6.30805276,21.9222593 7.93046185,21.416032 9.65882549,21.3552593 C11.7238255,21.283032 13.6523255,21.8398502 15.2760073,22.8433956 C15.2244619,22.8115774 15.1751437,22.7768956 15.1226437,22.746032 C14.41978,22.3292138 13.9755982,21.5862593 13.9755982,20.7691684 L13.9755982,20.6186684 C13.9755982,19.8018956 14.41978,19.0586229 15.1226437,18.6421229 C18.0655073,16.8965774 20.0388709,13.6889865 20.0388709,10.0193956 C20.0388709,4.32585017 15.2900073,-0.258195286 9.53728004,0.0113047144 C4.36364367,0.254077442 0.188143672,4.48271381 0.00646185375,9.65857744 C-0.127492692,13.4742138 1.87323458,16.8332593 4.90709822,18.6367138"/>
    <path fill="#123447" d="M70.6803073,20.5751729 C70.1072619,19.7730365 69.0378528,19.1618093 67.8538982,19.1618093 C64.9896255,19.1618093 63.2708073,21.0715365 63.2708073,23.8594456 C63.2708073,26.6473547 64.9896255,28.557082 67.8538982,28.557082 C69.1142164,28.557082 70.0308982,27.9076729 70.6803073,27.1440365 L74.4612619,31.1159002 C72.66608,32.9492638 70.0308982,33.5983547 67.8538982,33.5983547 C62.1250346,33.5983547 57.5419437,29.7789002 57.5419437,23.8594456 C57.5419437,17.9396729 62.1250346,14.1205365 67.8538982,14.1205365 C70.0308982,14.1205365 72.66608,14.7699456 74.4612619,16.6029911 L70.6803073,20.5751729 Z"/>
    <path fill="#123447" d="M85.7370846,28.557082 C88.6016755,28.557082 90.3201755,26.6473547 90.3201755,23.8594456 C90.3201755,21.0715365 88.6016755,19.1618093 85.7370846,19.1618093 C82.8728119,19.1618093 81.1543119,21.0715365 81.1543119,23.8594456 C81.1543119,26.6473547 82.8728119,28.557082 85.7370846,28.557082 M85.7370846,14.1205365 C91.4662664,14.1205365 96.0490391,17.9396729 96.0490391,23.8594456 C96.0490391,29.7789002 91.4662664,33.5983547 85.7370846,33.5983547 C80.0082209,33.5983547 75.4254482,29.7789002 75.4254482,23.8594456 C75.4254482,17.9396729 80.0082209,14.1205365 85.7370846,14.1205365"/>
    <path fill="#123447" d="M108.213671,19.1618411 C105.349398,19.1618411 103.630898,21.0715684 103.630898,23.8594774 C103.630898,26.6473865 105.349398,28.5571138 108.213671,28.5571138 C111.078262,28.5571138 112.79708,26.6473865 112.79708,23.8594774 C112.79708,21.0715684 111.078262,19.1618411 108.213671,19.1618411 L108.213671,19.1618411 Z M118.067444,33.1402047 L112.79708,33.1402047 L112.79708,30.695932 L112.720398,30.695932 C111.842216,32.0322956 109.626716,33.5983865 107.029716,33.5983865 C101.530262,33.5983865 97.9020346,29.6262047 97.9020346,24.0122047 C97.9020346,18.8567047 101.110262,14.1205684 106.380625,14.1205684 C108.748853,14.1205684 110.963716,14.7699774 112.262216,16.5648411 L112.33858,16.5648411 L112.33858,4.26711381 L118.067444,4.26711381 L118.067444,33.1402047 Z"/>
    <path fill="#123447" d="M134.138648,21.759032 C134.17683,19.8496229 132.687421,18.2453502 130.624966,18.2453502 C128.104012,18.2453502 126.729466,19.9638502 126.576421,21.759032 L134.138648,21.759032 Z M138.989012,29.9318502 C137.155648,32.2618956 134.138648,33.5982593 131.15983,33.5982593 C125.430966,33.5982593 120.847875,29.7791229 120.847875,23.8593502 C120.847875,17.9398956 125.430966,14.1207593 131.15983,14.1207593 C136.506557,14.1207593 139.867512,17.9398956 139.867512,23.8593502 L139.867512,25.654532 L126.576421,25.654532 C127.034921,27.8312138 128.677375,29.2442593 130.892557,29.2442593 C132.763785,29.2442593 134.024421,28.2897138 134.978966,26.9908956 L138.989012,29.9318502 Z"/>
    <path fill="#123447" d="M155.906739,20.5751729 C155.333694,19.7730365 154.264285,19.1618093 153.08033,19.1618093 C150.216057,19.1618093 148.497557,21.0715365 148.497557,23.8594456 C148.497557,26.6473547 150.216057,28.557082 153.08033,28.557082 C154.340648,28.557082 155.257648,27.9076729 155.906739,27.1440365 L159.687694,31.1159002 C157.892512,32.9492638 155.257648,33.5983547 153.08033,33.5983547 C147.351466,33.5983547 142.768694,29.7789002 142.768694,23.8594456 C142.768694,17.9396729 147.351466,14.1205365 153.08033,14.1205365 C155.257648,14.1205365 157.892512,14.7699456 159.687694,16.6029911 L155.906739,20.5751729 Z"/>
    <path fill="#123447" d="M167.477803,4.26711381 L167.477803,17.0997047 L167.553848,17.0997047 C168.088712,15.6484774 169.960257,14.1205684 172.747848,14.1205684 C178.553394,14.1205684 179.622485,17.9397047 179.622485,22.9046138 L179.622485,33.1402047 L173.893939,33.1402047 L173.893939,24.0503865 C173.893939,21.9115684 173.855757,19.1618411 170.915121,19.1618411 C167.935666,19.1618411 167.477803,21.4915684 167.477803,23.8976593 L167.477803,33.1402047 L161.748621,33.1402047 L161.748621,4.26711381 L167.477803,4.26711381 Z"/>
    <path fill="#123447" d="M193.495403,25.0051865 C191.738721,25.0051865 187.842903,25.1579138 187.842903,27.6785502 C187.842903,29.053732 189.29413,29.7028229 190.554448,29.7028229 C192.807812,29.7028229 194.908448,28.5188684 194.908448,26.2273229 L194.908448,25.0051865 L193.495403,25.0051865 Z M194.908448,30.8104138 L194.831766,30.8104138 C193.571766,32.7965047 191.280221,33.5983229 188.950494,33.5983229 C185.474994,33.5983229 182.343448,31.6125502 182.343448,27.8697774 C182.343448,21.4536411 190.134448,21.3390956 194.908448,21.3390956 C194.908448,19.3148229 193.22813,18.0163229 191.242039,18.0163229 C189.370494,18.0163229 187.804721,18.8566411 186.582585,20.2315047 L183.527403,17.0996411 C185.627721,15.1138684 188.683221,14.1208229 191.700221,14.1208229 C198.383948,14.1208229 200.178812,17.5196411 200.178812,23.7066865 L200.178812,33.1401411 L194.908448,33.1401411 L194.908448,30.8104138 Z"/>
    <path fill="#123447" d="M203.844203,33.1401411 L209.572748,33.1401411 L209.572748,14.5790047 L203.844203,14.5790047 L203.844203,33.1401411 Z M206.708157,5.4128229 C208.541521,5.4128229 210.03093,6.90223199 210.03093,8.73559562 C210.03093,10.5686411 208.541521,12.0583684 206.708157,12.0583684 C204.875112,12.0583684 203.385385,10.5686411 203.385385,8.73559562 C203.385385,6.90223199 204.875112,5.4128229 206.708157,5.4128229 L206.708157,5.4128229 Z"/>
    <path fill="#123447" d="M213.696225,14.5789729 L219.195998,14.5789729 L219.195998,17.0996093 L219.27268,17.0996093 C220.036316,15.648382 221.907862,14.1207911 224.695771,14.1207911 C230.500998,14.1207911 231.570407,17.9399274 231.570407,22.9045184 L231.570407,33.1401093 L225.841544,33.1401093 L225.841544,24.0502911 C225.841544,21.9114729 225.803362,19.1617456 222.862725,19.1617456 C219.883271,19.1617456 219.425407,21.4917911 219.425407,23.8975638 L219.425407,33.1401093 L213.696225,33.1401093 L213.696225,14.5789729 Z"/>
  </g>
</svg>
